<svg xmlns="http://www.w3.org/2000/svg" width="900" height="320" viewBox="0 0 900 320">
<rect width="100%" height="100%" fill="#ffffff"/>
<text x="24" y="26" font-family="Arial" font-size="18" font-weight="700">Balanced Scenario: Path Quality</text>
<text x="24" y="63" font-family="Arial" font-size="13" fill="#111827">kg path reasoning</text>
<rect x="220" y="40" width="600" height="34" rx="4" fill="#e5e7eb"/>
<rect x="220" y="40" width="450" height="34" rx="4" fill="#3b82f6"/>
<text x="836" y="63" font-family="Arial" font-size="13" fill="#111827">0.7506</text>
<text x="24" y="121" font-family="Arial" font-size="13" fill="#111827">proposed score fusion</text>
<rect x="220" y="98" width="600" height="34" rx="4" fill="#e5e7eb"/>
<rect x="220" y="98" width="294" height="34" rx="4" fill="#10b981"/>
<text x="836" y="121" font-family="Arial" font-size="13" fill="#111827">0.4915</text>
<text x="24" y="179" font-family="Arial" font-size="13" fill="#111827">proposed explainable rerank</text>
<rect x="220" y="156" width="600" height="34" rx="4" fill="#e5e7eb"/>
<rect x="220" y="156" width="315" height="34" rx="4" fill="#f59e0b"/>
<text x="836" y="179" font-family="Arial" font-size="13" fill="#111827">0.5255</text>
<line x1="220" y1="220" x2="820" y2="220" stroke="#9ca3af" stroke-width="1"/>
<line x1="220" y1="220" x2="220" y2="226" stroke="#9ca3af" stroke-width="1"/>
<text x="210" y="244" font-family="Arial" font-size="11" fill="#4b5563">0.00</text>
<line x1="370" y1="220" x2="370" y2="226" stroke="#9ca3af" stroke-width="1"/>
<text x="360" y="244" font-family="Arial" font-size="11" fill="#4b5563">0.25</text>
<line x1="520" y1="220" x2="520" y2="226" stroke="#9ca3af" stroke-width="1"/>
<text x="510" y="244" font-family="Arial" font-size="11" fill="#4b5563">0.50</text>
<line x1="670" y1="220" x2="670" y2="226" stroke="#9ca3af" stroke-width="1"/>
<text x="660" y="244" font-family="Arial" font-size="11" fill="#4b5563">0.75</text>
<line x1="820" y1="220" x2="820" y2="226" stroke="#9ca3af" stroke-width="1"/>
<text x="810" y="244" font-family="Arial" font-size="11" fill="#4b5563">1.00</text>
</svg>
