<svg xmlns="http://www.w3.org/2000/svg" viewBox="0 0 960 320">
  <rect width="960" height="320" fill="#07111f"/>
  <rect x="58" y="132" width="74" height="56" rx="10" fill="#10233d" stroke="#2f7dff" stroke-width="2"/>
  <rect x="183" y="132" width="74" height="56" rx="10" fill="#132b47" stroke="#30d180" stroke-width="2"/>
  <rect x="333" y="132" width="74" height="56" rx="10" fill="#10233d" stroke="#f4bc45" stroke-width="2"/>
  <rect x="483" y="132" width="74" height="56" rx="10" fill="#10233d" stroke="#27d4ff" stroke-width="2"/>
  <rect x="633" y="132" width="74" height="56" rx="10" fill="#132b47" stroke="#ff5c65" stroke-width="2"/>
  <rect x="808" y="132" width="74" height="56" rx="10" fill="#10233d" stroke="#a889ff" stroke-width="2"/>
  <g fill="none" stroke="#27d4ff" stroke-width="3" opacity="0.85">
    <path d="M90 160h760"/>
    <path d="M220 105v110M370 105v110M520 105v110M670 105v110"/>
  </g>
  <g font-family="Microsoft YaHei,Arial,sans-serif" font-size="22" fill="#e7f0fb" text-anchor="middle">
    <text x="95" y="92">粗炼</text><text x="220" y="92">精炼</text><text x="370" y="92">中间包</text>
    <text x="520" y="92">结晶器</text><text x="670" y="92">流量控制</text><text x="845" y="92">品质检测</text>
  </g>
  <g fill="#10233d" stroke="#2f7dff" stroke-width="2">
    <circle cx="95" cy="160" r="34"/><circle cx="220" cy="160" r="34"/><circle cx="370" cy="160" r="34"/>
    <circle cx="520" cy="160" r="34"/><circle cx="670" cy="160" r="34"/><circle cx="845" cy="160" r="34"/>
  </g>
</svg>
