<?xml version="1.0" encoding="utf-8" standalone="no"?>
<!DOCTYPE svg PUBLIC "-//W3C//DTD SVG 1.1//EN"
  "http://www.w3.org/Graphics/SVG/1.1/DTD/svg11.dtd">
<svg xmlns:xlink="http://www.w3.org/1999/xlink" width="717.48pt" height="369.216pt" viewBox="0 0 717.48 369.216" xmlns="http://www.w3.org/2000/svg" version="1.1">
 <metadata>
  <rdf:RDF xmlns:dc="http://purl.org/dc/elements/1.1/" xmlns:cc="http://creativecommons.org/ns#" xmlns:rdf="http://www.w3.org/1999/02/22-rdf-syntax-ns#">
   <cc:Work>
    <dc:type rdf:resource="http://purl.org/dc/dcmitype/StillImage"/>
    <dc:date>2026-06-20T22:56:10.791282</dc:date>
    <dc:format>image/svg+xml</dc:format>
    <dc:creator>
     <cc:Agent>
      <dc:title>Matplotlib v3.10.8, https://matplotlib.org/</dc:title>
     </cc:Agent>
    </dc:creator>
   </cc:Work>
  </rdf:RDF>
 </metadata>
 <defs>
  <style type="text/css">*{stroke-linejoin: round; stroke-linecap: butt}</style>
 </defs>
 <g id="figure_1">
  <g id="patch_1">
   <path d="M 0 369.216 
L 717.48 369.216 
L 717.48 0 
L 0 0 
z
" style="fill: #ffffff"/>
  </g>
  <g id="axes_1">
   <g id="patch_2">
    <path d="M 42.354 213.702912 
L 133.7544 213.702912 
Q 142.19136 213.702912 142.19136 209.44512 
L 142.19136 166.8672 
Q 142.19136 162.609408 133.7544 162.609408 
L 42.354 162.609408 
Q 33.91704 162.609408 33.91704 166.8672 
L 33.91704 209.44512 
Q 33.91704 213.702912 42.354 213.702912 
z
" clip-path="url(#pb277f11c21)" style="fill: #eef1f3; stroke: #7c8a93; stroke-width: 1.15; stroke-linejoin: miter"/>
   </g>
   <g id="patch_3">
    <path d="M 190.0008 107.258112 
L 309.5244 107.258112 
Q 317.96136 107.258112 317.96136 103.00032 
L 317.96136 67.51872 
Q 317.96136 63.260928 309.5244 63.260928 
L 190.0008 63.260928 
Q 181.56384 63.260928 181.56384 67.51872 
L 181.56384 103.00032 
Q 181.56384 107.258112 190.0008 107.258112 
z
" clip-path="url(#pb277f11c21)" style="fill: #f4e7c4; stroke: #a3782b; stroke-width: 1.15; stroke-linejoin: miter"/>
   </g>
   <g id="patch_4">
    <path d="M 190.0008 160.480512 
L 309.5244 160.480512 
Q 317.96136 160.480512 317.96136 156.22272 
L 317.96136 120.74112 
Q 317.96136 116.483328 309.5244 116.483328 
L 190.0008 116.483328 
Q 181.56384 116.483328 181.56384 120.74112 
L 181.56384 156.22272 
Q 181.56384 160.480512 190.0008 160.480512 
z
" clip-path="url(#pb277f11c21)" style="fill: #f4e7c4; stroke: #a3782b; stroke-width: 1.15; stroke-linejoin: miter"/>
   </g>
   <g id="patch_5">
    <path d="M 190.0008 213.702912 
L 309.5244 213.702912 
Q 317.96136 213.702912 317.96136 209.44512 
L 317.96136 173.96352 
Q 317.96136 169.705728 309.5244 169.705728 
L 190.0008 169.705728 
Q 181.56384 169.705728 181.56384 173.96352 
L 181.56384 209.44512 
Q 181.56384 213.702912 190.0008 213.702912 
z
" clip-path="url(#pb277f11c21)" style="fill: #f4e7c4; stroke: #a3782b; stroke-width: 1.15; stroke-linejoin: miter"/>
   </g>
   <g id="patch_6">
    <path d="M 190.0008 266.925312 
L 309.5244 266.925312 
Q 317.96136 266.925312 317.96136 262.66752 
L 317.96136 227.18592 
Q 317.96136 222.928128 309.5244 222.928128 
L 190.0008 222.928128 
Q 181.56384 222.928128 181.56384 227.18592 
L 181.56384 262.66752 
Q 181.56384 266.925312 190.0008 266.925312 
z
" clip-path="url(#pb277f11c21)" style="fill: #f4e7c4; stroke: #a3782b; stroke-width: 1.15; stroke-linejoin: miter"/>
   </g>
   <g id="patch_7">
    <path d="M 190.0008 320.147712 
L 309.5244 320.147712 
Q 317.96136 320.147712 317.96136 315.88992 
L 317.96136 280.40832 
Q 317.96136 276.150528 309.5244 276.150528 
L 190.0008 276.150528 
Q 181.56384 276.150528 181.56384 280.40832 
L 181.56384 315.88992 
Q 181.56384 320.147712 190.0008 320.147712 
z
" clip-path="url(#pb277f11c21)" style="fill: #f4e7c4; stroke: #a3782b; stroke-width: 1.15; stroke-linejoin: miter"/>
   </g>
   <g id="patch_8">
    <path d="M 344.6784 320.147712 
L 464.202 320.147712 
Q 472.63896 320.147712 472.63896 315.88992 
L 472.63896 280.40832 
Q 472.63896 276.150528 464.202 276.150528 
L 344.6784 276.150528 
Q 336.24144 276.150528 336.24144 280.40832 
L 336.24144 315.88992 
Q 336.24144 320.147712 344.6784 320.147712 
z
" clip-path="url(#pb277f11c21)" style="fill: #f4e7c4; stroke: #a3782b; stroke-width: 1.15; stroke-linejoin: miter"/>
   </g>
   <g id="patch_9">
    <path d="M 372.8016 217.251072 
L 471.2328 217.251072 
Q 479.66976 217.251072 479.66976 212.99328 
L 479.66976 166.8672 
Q 479.66976 162.609408 471.2328 162.609408 
L 372.8016 162.609408 
Q 364.36464 162.609408 364.36464 166.8672 
L 364.36464 212.99328 
Q 364.36464 217.251072 372.8016 217.251072 
z
" clip-path="url(#pb277f11c21)" style="fill: #f1d7d8; stroke: #a65c61; stroke-width: 1.15; stroke-linejoin: miter"/>
   </g>
   <g id="patch_10">
    <path d="M 513.4176 217.251072 
L 611.8488 217.251072 
Q 620.28576 217.251072 620.28576 212.99328 
L 620.28576 166.8672 
Q 620.28576 162.609408 611.8488 162.609408 
L 513.4176 162.609408 
Q 504.98064 162.609408 504.98064 166.8672 
L 504.98064 212.99328 
Q 504.98064 217.251072 513.4176 217.251072 
z
" clip-path="url(#pb277f11c21)" style="fill: #f1d7d8; stroke: #a65c61; stroke-width: 1.15; stroke-linejoin: miter"/>
   </g>
   <g id="patch_11">
    <path d="M 611.8488 146.287872 
L 696.2184 146.287872 
Q 704.65536 146.287872 704.65536 142.03008 
L 704.65536 103.00032 
Q 704.65536 98.742528 696.2184 98.742528 
L 611.8488 98.742528 
Q 603.41184 98.742528 603.41184 103.00032 
L 603.41184 142.03008 
Q 603.41184 146.287872 611.8488 146.287872 
z
" clip-path="url(#pb277f11c21)" style="fill: #dceee4; stroke: #4c8b63; stroke-width: 1.15; stroke-linejoin: miter"/>
   </g>
   <g id="patch_12">
    <path d="M 611.8488 284.666112 
L 696.2184 284.666112 
Q 704.65536 284.666112 704.65536 280.40832 
L 704.65536 241.37856 
Q 704.65536 237.120768 696.2184 237.120768 
L 611.8488 237.120768 
Q 603.41184 237.120768 603.41184 241.37856 
L 603.41184 280.40832 
Q 603.41184 284.666112 611.8488 284.666112 
z
" clip-path="url(#pb277f11c21)" style="fill: #eef1f3; stroke: #7c8a93; stroke-width: 1.15; stroke-linejoin: miter"/>
   </g>
   <g id="patch_13">
    <path d="M 135.807254 184.722685 
Q 163.7995 137.75955 187.643836 89.993321 
" clip-path="url(#pb277f11c21)" style="fill: none; stroke: #62727b; stroke-width: 1.15; stroke-linecap: round"/>
    <path d="M 183.352678 93.216048 
L 187.643836 89.993321 
L 187.647323 95.359883 
z
" clip-path="url(#pb277f11c21)" style="fill: #62727b; stroke: #62727b; stroke-width: 1.15; stroke-linecap: round"/>
   </g>
   <g id="patch_14">
    <path d="M 311.487837 88.747623 
Q 339.237851 137.894147 369.862985 183.76424 
" clip-path="url(#pb277f11c21)" style="fill: none; stroke: #62727b; stroke-width: 1.15; stroke-linecap: round"/>
    <path d="M 369.193725 178.439572 
L 369.862985 183.76424 
L 365.201694 181.104848 
z
" clip-path="url(#pb277f11c21)" style="fill: #62727b; stroke: #62727b; stroke-width: 1.15; stroke-linecap: round"/>
   </g>
   <g id="patch_15">
    <path d="M 136.851648 185.622826 
Q 162.772755 164.328912 186.174891 142.123838 
" clip-path="url(#pb277f11c21)" style="fill: none; stroke: #62727b; stroke-width: 1.15; stroke-linecap: round"/>
    <path d="M 181.040947 143.686727 
L 186.174891 142.123838 
L 184.344836 147.168727 
z
" clip-path="url(#pb277f11c21)" style="fill: #62727b; stroke: #62727b; stroke-width: 1.15; stroke-linecap: round"/>
   </g>
   <g id="patch_16">
    <path d="M 312.578117 141.072541 
Q 340.26462 164.465941 368.523277 185.049644 
" clip-path="url(#pb277f11c21)" style="fill: none; stroke: #62727b; stroke-width: 1.15; stroke-linecap: round"/>
    <path d="M 366.056478 180.283629 
L 368.523277 185.049644 
L 363.230386 184.163474 
z
" clip-path="url(#pb277f11c21)" style="fill: #62727b; stroke: #62727b; stroke-width: 1.15; stroke-linecap: round"/>
   </g>
   <g id="patch_17">
    <path d="M 137.737629 188.556389 
Q 161.817368 190.906935 184.716398 191.564025 
" clip-path="url(#pb277f11c21)" style="fill: none; stroke: #62727b; stroke-width: 1.15; stroke-linecap: round"/>
    <path d="M 179.987213 189.027332 
L 184.716398 191.564025 
L 179.849533 193.825357 
z
" clip-path="url(#pb277f11c21)" style="fill: #62727b; stroke: #62727b; stroke-width: 1.15; stroke-linecap: round"/>
   </g>
   <g id="patch_18">
    <path d="M 313.522368 191.630133 
Q 341.224696 191.046281 367.538215 188.646334 
" clip-path="url(#pb277f11c21)" style="fill: none; stroke: #62727b; stroke-width: 1.15; stroke-linecap: round"/>
    <path d="M 362.540067 186.692232 
L 367.538215 188.646334 
L 362.976045 191.472392 
z
" clip-path="url(#pb277f11c21)" style="fill: #62727b; stroke: #62727b; stroke-width: 1.15; stroke-linecap: round"/>
   </g>
   <g id="patch_19">
    <path d="M 136.458194 191.100838 
Q 160.848604 217.557981 186.141066 241.312636 
" clip-path="url(#pb277f11c21)" style="fill: none; stroke: #62727b; stroke-width: 1.15; stroke-linecap: round"/>
    <path d="M 184.285295 236.277151 
L 186.141066 241.312636 
L 180.999215 239.775962 
z
" clip-path="url(#pb277f11c21)" style="fill: #62727b; stroke: #62727b; stroke-width: 1.15; stroke-linecap: round"/>
   </g>
   <g id="patch_20">
    <path d="M 312.601943 242.370371 
Q 342.195735 217.694307 369.000589 191.833725 
" clip-path="url(#pb277f11c21)" style="fill: none; stroke: #62727b; stroke-width: 1.15; stroke-linecap: round"/>
    <path d="M 363.879816 193.439241 
L 369.000589 191.833725 
L 367.212537 196.893653 
z
" clip-path="url(#pb277f11c21)" style="fill: #62727b; stroke: #62727b; stroke-width: 1.15; stroke-linecap: round"/>
   </g>
   <g id="patch_21">
    <path d="M 135.437764 191.788128 
Q 159.816745 244.209567 187.416651 293.540859 
" clip-path="url(#pb277f11c21)" style="fill: none; stroke: #62727b; stroke-width: 1.15; stroke-linecap: round"/>
    <path d="M 187.167489 288.180083 
L 187.416651 293.540859 
L 182.978533 290.523723 
z
" clip-path="url(#pb277f11c21)" style="fill: #62727b; stroke: #62727b; stroke-width: 1.15; stroke-linecap: round"/>
   </g>
   <g id="patch_22">
    <path d="M 311.653519 294.758906 
Q 343.230151 244.338323 370.345028 192.833241 
" clip-path="url(#pb277f11c21)" style="fill: none; stroke: #62727b; stroke-width: 1.15; stroke-linecap: round"/>
    <path d="M 365.985311 195.962597 
L 370.345028 192.833241 
L 370.232683 198.198628 
z
" clip-path="url(#pb277f11c21)" style="fill: #62727b; stroke: #62727b; stroke-width: 1.15; stroke-linecap: round"/>
   </g>
   <g id="patch_23">
    <path d="M 137.225235 190.143393 
Q 237.090474 247.232481 339.902692 295.89182 
" clip-path="url(#pb277f11c21)" style="fill: none; stroke: #62727b; stroke-width: 1.15; stroke-linecap: round"/>
    <path d="M 336.590775 291.669118 
L 339.902692 295.89182 
L 334.537381 296.007732 
z
" clip-path="url(#pb277f11c21)" style="fill: #62727b; stroke: #62727b; stroke-width: 1.15; stroke-linecap: round"/>
   </g>
   <g id="patch_24">
    <path d="M 461.769199 294.978484 
Q 420.584455 241.426758 376.336574 192.090913 
" clip-path="url(#pb277f11c21)" style="fill: none; stroke: #62727b; stroke-width: 1.15; stroke-linecap: round"/>
    <path d="M 377.754739 197.266704 
L 376.336574 192.090913 
L 381.328106 194.061855 
z
" clip-path="url(#pb277f11c21)" style="fill: #62727b; stroke: #62727b; stroke-width: 1.15; stroke-linecap: round"/>
   </g>
   <g id="patch_25">
    <path d="M 475.231396 188.15616 
Q 492.322426 188.15616 508.127717 188.15616 
" clip-path="url(#pb277f11c21)" style="fill: none; stroke: #62727b; stroke-width: 1.15; stroke-linecap: round"/>
    <path d="M 503.327717 185.75616 
L 508.127717 188.15616 
L 503.327717 190.55616 
z
" clip-path="url(#pb277f11c21)" style="fill: #62727b; stroke: #62727b; stroke-width: 1.15; stroke-linecap: round"/>
   </g>
   <g id="patch_26">
    <path d="M 611.8488 173.512637 
Q 611.8488 152.67528 611.8488 133.123662 
" clip-path="url(#pb277f11c21)" style="fill: none; stroke: #62727b; stroke-width: 1.15; stroke-linecap: round"/>
    <path d="M 609.4488 137.923662 
L 611.8488 133.123662 
L 614.2488 137.923662 
z
" clip-path="url(#pb277f11c21)" style="fill: #62727b; stroke: #62727b; stroke-width: 1.15; stroke-linecap: round"/>
   </g>
   <g id="patch_27">
    <path d="M 611.8488 206.350875 
Q 611.8488 230.736653 611.8488 253.836692 
" clip-path="url(#pb277f11c21)" style="fill: none; stroke: #62727b; stroke-width: 1.15; stroke-linecap: round"/>
    <path d="M 614.2488 249.036692 
L 611.8488 253.836692 
L 609.4488 249.036692 
z
" clip-path="url(#pb277f11c21)" style="fill: #62727b; stroke: #62727b; stroke-width: 1.15; stroke-linecap: round"/>
   </g>
   <g id="patch_28">
    <path d="M 655.199598 145.859338 
Q 657.338353 154.448917 655.510135 161.790857 
" clip-path="url(#pb277f11c21)" style="fill: none; stroke: #62727b; stroke-width: 1.15; stroke-linecap: round"/>
    <path d="M 658.99885 157.713006 
L 655.510135 161.790857 
L 654.341083 156.553174 
z
" clip-path="url(#pb277f11c21)" style="fill: #62727b; stroke: #62727b; stroke-width: 1.15; stroke-linecap: round"/>
   </g>
   <g id="text_1">
    <!-- Figure 2. Evidence Reliability Admission Loop -->
    <g style="fill: #263238" transform="translate(21.2616 24.9408) scale(0.13 -0.13)">
     <defs>
      <path id="DejaVuSans-Bold-46" d="M 588 4666 
L 3834 4666 
L 3834 3756 
L 1791 3756 
L 1791 2888 
L 3713 2888 
L 3713 1978 
L 1791 1978 
L 1791 0 
L 588 0 
L 588 4666 
z
" transform="scale(0.015625)"/>
      <path id="DejaVuSans-Bold-69" d="M 538 3500 
L 1656 3500 
L 1656 0 
L 538 0 
L 538 3500 
z
M 538 4863 
L 1656 4863 
L 1656 3950 
L 538 3950 
L 538 4863 
z
" transform="scale(0.015625)"/>
      <path id="DejaVuSans-Bold-67" d="M 2919 594 
Q 2688 288 2409 144 
Q 2131 0 1766 0 
Q 1125 0 706 504 
Q 288 1009 288 1791 
Q 288 2575 706 3076 
Q 1125 3578 1766 3578 
Q 2131 3578 2409 3434 
Q 2688 3291 2919 2981 
L 2919 3500 
L 4044 3500 
L 4044 353 
Q 4044 -491 3511 -936 
Q 2978 -1381 1966 -1381 
Q 1638 -1381 1331 -1331 
Q 1025 -1281 716 -1178 
L 716 -306 
Q 1009 -475 1290 -558 
Q 1572 -641 1856 -641 
Q 2406 -641 2662 -400 
Q 2919 -159 2919 353 
L 2919 594 
z
M 2181 2772 
Q 1834 2772 1640 2515 
Q 1447 2259 1447 1791 
Q 1447 1309 1634 1061 
Q 1822 813 2181 813 
Q 2531 813 2725 1069 
Q 2919 1325 2919 1791 
Q 2919 2259 2725 2515 
Q 2531 2772 2181 2772 
z
" transform="scale(0.015625)"/>
      <path id="DejaVuSans-Bold-75" d="M 500 1363 
L 500 3500 
L 1625 3500 
L 1625 3150 
Q 1625 2866 1622 2436 
Q 1619 2006 1619 1863 
Q 1619 1441 1641 1255 
Q 1663 1069 1716 984 
Q 1784 875 1895 815 
Q 2006 756 2150 756 
Q 2500 756 2700 1025 
Q 2900 1294 2900 1772 
L 2900 3500 
L 4019 3500 
L 4019 0 
L 2900 0 
L 2900 506 
Q 2647 200 2364 54 
Q 2081 -91 1741 -91 
Q 1134 -91 817 281 
Q 500 653 500 1363 
z
" transform="scale(0.015625)"/>
      <path id="DejaVuSans-Bold-72" d="M 3138 2547 
Q 2991 2616 2845 2648 
Q 2700 2681 2553 2681 
Q 2122 2681 1889 2404 
Q 1656 2128 1656 1613 
L 1656 0 
L 538 0 
L 538 3500 
L 1656 3500 
L 1656 2925 
Q 1872 3269 2151 3426 
Q 2431 3584 2822 3584 
Q 2878 3584 2943 3579 
Q 3009 3575 3134 3559 
L 3138 2547 
z
" transform="scale(0.015625)"/>
      <path id="DejaVuSans-Bold-65" d="M 4031 1759 
L 4031 1441 
L 1416 1441 
Q 1456 1047 1700 850 
Q 1944 653 2381 653 
Q 2734 653 3104 758 
Q 3475 863 3866 1075 
L 3866 213 
Q 3469 63 3072 -14 
Q 2675 -91 2278 -91 
Q 1328 -91 801 392 
Q 275 875 275 1747 
Q 275 2603 792 3093 
Q 1309 3584 2216 3584 
Q 3041 3584 3536 3087 
Q 4031 2591 4031 1759 
z
M 2881 2131 
Q 2881 2450 2695 2645 
Q 2509 2841 2209 2841 
Q 1884 2841 1681 2658 
Q 1478 2475 1428 2131 
L 2881 2131 
z
" transform="scale(0.015625)"/>
      <path id="DejaVuSans-Bold-20" transform="scale(0.015625)"/>
      <path id="DejaVuSans-Bold-32" d="M 1844 884 
L 3897 884 
L 3897 0 
L 506 0 
L 506 884 
L 2209 2388 
Q 2438 2594 2547 2791 
Q 2656 2988 2656 3200 
Q 2656 3528 2436 3728 
Q 2216 3928 1850 3928 
Q 1569 3928 1234 3808 
Q 900 3688 519 3450 
L 519 4475 
Q 925 4609 1322 4679 
Q 1719 4750 2100 4750 
Q 2938 4750 3402 4381 
Q 3866 4013 3866 3353 
Q 3866 2972 3669 2642 
Q 3472 2313 2841 1759 
L 1844 884 
z
" transform="scale(0.015625)"/>
      <path id="DejaVuSans-Bold-2e" d="M 653 1209 
L 1778 1209 
L 1778 0 
L 653 0 
L 653 1209 
z
" transform="scale(0.015625)"/>
      <path id="DejaVuSans-Bold-45" d="M 588 4666 
L 3834 4666 
L 3834 3756 
L 1791 3756 
L 1791 2888 
L 3713 2888 
L 3713 1978 
L 1791 1978 
L 1791 909 
L 3903 909 
L 3903 0 
L 588 0 
L 588 4666 
z
" transform="scale(0.015625)"/>
      <path id="DejaVuSans-Bold-76" d="M 97 3500 
L 1216 3500 
L 2088 1081 
L 2956 3500 
L 4078 3500 
L 2700 0 
L 1472 0 
L 97 3500 
z
" transform="scale(0.015625)"/>
      <path id="DejaVuSans-Bold-64" d="M 2919 2988 
L 2919 4863 
L 4044 4863 
L 4044 0 
L 2919 0 
L 2919 506 
Q 2688 197 2409 53 
Q 2131 -91 1766 -91 
Q 1119 -91 703 423 
Q 288 938 288 1747 
Q 288 2556 703 3070 
Q 1119 3584 1766 3584 
Q 2128 3584 2408 3439 
Q 2688 3294 2919 2988 
z
M 2181 722 
Q 2541 722 2730 984 
Q 2919 1247 2919 1747 
Q 2919 2247 2730 2509 
Q 2541 2772 2181 2772 
Q 1825 2772 1636 2509 
Q 1447 2247 1447 1747 
Q 1447 1247 1636 984 
Q 1825 722 2181 722 
z
" transform="scale(0.015625)"/>
      <path id="DejaVuSans-Bold-6e" d="M 4056 2131 
L 4056 0 
L 2931 0 
L 2931 347 
L 2931 1631 
Q 2931 2084 2911 2256 
Q 2891 2428 2841 2509 
Q 2775 2619 2662 2680 
Q 2550 2741 2406 2741 
Q 2056 2741 1856 2470 
Q 1656 2200 1656 1722 
L 1656 0 
L 538 0 
L 538 3500 
L 1656 3500 
L 1656 2988 
Q 1909 3294 2193 3439 
Q 2478 3584 2822 3584 
Q 3428 3584 3742 3212 
Q 4056 2841 4056 2131 
z
" transform="scale(0.015625)"/>
      <path id="DejaVuSans-Bold-63" d="M 3366 3391 
L 3366 2478 
Q 3138 2634 2908 2709 
Q 2678 2784 2431 2784 
Q 1963 2784 1702 2511 
Q 1441 2238 1441 1747 
Q 1441 1256 1702 982 
Q 1963 709 2431 709 
Q 2694 709 2930 787 
Q 3166 866 3366 1019 
L 3366 103 
Q 3103 6 2833 -42 
Q 2563 -91 2291 -91 
Q 1344 -91 809 395 
Q 275 881 275 1747 
Q 275 2613 809 3098 
Q 1344 3584 2291 3584 
Q 2566 3584 2833 3536 
Q 3100 3488 3366 3391 
z
" transform="scale(0.015625)"/>
      <path id="DejaVuSans-Bold-52" d="M 2297 2597 
Q 2675 2597 2839 2737 
Q 3003 2878 3003 3200 
Q 3003 3519 2839 3656 
Q 2675 3794 2297 3794 
L 1791 3794 
L 1791 2597 
L 2297 2597 
z
M 1791 1766 
L 1791 0 
L 588 0 
L 588 4666 
L 2425 4666 
Q 3347 4666 3776 4356 
Q 4206 4047 4206 3378 
Q 4206 2916 3982 2619 
Q 3759 2322 3309 2181 
Q 3556 2125 3751 1926 
Q 3947 1728 4147 1325 
L 4800 0 
L 3519 0 
L 2950 1159 
Q 2778 1509 2601 1637 
Q 2425 1766 2131 1766 
L 1791 1766 
z
" transform="scale(0.015625)"/>
      <path id="DejaVuSans-Bold-6c" d="M 538 4863 
L 1656 4863 
L 1656 0 
L 538 0 
L 538 4863 
z
" transform="scale(0.015625)"/>
      <path id="DejaVuSans-Bold-61" d="M 2106 1575 
Q 1756 1575 1579 1456 
Q 1403 1338 1403 1106 
Q 1403 894 1545 773 
Q 1688 653 1941 653 
Q 2256 653 2472 879 
Q 2688 1106 2688 1447 
L 2688 1575 
L 2106 1575 
z
M 3816 1997 
L 3816 0 
L 2688 0 
L 2688 519 
Q 2463 200 2181 54 
Q 1900 -91 1497 -91 
Q 953 -91 614 226 
Q 275 544 275 1050 
Q 275 1666 698 1953 
Q 1122 2241 2028 2241 
L 2688 2241 
L 2688 2328 
Q 2688 2594 2478 2717 
Q 2269 2841 1825 2841 
Q 1466 2841 1156 2769 
Q 847 2697 581 2553 
L 581 3406 
Q 941 3494 1303 3539 
Q 1666 3584 2028 3584 
Q 2975 3584 3395 3211 
Q 3816 2838 3816 1997 
z
" transform="scale(0.015625)"/>
      <path id="DejaVuSans-Bold-62" d="M 2400 722 
Q 2759 722 2948 984 
Q 3138 1247 3138 1747 
Q 3138 2247 2948 2509 
Q 2759 2772 2400 2772 
Q 2041 2772 1848 2508 
Q 1656 2244 1656 1747 
Q 1656 1250 1848 986 
Q 2041 722 2400 722 
z
M 1656 2988 
Q 1888 3294 2169 3439 
Q 2450 3584 2816 3584 
Q 3463 3584 3878 3070 
Q 4294 2556 4294 1747 
Q 4294 938 3878 423 
Q 3463 -91 2816 -91 
Q 2450 -91 2169 54 
Q 1888 200 1656 506 
L 1656 0 
L 538 0 
L 538 4863 
L 1656 4863 
L 1656 2988 
z
" transform="scale(0.015625)"/>
      <path id="DejaVuSans-Bold-74" d="M 1759 4494 
L 1759 3500 
L 2913 3500 
L 2913 2700 
L 1759 2700 
L 1759 1216 
Q 1759 972 1856 886 
Q 1953 800 2241 800 
L 2816 800 
L 2816 0 
L 1856 0 
Q 1194 0 917 276 
Q 641 553 641 1216 
L 641 2700 
L 84 2700 
L 84 3500 
L 641 3500 
L 641 4494 
L 1759 4494 
z
" transform="scale(0.015625)"/>
      <path id="DejaVuSans-Bold-79" d="M 78 3500 
L 1197 3500 
L 2138 1125 
L 2938 3500 
L 4056 3500 
L 2584 -331 
Q 2363 -916 2067 -1148 
Q 1772 -1381 1288 -1381 
L 641 -1381 
L 641 -647 
L 991 -647 
Q 1275 -647 1404 -556 
Q 1534 -466 1606 -231 
L 1638 -134 
L 78 3500 
z
" transform="scale(0.015625)"/>
      <path id="DejaVuSans-Bold-41" d="M 3419 850 
L 1538 850 
L 1241 0 
L 31 0 
L 1759 4666 
L 3194 4666 
L 4922 0 
L 3713 0 
L 3419 850 
z
M 1838 1716 
L 3116 1716 
L 2478 3572 
L 1838 1716 
z
" transform="scale(0.015625)"/>
      <path id="DejaVuSans-Bold-6d" d="M 3781 2919 
Q 3994 3244 4286 3414 
Q 4578 3584 4928 3584 
Q 5531 3584 5847 3212 
Q 6163 2841 6163 2131 
L 6163 0 
L 5038 0 
L 5038 1825 
Q 5041 1866 5042 1909 
Q 5044 1953 5044 2034 
Q 5044 2406 4934 2573 
Q 4825 2741 4581 2741 
Q 4263 2741 4089 2478 
Q 3916 2216 3909 1719 
L 3909 0 
L 2784 0 
L 2784 1825 
Q 2784 2406 2684 2573 
Q 2584 2741 2328 2741 
Q 2006 2741 1831 2477 
Q 1656 2213 1656 1722 
L 1656 0 
L 531 0 
L 531 3500 
L 1656 3500 
L 1656 2988 
Q 1863 3284 2130 3434 
Q 2397 3584 2719 3584 
Q 3081 3584 3359 3409 
Q 3638 3234 3781 2919 
z
" transform="scale(0.015625)"/>
      <path id="DejaVuSans-Bold-73" d="M 3272 3391 
L 3272 2541 
Q 2913 2691 2578 2766 
Q 2244 2841 1947 2841 
Q 1628 2841 1473 2761 
Q 1319 2681 1319 2516 
Q 1319 2381 1436 2309 
Q 1553 2238 1856 2203 
L 2053 2175 
Q 2913 2066 3209 1816 
Q 3506 1566 3506 1031 
Q 3506 472 3093 190 
Q 2681 -91 1863 -91 
Q 1516 -91 1145 -36 
Q 775 19 384 128 
L 384 978 
Q 719 816 1070 734 
Q 1422 653 1784 653 
Q 2113 653 2278 743 
Q 2444 834 2444 1013 
Q 2444 1163 2330 1236 
Q 2216 1309 1875 1350 
L 1678 1375 
Q 931 1469 631 1722 
Q 331 1975 331 2491 
Q 331 3047 712 3315 
Q 1094 3584 1881 3584 
Q 2191 3584 2531 3537 
Q 2872 3491 3272 3391 
z
" transform="scale(0.015625)"/>
      <path id="DejaVuSans-Bold-6f" d="M 2203 2784 
Q 1831 2784 1636 2517 
Q 1441 2250 1441 1747 
Q 1441 1244 1636 976 
Q 1831 709 2203 709 
Q 2569 709 2762 976 
Q 2956 1244 2956 1747 
Q 2956 2250 2762 2517 
Q 2569 2784 2203 2784 
z
M 2203 3584 
Q 3106 3584 3614 3096 
Q 4122 2609 4122 1747 
Q 4122 884 3614 396 
Q 3106 -91 2203 -91 
Q 1297 -91 786 396 
Q 275 884 275 1747 
Q 275 2609 786 3096 
Q 1297 3584 2203 3584 
z
" transform="scale(0.015625)"/>
      <path id="DejaVuSans-Bold-4c" d="M 588 4666 
L 1791 4666 
L 1791 909 
L 3903 909 
L 3903 0 
L 588 0 
L 588 4666 
z
" transform="scale(0.015625)"/>
      <path id="DejaVuSans-Bold-70" d="M 1656 506 
L 1656 -1331 
L 538 -1331 
L 538 3500 
L 1656 3500 
L 1656 2988 
Q 1888 3294 2169 3439 
Q 2450 3584 2816 3584 
Q 3463 3584 3878 3070 
Q 4294 2556 4294 1747 
Q 4294 938 3878 423 
Q 3463 -91 2816 -91 
Q 2450 -91 2169 54 
Q 1888 200 1656 506 
z
M 2400 2772 
Q 2041 2772 1848 2508 
Q 1656 2244 1656 1747 
Q 1656 1250 1848 986 
Q 2041 722 2400 722 
Q 2759 722 2948 984 
Q 3138 1247 3138 1747 
Q 3138 2247 2948 2509 
Q 2759 2772 2400 2772 
z
" transform="scale(0.015625)"/>
     </defs>
     <use xlink:href="#DejaVuSans-Bold-46"/>
     <use xlink:href="#DejaVuSans-Bold-69" transform="translate(68.310547 0)"/>
     <use xlink:href="#DejaVuSans-Bold-67" transform="translate(102.587891 0)"/>
     <use xlink:href="#DejaVuSans-Bold-75" transform="translate(174.169922 0)"/>
     <use xlink:href="#DejaVuSans-Bold-72" transform="translate(245.361328 0)"/>
     <use xlink:href="#DejaVuSans-Bold-65" transform="translate(294.677734 0)"/>
     <use xlink:href="#DejaVuSans-Bold-20" transform="translate(362.5 0)"/>
     <use xlink:href="#DejaVuSans-Bold-32" transform="translate(397.314453 0)"/>
     <use xlink:href="#DejaVuSans-Bold-2e" transform="translate(466.894531 0)"/>
     <use xlink:href="#DejaVuSans-Bold-20" transform="translate(504.882812 0)"/>
     <use xlink:href="#DejaVuSans-Bold-45" transform="translate(539.697266 0)"/>
     <use xlink:href="#DejaVuSans-Bold-76" transform="translate(608.007812 0)"/>
     <use xlink:href="#DejaVuSans-Bold-69" transform="translate(673.193359 0)"/>
     <use xlink:href="#DejaVuSans-Bold-64" transform="translate(707.470703 0)"/>
     <use xlink:href="#DejaVuSans-Bold-65" transform="translate(779.052734 0)"/>
     <use xlink:href="#DejaVuSans-Bold-6e" transform="translate(846.875 0)"/>
     <use xlink:href="#DejaVuSans-Bold-63" transform="translate(918.066406 0)"/>
     <use xlink:href="#DejaVuSans-Bold-65" transform="translate(977.34375 0)"/>
     <use xlink:href="#DejaVuSans-Bold-20" transform="translate(1045.166016 0)"/>
     <use xlink:href="#DejaVuSans-Bold-52" transform="translate(1079.980469 0)"/>
     <use xlink:href="#DejaVuSans-Bold-65" transform="translate(1156.982422 0)"/>
     <use xlink:href="#DejaVuSans-Bold-6c" transform="translate(1224.804688 0)"/>
     <use xlink:href="#DejaVuSans-Bold-69" transform="translate(1259.082031 0)"/>
     <use xlink:href="#DejaVuSans-Bold-61" transform="translate(1293.359375 0)"/>
     <use xlink:href="#DejaVuSans-Bold-62" transform="translate(1360.839844 0)"/>
     <use xlink:href="#DejaVuSans-Bold-69" transform="translate(1432.421875 0)"/>
     <use xlink:href="#DejaVuSans-Bold-6c" transform="translate(1466.699219 0)"/>
     <use xlink:href="#DejaVuSans-Bold-69" transform="translate(1500.976562 0)"/>
     <use xlink:href="#DejaVuSans-Bold-74" transform="translate(1535.253906 0)"/>
     <use xlink:href="#DejaVuSans-Bold-79" transform="translate(1583.056641 0)"/>
     <use xlink:href="#DejaVuSans-Bold-20" transform="translate(1648.242188 0)"/>
     <use xlink:href="#DejaVuSans-Bold-41" transform="translate(1683.056641 0)"/>
     <use xlink:href="#DejaVuSans-Bold-64" transform="translate(1760.449219 0)"/>
     <use xlink:href="#DejaVuSans-Bold-6d" transform="translate(1832.03125 0)"/>
     <use xlink:href="#DejaVuSans-Bold-69" transform="translate(1936.230469 0)"/>
     <use xlink:href="#DejaVuSans-Bold-73" transform="translate(1970.507812 0)"/>
     <use xlink:href="#DejaVuSans-Bold-73" transform="translate(2030.029297 0)"/>
     <use xlink:href="#DejaVuSans-Bold-69" transform="translate(2089.550781 0)"/>
     <use xlink:href="#DejaVuSans-Bold-6f" transform="translate(2123.828125 0)"/>
     <use xlink:href="#DejaVuSans-Bold-6e" transform="translate(2192.529297 0)"/>
     <use xlink:href="#DejaVuSans-Bold-20" transform="translate(2263.720703 0)"/>
     <use xlink:href="#DejaVuSans-Bold-4c" transform="translate(2298.535156 0)"/>
     <use xlink:href="#DejaVuSans-Bold-6f" transform="translate(2362.255859 0)"/>
     <use xlink:href="#DejaVuSans-Bold-6f" transform="translate(2430.957031 0)"/>
     <use xlink:href="#DejaVuSans-Bold-70" transform="translate(2499.658203 0)"/>
    </g>
   </g>
   <g id="text_2">
    <!-- Candidate -->
    <g style="fill: #263238" transform="translate(62.286778 185.475426) scale(0.09 -0.09)">
     <defs>
      <path id="DejaVuSans-Bold-43" d="M 4288 256 
Q 3956 84 3597 -3 
Q 3238 -91 2847 -91 
Q 1681 -91 1000 561 
Q 319 1213 319 2328 
Q 319 3447 1000 4098 
Q 1681 4750 2847 4750 
Q 3238 4750 3597 4662 
Q 3956 4575 4288 4403 
L 4288 3438 
Q 3953 3666 3628 3772 
Q 3303 3878 2944 3878 
Q 2300 3878 1931 3465 
Q 1563 3053 1563 2328 
Q 1563 1606 1931 1193 
Q 2300 781 2944 781 
Q 3303 781 3628 887 
Q 3953 994 4288 1222 
L 4288 256 
z
" transform="scale(0.015625)"/>
     </defs>
     <use xlink:href="#DejaVuSans-Bold-43"/>
     <use xlink:href="#DejaVuSans-Bold-61" transform="translate(73.388672 0)"/>
     <use xlink:href="#DejaVuSans-Bold-6e" transform="translate(140.869141 0)"/>
     <use xlink:href="#DejaVuSans-Bold-64" transform="translate(212.060547 0)"/>
     <use xlink:href="#DejaVuSans-Bold-69" transform="translate(283.642578 0)"/>
     <use xlink:href="#DejaVuSans-Bold-64" transform="translate(317.919922 0)"/>
     <use xlink:href="#DejaVuSans-Bold-61" transform="translate(389.501953 0)"/>
     <use xlink:href="#DejaVuSans-Bold-74" transform="translate(456.982422 0)"/>
     <use xlink:href="#DejaVuSans-Bold-65" transform="translate(504.785156 0)"/>
    </g>
    <!-- m_k -->
    <g style="fill: #263238" transform="translate(78.122559 195.553457) scale(0.09 -0.09)">
     <defs>
      <path id="DejaVuSans-Bold-5f" d="M 3200 -916 
L 3200 -1509 
L 0 -1509 
L 0 -916 
L 3200 -916 
z
" transform="scale(0.015625)"/>
      <path id="DejaVuSans-Bold-6b" d="M 538 4863 
L 1656 4863 
L 1656 2216 
L 2944 3500 
L 4244 3500 
L 2534 1894 
L 4378 0 
L 3022 0 
L 1656 1459 
L 1656 0 
L 538 0 
L 538 4863 
z
" transform="scale(0.015625)"/>
     </defs>
     <use xlink:href="#DejaVuSans-Bold-6d"/>
     <use xlink:href="#DejaVuSans-Bold-5f" transform="translate(104.199219 0)"/>
     <use xlink:href="#DejaVuSans-Bold-6b" transform="translate(154.199219 0)"/>
    </g>
   </g>
   <g id="text_3">
    <!-- Validation -->
    <g style="fill: #263238" transform="translate(228.775569 77.968645) scale(0.085 -0.085)">
     <defs>
      <path id="DejaVuSans-56" d="M 1831 0 
L 50 4666 
L 709 4666 
L 2188 738 
L 3669 4666 
L 4325 4666 
L 2547 0 
L 1831 0 
z
" transform="scale(0.015625)"/>
      <path id="DejaVuSans-61" d="M 2194 1759 
Q 1497 1759 1228 1600 
Q 959 1441 959 1056 
Q 959 750 1161 570 
Q 1363 391 1709 391 
Q 2188 391 2477 730 
Q 2766 1069 2766 1631 
L 2766 1759 
L 2194 1759 
z
M 3341 1997 
L 3341 0 
L 2766 0 
L 2766 531 
Q 2569 213 2275 61 
Q 1981 -91 1556 -91 
Q 1019 -91 701 211 
Q 384 513 384 1019 
Q 384 1609 779 1909 
Q 1175 2209 1959 2209 
L 2766 2209 
L 2766 2266 
Q 2766 2663 2505 2880 
Q 2244 3097 1772 3097 
Q 1472 3097 1187 3025 
Q 903 2953 641 2809 
L 641 3341 
Q 956 3463 1253 3523 
Q 1550 3584 1831 3584 
Q 2591 3584 2966 3190 
Q 3341 2797 3341 1997 
z
" transform="scale(0.015625)"/>
      <path id="DejaVuSans-6c" d="M 603 4863 
L 1178 4863 
L 1178 0 
L 603 0 
L 603 4863 
z
" transform="scale(0.015625)"/>
      <path id="DejaVuSans-69" d="M 603 3500 
L 1178 3500 
L 1178 0 
L 603 0 
L 603 3500 
z
M 603 4863 
L 1178 4863 
L 1178 4134 
L 603 4134 
L 603 4863 
z
" transform="scale(0.015625)"/>
      <path id="DejaVuSans-64" d="M 2906 2969 
L 2906 4863 
L 3481 4863 
L 3481 0 
L 2906 0 
L 2906 525 
Q 2725 213 2448 61 
Q 2172 -91 1784 -91 
Q 1150 -91 751 415 
Q 353 922 353 1747 
Q 353 2572 751 3078 
Q 1150 3584 1784 3584 
Q 2172 3584 2448 3432 
Q 2725 3281 2906 2969 
z
M 947 1747 
Q 947 1113 1208 752 
Q 1469 391 1925 391 
Q 2381 391 2643 752 
Q 2906 1113 2906 1747 
Q 2906 2381 2643 2742 
Q 2381 3103 1925 3103 
Q 1469 3103 1208 2742 
Q 947 2381 947 1747 
z
" transform="scale(0.015625)"/>
      <path id="DejaVuSans-74" d="M 1172 4494 
L 1172 3500 
L 2356 3500 
L 2356 3053 
L 1172 3053 
L 1172 1153 
Q 1172 725 1289 603 
Q 1406 481 1766 481 
L 2356 481 
L 2356 0 
L 1766 0 
Q 1100 0 847 248 
Q 594 497 594 1153 
L 594 3053 
L 172 3053 
L 172 3500 
L 594 3500 
L 594 4494 
L 1172 4494 
z
" transform="scale(0.015625)"/>
      <path id="DejaVuSans-6f" d="M 1959 3097 
Q 1497 3097 1228 2736 
Q 959 2375 959 1747 
Q 959 1119 1226 758 
Q 1494 397 1959 397 
Q 2419 397 2687 759 
Q 2956 1122 2956 1747 
Q 2956 2369 2687 2733 
Q 2419 3097 1959 3097 
z
M 1959 3584 
Q 2709 3584 3137 3096 
Q 3566 2609 3566 1747 
Q 3566 888 3137 398 
Q 2709 -91 1959 -91 
Q 1206 -91 779 398 
Q 353 888 353 1747 
Q 353 2609 779 3096 
Q 1206 3584 1959 3584 
z
" transform="scale(0.015625)"/>
      <path id="DejaVuSans-6e" d="M 3513 2113 
L 3513 0 
L 2938 0 
L 2938 2094 
Q 2938 2591 2744 2837 
Q 2550 3084 2163 3084 
Q 1697 3084 1428 2787 
Q 1159 2491 1159 1978 
L 1159 0 
L 581 0 
L 581 3500 
L 1159 3500 
L 1159 2956 
Q 1366 3272 1645 3428 
Q 1925 3584 2291 3584 
Q 2894 3584 3203 3211 
Q 3513 2838 3513 2113 
z
" transform="scale(0.015625)"/>
     </defs>
     <use xlink:href="#DejaVuSans-56"/>
     <use xlink:href="#DejaVuSans-61" transform="translate(60.658203 0)"/>
     <use xlink:href="#DejaVuSans-6c" transform="translate(121.9375 0)"/>
     <use xlink:href="#DejaVuSans-69" transform="translate(149.720703 0)"/>
     <use xlink:href="#DejaVuSans-64" transform="translate(177.503906 0)"/>
     <use xlink:href="#DejaVuSans-61" transform="translate(240.980469 0)"/>
     <use xlink:href="#DejaVuSans-74" transform="translate(302.259766 0)"/>
     <use xlink:href="#DejaVuSans-69" transform="translate(341.46875 0)"/>
     <use xlink:href="#DejaVuSans-6f" transform="translate(369.251953 0)"/>
     <use xlink:href="#DejaVuSans-6e" transform="translate(430.433594 0)"/>
    </g>
    <!-- benefit -->
    <g style="fill: #263238" transform="translate(234.797952 87.486786) scale(0.085 -0.085)">
     <defs>
      <path id="DejaVuSans-62" d="M 3116 1747 
Q 3116 2381 2855 2742 
Q 2594 3103 2138 3103 
Q 1681 3103 1420 2742 
Q 1159 2381 1159 1747 
Q 1159 1113 1420 752 
Q 1681 391 2138 391 
Q 2594 391 2855 752 
Q 3116 1113 3116 1747 
z
M 1159 2969 
Q 1341 3281 1617 3432 
Q 1894 3584 2278 3584 
Q 2916 3584 3314 3078 
Q 3713 2572 3713 1747 
Q 3713 922 3314 415 
Q 2916 -91 2278 -91 
Q 1894 -91 1617 61 
Q 1341 213 1159 525 
L 1159 0 
L 581 0 
L 581 4863 
L 1159 4863 
L 1159 2969 
z
" transform="scale(0.015625)"/>
      <path id="DejaVuSans-65" d="M 3597 1894 
L 3597 1613 
L 953 1613 
Q 991 1019 1311 708 
Q 1631 397 2203 397 
Q 2534 397 2845 478 
Q 3156 559 3463 722 
L 3463 178 
Q 3153 47 2828 -22 
Q 2503 -91 2169 -91 
Q 1331 -91 842 396 
Q 353 884 353 1716 
Q 353 2575 817 3079 
Q 1281 3584 2069 3584 
Q 2775 3584 3186 3129 
Q 3597 2675 3597 1894 
z
M 3022 2063 
Q 3016 2534 2758 2815 
Q 2500 3097 2075 3097 
Q 1594 3097 1305 2825 
Q 1016 2553 972 2059 
L 3022 2063 
z
" transform="scale(0.015625)"/>
      <path id="DejaVuSans-66" d="M 2375 4863 
L 2375 4384 
L 1825 4384 
Q 1516 4384 1395 4259 
Q 1275 4134 1275 3809 
L 1275 3500 
L 2222 3500 
L 2222 3053 
L 1275 3053 
L 1275 0 
L 697 0 
L 697 3053 
L 147 3053 
L 147 3500 
L 697 3500 
L 697 3744 
Q 697 4328 969 4595 
Q 1241 4863 1831 4863 
L 2375 4863 
z
" transform="scale(0.015625)"/>
     </defs>
     <use xlink:href="#DejaVuSans-62"/>
     <use xlink:href="#DejaVuSans-65" transform="translate(63.476562 0)"/>
     <use xlink:href="#DejaVuSans-6e" transform="translate(125 0)"/>
     <use xlink:href="#DejaVuSans-65" transform="translate(188.378906 0)"/>
     <use xlink:href="#DejaVuSans-66" transform="translate(249.902344 0)"/>
     <use xlink:href="#DejaVuSans-69" transform="translate(285.107422 0)"/>
     <use xlink:href="#DejaVuSans-74" transform="translate(312.890625 0)"/>
    </g>
    <!-- Delta M_k -->
    <g style="fill: #263238" transform="translate(228.820061 97.004926) scale(0.085 -0.085)">
     <defs>
      <path id="DejaVuSans-44" d="M 1259 4147 
L 1259 519 
L 2022 519 
Q 2988 519 3436 956 
Q 3884 1394 3884 2338 
Q 3884 3275 3436 3711 
Q 2988 4147 2022 4147 
L 1259 4147 
z
M 628 4666 
L 1925 4666 
Q 3281 4666 3915 4102 
Q 4550 3538 4550 2338 
Q 4550 1131 3912 565 
Q 3275 0 1925 0 
L 628 0 
L 628 4666 
z
" transform="scale(0.015625)"/>
      <path id="DejaVuSans-20" transform="scale(0.015625)"/>
      <path id="DejaVuSans-4d" d="M 628 4666 
L 1569 4666 
L 2759 1491 
L 3956 4666 
L 4897 4666 
L 4897 0 
L 4281 0 
L 4281 4097 
L 3078 897 
L 2444 897 
L 1241 4097 
L 1241 0 
L 628 0 
L 628 4666 
z
" transform="scale(0.015625)"/>
      <path id="DejaVuSans-5f" d="M 3263 -1063 
L 3263 -1509 
L -63 -1509 
L -63 -1063 
L 3263 -1063 
z
" transform="scale(0.015625)"/>
      <path id="DejaVuSans-6b" d="M 581 4863 
L 1159 4863 
L 1159 1991 
L 2875 3500 
L 3609 3500 
L 1753 1863 
L 3688 0 
L 2938 0 
L 1159 1709 
L 1159 0 
L 581 0 
L 581 4863 
z
" transform="scale(0.015625)"/>
     </defs>
     <use xlink:href="#DejaVuSans-44"/>
     <use xlink:href="#DejaVuSans-65" transform="translate(77.001953 0)"/>
     <use xlink:href="#DejaVuSans-6c" transform="translate(138.525391 0)"/>
     <use xlink:href="#DejaVuSans-74" transform="translate(166.308594 0)"/>
     <use xlink:href="#DejaVuSans-61" transform="translate(205.517578 0)"/>
     <use xlink:href="#DejaVuSans-20" transform="translate(266.796875 0)"/>
     <use xlink:href="#DejaVuSans-4d" transform="translate(298.583984 0)"/>
     <use xlink:href="#DejaVuSans-5f" transform="translate(384.863281 0)"/>
     <use xlink:href="#DejaVuSans-6b" transform="translate(434.863281 0)"/>
    </g>
   </g>
   <g id="text_4">
    <!-- Low-tail -->
    <g style="fill: #263238" transform="translate(233.227444 131.191045) scale(0.085 -0.085)">
     <defs>
      <path id="DejaVuSans-4c" d="M 628 4666 
L 1259 4666 
L 1259 531 
L 3531 531 
L 3531 0 
L 628 0 
L 628 4666 
z
" transform="scale(0.015625)"/>
      <path id="DejaVuSans-77" d="M 269 3500 
L 844 3500 
L 1563 769 
L 2278 3500 
L 2956 3500 
L 3675 769 
L 4391 3500 
L 4966 3500 
L 4050 0 
L 3372 0 
L 2619 2869 
L 1863 0 
L 1184 0 
L 269 3500 
z
" transform="scale(0.015625)"/>
      <path id="DejaVuSans-2d" d="M 313 2009 
L 1997 2009 
L 1997 1497 
L 313 1497 
L 313 2009 
z
" transform="scale(0.015625)"/>
     </defs>
     <use xlink:href="#DejaVuSans-4c"/>
     <use xlink:href="#DejaVuSans-6f" transform="translate(53.962891 0)"/>
     <use xlink:href="#DejaVuSans-77" transform="translate(115.144531 0)"/>
     <use xlink:href="#DejaVuSans-2d" transform="translate(196.931641 0)"/>
     <use xlink:href="#DejaVuSans-74" transform="translate(233.015625 0)"/>
     <use xlink:href="#DejaVuSans-61" transform="translate(272.224609 0)"/>
     <use xlink:href="#DejaVuSans-69" transform="translate(333.503906 0)"/>
     <use xlink:href="#DejaVuSans-6c" transform="translate(361.287109 0)"/>
    </g>
    <!-- benefit -->
    <g style="fill: #263238" transform="translate(234.797952 140.709186) scale(0.085 -0.085)">
     <use xlink:href="#DejaVuSans-62"/>
     <use xlink:href="#DejaVuSans-65" transform="translate(63.476562 0)"/>
     <use xlink:href="#DejaVuSans-6e" transform="translate(125 0)"/>
     <use xlink:href="#DejaVuSans-65" transform="translate(188.378906 0)"/>
     <use xlink:href="#DejaVuSans-66" transform="translate(249.902344 0)"/>
     <use xlink:href="#DejaVuSans-69" transform="translate(285.107422 0)"/>
     <use xlink:href="#DejaVuSans-74" transform="translate(312.890625 0)"/>
    </g>
    <!-- Q_alpha -->
    <g style="fill: #263238" transform="translate(232.51092 150.227326) scale(0.085 -0.085)">
     <defs>
      <path id="DejaVuSans-51" d="M 2522 4238 
Q 1834 4238 1429 3725 
Q 1025 3213 1025 2328 
Q 1025 1447 1429 934 
Q 1834 422 2522 422 
Q 3209 422 3611 934 
Q 4013 1447 4013 2328 
Q 4013 3213 3611 3725 
Q 3209 4238 2522 4238 
z
M 3406 84 
L 4238 -825 
L 3475 -825 
L 2784 -78 
Q 2681 -84 2626 -87 
Q 2572 -91 2522 -91 
Q 1538 -91 948 567 
Q 359 1225 359 2328 
Q 359 3434 948 4092 
Q 1538 4750 2522 4750 
Q 3503 4750 4090 4092 
Q 4678 3434 4678 2328 
Q 4678 1516 4351 937 
Q 4025 359 3406 84 
z
" transform="scale(0.015625)"/>
      <path id="DejaVuSans-70" d="M 1159 525 
L 1159 -1331 
L 581 -1331 
L 581 3500 
L 1159 3500 
L 1159 2969 
Q 1341 3281 1617 3432 
Q 1894 3584 2278 3584 
Q 2916 3584 3314 3078 
Q 3713 2572 3713 1747 
Q 3713 922 3314 415 
Q 2916 -91 2278 -91 
Q 1894 -91 1617 61 
Q 1341 213 1159 525 
z
M 3116 1747 
Q 3116 2381 2855 2742 
Q 2594 3103 2138 3103 
Q 1681 3103 1420 2742 
Q 1159 2381 1159 1747 
Q 1159 1113 1420 752 
Q 1681 391 2138 391 
Q 2594 391 2855 752 
Q 3116 1113 3116 1747 
z
" transform="scale(0.015625)"/>
      <path id="DejaVuSans-68" d="M 3513 2113 
L 3513 0 
L 2938 0 
L 2938 2094 
Q 2938 2591 2744 2837 
Q 2550 3084 2163 3084 
Q 1697 3084 1428 2787 
Q 1159 2491 1159 1978 
L 1159 0 
L 581 0 
L 581 4863 
L 1159 4863 
L 1159 2956 
Q 1366 3272 1645 3428 
Q 1925 3584 2291 3584 
Q 2894 3584 3203 3211 
Q 3513 2838 3513 2113 
z
" transform="scale(0.015625)"/>
     </defs>
     <use xlink:href="#DejaVuSans-51"/>
     <use xlink:href="#DejaVuSans-5f" transform="translate(78.710938 0)"/>
     <use xlink:href="#DejaVuSans-61" transform="translate(128.710938 0)"/>
     <use xlink:href="#DejaVuSans-6c" transform="translate(189.990234 0)"/>
     <use xlink:href="#DejaVuSans-70" transform="translate(217.773438 0)"/>
     <use xlink:href="#DejaVuSans-68" transform="translate(281.25 0)"/>
     <use xlink:href="#DejaVuSans-61" transform="translate(344.628906 0)"/>
    </g>
   </g>
   <g id="text_5">
    <!-- Counterfactu -->
    <g style="fill: #263238" transform="translate(221.982209 179.654375) scale(0.085 -0.085)">
     <defs>
      <path id="DejaVuSans-43" d="M 4122 4306 
L 4122 3641 
Q 3803 3938 3442 4084 
Q 3081 4231 2675 4231 
Q 1875 4231 1450 3742 
Q 1025 3253 1025 2328 
Q 1025 1406 1450 917 
Q 1875 428 2675 428 
Q 3081 428 3442 575 
Q 3803 722 4122 1019 
L 4122 359 
Q 3791 134 3420 21 
Q 3050 -91 2638 -91 
Q 1578 -91 968 557 
Q 359 1206 359 2328 
Q 359 3453 968 4101 
Q 1578 4750 2638 4750 
Q 3056 4750 3426 4639 
Q 3797 4528 4122 4306 
z
" transform="scale(0.015625)"/>
      <path id="DejaVuSans-75" d="M 544 1381 
L 544 3500 
L 1119 3500 
L 1119 1403 
Q 1119 906 1312 657 
Q 1506 409 1894 409 
Q 2359 409 2629 706 
Q 2900 1003 2900 1516 
L 2900 3500 
L 3475 3500 
L 3475 0 
L 2900 0 
L 2900 538 
Q 2691 219 2414 64 
Q 2138 -91 1772 -91 
Q 1169 -91 856 284 
Q 544 659 544 1381 
z
M 1991 3584 
L 1991 3584 
z
" transform="scale(0.015625)"/>
      <path id="DejaVuSans-72" d="M 2631 2963 
Q 2534 3019 2420 3045 
Q 2306 3072 2169 3072 
Q 1681 3072 1420 2755 
Q 1159 2438 1159 1844 
L 1159 0 
L 581 0 
L 581 3500 
L 1159 3500 
L 1159 2956 
Q 1341 3275 1631 3429 
Q 1922 3584 2338 3584 
Q 2397 3584 2469 3576 
Q 2541 3569 2628 3553 
L 2631 2963 
z
" transform="scale(0.015625)"/>
      <path id="DejaVuSans-63" d="M 3122 3366 
L 3122 2828 
Q 2878 2963 2633 3030 
Q 2388 3097 2138 3097 
Q 1578 3097 1268 2742 
Q 959 2388 959 1747 
Q 959 1106 1268 751 
Q 1578 397 2138 397 
Q 2388 397 2633 464 
Q 2878 531 3122 666 
L 3122 134 
Q 2881 22 2623 -34 
Q 2366 -91 2075 -91 
Q 1284 -91 818 406 
Q 353 903 353 1747 
Q 353 2603 823 3093 
Q 1294 3584 2113 3584 
Q 2378 3584 2631 3529 
Q 2884 3475 3122 3366 
z
" transform="scale(0.015625)"/>
     </defs>
     <use xlink:href="#DejaVuSans-43"/>
     <use xlink:href="#DejaVuSans-6f" transform="translate(69.824219 0)"/>
     <use xlink:href="#DejaVuSans-75" transform="translate(131.005859 0)"/>
     <use xlink:href="#DejaVuSans-6e" transform="translate(194.384766 0)"/>
     <use xlink:href="#DejaVuSans-74" transform="translate(257.763672 0)"/>
     <use xlink:href="#DejaVuSans-65" transform="translate(296.972656 0)"/>
     <use xlink:href="#DejaVuSans-72" transform="translate(358.496094 0)"/>
     <use xlink:href="#DejaVuSans-66" transform="translate(399.609375 0)"/>
     <use xlink:href="#DejaVuSans-61" transform="translate(434.814453 0)"/>
     <use xlink:href="#DejaVuSans-63" transform="translate(496.09375 0)"/>
     <use xlink:href="#DejaVuSans-74" transform="translate(551.074219 0)"/>
     <use xlink:href="#DejaVuSans-75" transform="translate(590.283203 0)"/>
    </g>
    <!-- al -->
    <g style="fill: #263238" transform="translate(245.977444 189.172515) scale(0.085 -0.085)">
     <use xlink:href="#DejaVuSans-61"/>
     <use xlink:href="#DejaVuSans-6c" transform="translate(61.279297 0)"/>
    </g>
    <!-- sensitivity -->
    <g style="fill: #263238" transform="translate(228.120803 198.690656) scale(0.085 -0.085)">
     <defs>
      <path id="DejaVuSans-73" d="M 2834 3397 
L 2834 2853 
Q 2591 2978 2328 3040 
Q 2066 3103 1784 3103 
Q 1356 3103 1142 2972 
Q 928 2841 928 2578 
Q 928 2378 1081 2264 
Q 1234 2150 1697 2047 
L 1894 2003 
Q 2506 1872 2764 1633 
Q 3022 1394 3022 966 
Q 3022 478 2636 193 
Q 2250 -91 1575 -91 
Q 1294 -91 989 -36 
Q 684 19 347 128 
L 347 722 
Q 666 556 975 473 
Q 1284 391 1588 391 
Q 1994 391 2212 530 
Q 2431 669 2431 922 
Q 2431 1156 2273 1281 
Q 2116 1406 1581 1522 
L 1381 1569 
Q 847 1681 609 1914 
Q 372 2147 372 2553 
Q 372 3047 722 3315 
Q 1072 3584 1716 3584 
Q 2034 3584 2315 3537 
Q 2597 3491 2834 3397 
z
" transform="scale(0.015625)"/>
      <path id="DejaVuSans-76" d="M 191 3500 
L 800 3500 
L 1894 563 
L 2988 3500 
L 3597 3500 
L 2284 0 
L 1503 0 
L 191 3500 
z
" transform="scale(0.015625)"/>
      <path id="DejaVuSans-79" d="M 2059 -325 
Q 1816 -950 1584 -1140 
Q 1353 -1331 966 -1331 
L 506 -1331 
L 506 -850 
L 844 -850 
Q 1081 -850 1212 -737 
Q 1344 -625 1503 -206 
L 1606 56 
L 191 3500 
L 800 3500 
L 1894 763 
L 2988 3500 
L 3597 3500 
L 2059 -325 
z
" transform="scale(0.015625)"/>
     </defs>
     <use xlink:href="#DejaVuSans-73"/>
     <use xlink:href="#DejaVuSans-65" transform="translate(52.099609 0)"/>
     <use xlink:href="#DejaVuSans-6e" transform="translate(113.623047 0)"/>
     <use xlink:href="#DejaVuSans-73" transform="translate(177.001953 0)"/>
     <use xlink:href="#DejaVuSans-69" transform="translate(229.101562 0)"/>
     <use xlink:href="#DejaVuSans-74" transform="translate(256.884766 0)"/>
     <use xlink:href="#DejaVuSans-69" transform="translate(296.09375 0)"/>
     <use xlink:href="#DejaVuSans-76" transform="translate(323.876953 0)"/>
     <use xlink:href="#DejaVuSans-69" transform="translate(383.056641 0)"/>
     <use xlink:href="#DejaVuSans-74" transform="translate(410.839844 0)"/>
     <use xlink:href="#DejaVuSans-79" transform="translate(450.048828 0)"/>
    </g>
    <!-- CF_k -->
    <g style="fill: #263238" transform="translate(239.764475 208.208797) scale(0.085 -0.085)">
     <defs>
      <path id="DejaVuSans-46" d="M 628 4666 
L 3309 4666 
L 3309 4134 
L 1259 4134 
L 1259 2759 
L 3109 2759 
L 3109 2228 
L 1259 2228 
L 1259 0 
L 628 0 
L 628 4666 
z
" transform="scale(0.015625)"/>
     </defs>
     <use xlink:href="#DejaVuSans-43"/>
     <use xlink:href="#DejaVuSans-46" transform="translate(69.824219 0)"/>
     <use xlink:href="#DejaVuSans-5f" transform="translate(127.34375 0)"/>
     <use xlink:href="#DejaVuSans-6b" transform="translate(177.34375 0)"/>
    </g>
   </g>
   <g id="text_6">
    <!-- Invariance / -->
    <g style="fill: #263238" transform="translate(224.735413 237.635845) scale(0.085 -0.085)">
     <defs>
      <path id="DejaVuSans-49" d="M 628 4666 
L 1259 4666 
L 1259 0 
L 628 0 
L 628 4666 
z
" transform="scale(0.015625)"/>
      <path id="DejaVuSans-2f" d="M 1625 4666 
L 2156 4666 
L 531 -594 
L 0 -594 
L 1625 4666 
z
" transform="scale(0.015625)"/>
     </defs>
     <use xlink:href="#DejaVuSans-49"/>
     <use xlink:href="#DejaVuSans-6e" transform="translate(29.492188 0)"/>
     <use xlink:href="#DejaVuSans-76" transform="translate(92.871094 0)"/>
     <use xlink:href="#DejaVuSans-61" transform="translate(152.050781 0)"/>
     <use xlink:href="#DejaVuSans-72" transform="translate(213.330078 0)"/>
     <use xlink:href="#DejaVuSans-69" transform="translate(254.443359 0)"/>
     <use xlink:href="#DejaVuSans-61" transform="translate(282.226562 0)"/>
     <use xlink:href="#DejaVuSans-6e" transform="translate(343.505859 0)"/>
     <use xlink:href="#DejaVuSans-63" transform="translate(406.884766 0)"/>
     <use xlink:href="#DejaVuSans-65" transform="translate(461.865234 0)"/>
     <use xlink:href="#DejaVuSans-20" transform="translate(523.388672 0)"/>
     <use xlink:href="#DejaVuSans-2f" transform="translate(555.175781 0)"/>
    </g>
    <!-- stability -->
    <g style="fill: #263238" transform="translate(232.856233 247.153986) scale(0.085 -0.085)">
     <use xlink:href="#DejaVuSans-73"/>
     <use xlink:href="#DejaVuSans-74" transform="translate(52.099609 0)"/>
     <use xlink:href="#DejaVuSans-61" transform="translate(91.308594 0)"/>
     <use xlink:href="#DejaVuSans-62" transform="translate(152.587891 0)"/>
     <use xlink:href="#DejaVuSans-69" transform="translate(216.064453 0)"/>
     <use xlink:href="#DejaVuSans-6c" transform="translate(243.847656 0)"/>
     <use xlink:href="#DejaVuSans-69" transform="translate(271.630859 0)"/>
     <use xlink:href="#DejaVuSans-74" transform="translate(299.414062 0)"/>
     <use xlink:href="#DejaVuSans-79" transform="translate(338.623047 0)"/>
    </g>
    <!-- I_k -->
    <g style="fill: #263238" transform="translate(243.922834 256.672126) scale(0.085 -0.085)">
     <use xlink:href="#DejaVuSans-49"/>
     <use xlink:href="#DejaVuSans-5f" transform="translate(29.492188 0)"/>
     <use xlink:href="#DejaVuSans-6b" transform="translate(79.492188 0)"/>
    </g>
   </g>
   <g id="text_7">
    <!-- Source trust -->
    <g style="fill: #263238" transform="translate(223.829631 295.617315) scale(0.085 -0.085)">
     <defs>
      <path id="DejaVuSans-53" d="M 3425 4513 
L 3425 3897 
Q 3066 4069 2747 4153 
Q 2428 4238 2131 4238 
Q 1616 4238 1336 4038 
Q 1056 3838 1056 3469 
Q 1056 3159 1242 3001 
Q 1428 2844 1947 2747 
L 2328 2669 
Q 3034 2534 3370 2195 
Q 3706 1856 3706 1288 
Q 3706 609 3251 259 
Q 2797 -91 1919 -91 
Q 1588 -91 1214 -16 
Q 841 59 441 206 
L 441 856 
Q 825 641 1194 531 
Q 1563 422 1919 422 
Q 2459 422 2753 634 
Q 3047 847 3047 1241 
Q 3047 1584 2836 1778 
Q 2625 1972 2144 2069 
L 1759 2144 
Q 1053 2284 737 2584 
Q 422 2884 422 3419 
Q 422 4038 858 4394 
Q 1294 4750 2059 4750 
Q 2388 4750 2728 4690 
Q 3069 4631 3425 4513 
z
" transform="scale(0.015625)"/>
     </defs>
     <use xlink:href="#DejaVuSans-53"/>
     <use xlink:href="#DejaVuSans-6f" transform="translate(63.476562 0)"/>
     <use xlink:href="#DejaVuSans-75" transform="translate(124.658203 0)"/>
     <use xlink:href="#DejaVuSans-72" transform="translate(188.037109 0)"/>
     <use xlink:href="#DejaVuSans-63" transform="translate(226.900391 0)"/>
     <use xlink:href="#DejaVuSans-65" transform="translate(281.880859 0)"/>
     <use xlink:href="#DejaVuSans-20" transform="translate(343.404297 0)"/>
     <use xlink:href="#DejaVuSans-74" transform="translate(375.191406 0)"/>
     <use xlink:href="#DejaVuSans-72" transform="translate(414.400391 0)"/>
     <use xlink:href="#DejaVuSans-75" transform="translate(455.513672 0)"/>
     <use xlink:href="#DejaVuSans-73" transform="translate(518.892578 0)"/>
     <use xlink:href="#DejaVuSans-74" transform="translate(570.992188 0)"/>
    </g>
    <!-- T_k -->
    <g style="fill: #263238" transform="translate(242.580764 305.135456) scale(0.085 -0.085)">
     <defs>
      <path id="DejaVuSans-54" d="M -19 4666 
L 3928 4666 
L 3928 4134 
L 2272 4134 
L 2272 0 
L 1638 0 
L 1638 4134 
L -19 4134 
L -19 4666 
z
" transform="scale(0.015625)"/>
     </defs>
     <use xlink:href="#DejaVuSans-54"/>
     <use xlink:href="#DejaVuSans-5f" transform="translate(61.083984 0)"/>
     <use xlink:href="#DejaVuSans-6b" transform="translate(111.083984 0)"/>
    </g>
   </g>
   <g id="text_8">
    <!-- Complexity -->
    <g style="fill: #263238" transform="translate(380.435005 295.617315) scale(0.085 -0.085)">
     <defs>
      <path id="DejaVuSans-6d" d="M 3328 2828 
Q 3544 3216 3844 3400 
Q 4144 3584 4550 3584 
Q 5097 3584 5394 3201 
Q 5691 2819 5691 2113 
L 5691 0 
L 5113 0 
L 5113 2094 
Q 5113 2597 4934 2840 
Q 4756 3084 4391 3084 
Q 3944 3084 3684 2787 
Q 3425 2491 3425 1978 
L 3425 0 
L 2847 0 
L 2847 2094 
Q 2847 2600 2669 2842 
Q 2491 3084 2119 3084 
Q 1678 3084 1418 2786 
Q 1159 2488 1159 1978 
L 1159 0 
L 581 0 
L 581 3500 
L 1159 3500 
L 1159 2956 
Q 1356 3278 1631 3431 
Q 1906 3584 2284 3584 
Q 2666 3584 2933 3390 
Q 3200 3197 3328 2828 
z
" transform="scale(0.015625)"/>
      <path id="DejaVuSans-78" d="M 3513 3500 
L 2247 1797 
L 3578 0 
L 2900 0 
L 1881 1375 
L 863 0 
L 184 0 
L 1544 1831 
L 300 3500 
L 978 3500 
L 1906 2253 
L 2834 3500 
L 3513 3500 
z
" transform="scale(0.015625)"/>
     </defs>
     <use xlink:href="#DejaVuSans-43"/>
     <use xlink:href="#DejaVuSans-6f" transform="translate(69.824219 0)"/>
     <use xlink:href="#DejaVuSans-6d" transform="translate(131.005859 0)"/>
     <use xlink:href="#DejaVuSans-70" transform="translate(228.417969 0)"/>
     <use xlink:href="#DejaVuSans-6c" transform="translate(291.894531 0)"/>
     <use xlink:href="#DejaVuSans-65" transform="translate(319.677734 0)"/>
     <use xlink:href="#DejaVuSans-78" transform="translate(379.451172 0)"/>
     <use xlink:href="#DejaVuSans-69" transform="translate(438.630859 0)"/>
     <use xlink:href="#DejaVuSans-74" transform="translate(466.414062 0)"/>
     <use xlink:href="#DejaVuSans-79" transform="translate(505.623047 0)"/>
    </g>
    <!-- penalty C_k -->
    <g style="fill: #263238" transform="translate(379.562427 305.135456) scale(0.085 -0.085)">
     <use xlink:href="#DejaVuSans-70"/>
     <use xlink:href="#DejaVuSans-65" transform="translate(63.476562 0)"/>
     <use xlink:href="#DejaVuSans-6e" transform="translate(125 0)"/>
     <use xlink:href="#DejaVuSans-61" transform="translate(188.378906 0)"/>
     <use xlink:href="#DejaVuSans-6c" transform="translate(249.658203 0)"/>
     <use xlink:href="#DejaVuSans-74" transform="translate(277.441406 0)"/>
     <use xlink:href="#DejaVuSans-79" transform="translate(316.650391 0)"/>
     <use xlink:href="#DejaVuSans-20" transform="translate(375.830078 0)"/>
     <use xlink:href="#DejaVuSans-43" transform="translate(407.617188 0)"/>
     <use xlink:href="#DejaVuSans-5f" transform="translate(477.441406 0)"/>
     <use xlink:href="#DejaVuSans-6b" transform="translate(527.441406 0)"/>
    </g>
   </g>
   <g id="text_9">
    <!-- Reliability -->
    <g style="fill: #263238" transform="translate(396.444544 182.175334) scale(0.09 -0.09)">
     <use xlink:href="#DejaVuSans-Bold-52"/>
     <use xlink:href="#DejaVuSans-Bold-65" transform="translate(77.001953 0)"/>
     <use xlink:href="#DejaVuSans-Bold-6c" transform="translate(144.824219 0)"/>
     <use xlink:href="#DejaVuSans-Bold-69" transform="translate(179.101562 0)"/>
     <use xlink:href="#DejaVuSans-Bold-61" transform="translate(213.378906 0)"/>
     <use xlink:href="#DejaVuSans-Bold-62" transform="translate(280.859375 0)"/>
     <use xlink:href="#DejaVuSans-Bold-69" transform="translate(352.441406 0)"/>
     <use xlink:href="#DejaVuSans-Bold-6c" transform="translate(386.71875 0)"/>
     <use xlink:href="#DejaVuSans-Bold-69" transform="translate(420.996094 0)"/>
     <use xlink:href="#DejaVuSans-Bold-74" transform="translate(455.273438 0)"/>
     <use xlink:href="#DejaVuSans-Bold-79" transform="translate(503.076172 0)"/>
    </g>
    <!-- certificate -->
    <g style="fill: #263238" transform="translate(395.976966 192.323677) scale(0.09 -0.09)">
     <defs>
      <path id="DejaVuSans-Bold-66" d="M 2841 4863 
L 2841 4128 
L 2222 4128 
Q 1984 4128 1890 4042 
Q 1797 3956 1797 3744 
L 1797 3500 
L 2753 3500 
L 2753 2700 
L 1797 2700 
L 1797 0 
L 678 0 
L 678 2700 
L 122 2700 
L 122 3500 
L 678 3500 
L 678 3744 
Q 678 4316 997 4589 
Q 1316 4863 1984 4863 
L 2841 4863 
z
" transform="scale(0.015625)"/>
     </defs>
     <use xlink:href="#DejaVuSans-Bold-63"/>
     <use xlink:href="#DejaVuSans-Bold-65" transform="translate(59.277344 0)"/>
     <use xlink:href="#DejaVuSans-Bold-72" transform="translate(127.099609 0)"/>
     <use xlink:href="#DejaVuSans-Bold-74" transform="translate(176.416016 0)"/>
     <use xlink:href="#DejaVuSans-Bold-69" transform="translate(224.21875 0)"/>
     <use xlink:href="#DejaVuSans-Bold-66" transform="translate(258.496094 0)"/>
     <use xlink:href="#DejaVuSans-Bold-69" transform="translate(302.001953 0)"/>
     <use xlink:href="#DejaVuSans-Bold-63" transform="translate(336.279297 0)"/>
     <use xlink:href="#DejaVuSans-Bold-61" transform="translate(395.556641 0)"/>
     <use xlink:href="#DejaVuSans-Bold-74" transform="translate(463.037109 0)"/>
     <use xlink:href="#DejaVuSans-Bold-65" transform="translate(510.839844 0)"/>
    </g>
    <!-- R_k -->
    <g style="fill: #263238" transform="translate(413.3097 202.401709) scale(0.09 -0.09)">
     <use xlink:href="#DejaVuSans-Bold-52"/>
     <use xlink:href="#DejaVuSans-Bold-5f" transform="translate(77.001953 0)"/>
     <use xlink:href="#DejaVuSans-Bold-6b" transform="translate(127.001953 0)"/>
    </g>
   </g>
   <g id="text_10">
    <!-- Pass -->
    <g style="fill: #263238" transform="translate(551.059763 187.374662) scale(0.09 -0.09)">
     <defs>
      <path id="DejaVuSans-Bold-50" d="M 588 4666 
L 2584 4666 
Q 3475 4666 3951 4270 
Q 4428 3875 4428 3144 
Q 4428 2409 3951 2014 
Q 3475 1619 2584 1619 
L 1791 1619 
L 1791 0 
L 588 0 
L 588 4666 
z
M 1791 3794 
L 1791 2491 
L 2456 2491 
Q 2806 2491 2997 2661 
Q 3188 2831 3188 3144 
Q 3188 3456 2997 3625 
Q 2806 3794 2456 3794 
L 1791 3794 
z
" transform="scale(0.015625)"/>
     </defs>
     <use xlink:href="#DejaVuSans-Bold-50"/>
     <use xlink:href="#DejaVuSans-Bold-61" transform="translate(70.666016 0)"/>
     <use xlink:href="#DejaVuSans-Bold-73" transform="translate(138.146484 0)"/>
     <use xlink:href="#DejaVuSans-Bold-73" transform="translate(197.667969 0)"/>
    </g>
    <!-- thresholds? -->
    <g style="fill: #263238" transform="translate(532.981716 197.452693) scale(0.09 -0.09)">
     <defs>
      <path id="DejaVuSans-Bold-68" d="M 4056 2131 
L 4056 0 
L 2931 0 
L 2931 347 
L 2931 1625 
Q 2931 2084 2911 2256 
Q 2891 2428 2841 2509 
Q 2775 2619 2662 2680 
Q 2550 2741 2406 2741 
Q 2056 2741 1856 2470 
Q 1656 2200 1656 1722 
L 1656 0 
L 538 0 
L 538 4863 
L 1656 4863 
L 1656 2988 
Q 1909 3294 2193 3439 
Q 2478 3584 2822 3584 
Q 3428 3584 3742 3212 
Q 4056 2841 4056 2131 
z
" transform="scale(0.015625)"/>
      <path id="DejaVuSans-Bold-3f" d="M 2216 1575 
L 1088 1575 
L 1088 1728 
Q 1088 1984 1191 2182 
Q 1294 2381 1625 2688 
L 1825 2869 
Q 2003 3031 2086 3175 
Q 2169 3319 2169 3463 
Q 2169 3681 2019 3804 
Q 1869 3928 1600 3928 
Q 1347 3928 1053 3823 
Q 759 3719 441 3513 
L 441 4494 
Q 819 4625 1131 4687 
Q 1444 4750 1734 4750 
Q 2497 4750 2897 4439 
Q 3297 4128 3297 3531 
Q 3297 3225 3175 2983 
Q 3053 2741 2759 2463 
L 2559 2284 
Q 2347 2091 2281 1973 
Q 2216 1856 2216 1716 
L 2216 1575 
z
M 1088 1113 
L 2216 1113 
L 2216 0 
L 1088 0 
L 1088 1113 
z
" transform="scale(0.015625)"/>
     </defs>
     <use xlink:href="#DejaVuSans-Bold-74"/>
     <use xlink:href="#DejaVuSans-Bold-68" transform="translate(47.802734 0)"/>
     <use xlink:href="#DejaVuSans-Bold-72" transform="translate(118.994141 0)"/>
     <use xlink:href="#DejaVuSans-Bold-65" transform="translate(168.310547 0)"/>
     <use xlink:href="#DejaVuSans-Bold-73" transform="translate(236.132812 0)"/>
     <use xlink:href="#DejaVuSans-Bold-68" transform="translate(295.654297 0)"/>
     <use xlink:href="#DejaVuSans-Bold-6f" transform="translate(366.845703 0)"/>
     <use xlink:href="#DejaVuSans-Bold-6c" transform="translate(435.546875 0)"/>
     <use xlink:href="#DejaVuSans-Bold-64" transform="translate(469.824219 0)"/>
     <use xlink:href="#DejaVuSans-Bold-73" transform="translate(541.40625 0)"/>
     <use xlink:href="#DejaVuSans-Bold-3f" transform="translate(600.927734 0)"/>
    </g>
   </g>
   <g id="text_11">
    <!-- Admit into -->
    <g style="fill: #263238" transform="translate(630.729928 119.834466) scale(0.09 -0.09)">
     <defs>
      <path id="DejaVuSans-41" d="M 2188 4044 
L 1331 1722 
L 3047 1722 
L 2188 4044 
z
M 1831 4666 
L 2547 4666 
L 4325 0 
L 3669 0 
L 3244 1197 
L 1141 1197 
L 716 0 
L 50 0 
L 1831 4666 
z
" transform="scale(0.015625)"/>
     </defs>
     <use xlink:href="#DejaVuSans-41"/>
     <use xlink:href="#DejaVuSans-64" transform="translate(66.658203 0)"/>
     <use xlink:href="#DejaVuSans-6d" transform="translate(130.134766 0)"/>
     <use xlink:href="#DejaVuSans-69" transform="translate(227.546875 0)"/>
     <use xlink:href="#DejaVuSans-74" transform="translate(255.330078 0)"/>
     <use xlink:href="#DejaVuSans-20" transform="translate(294.539062 0)"/>
     <use xlink:href="#DejaVuSans-69" transform="translate(326.326172 0)"/>
     <use xlink:href="#DejaVuSans-6e" transform="translate(354.109375 0)"/>
     <use xlink:href="#DejaVuSans-74" transform="translate(417.488281 0)"/>
     <use xlink:href="#DejaVuSans-6f" transform="translate(456.697266 0)"/>
    </g>
    <!-- A_R -->
    <g style="fill: #263238" transform="translate(645.578522 129.912497) scale(0.09 -0.09)">
     <defs>
      <path id="DejaVuSans-52" d="M 2841 2188 
Q 3044 2119 3236 1894 
Q 3428 1669 3622 1275 
L 4263 0 
L 3584 0 
L 2988 1197 
Q 2756 1666 2539 1819 
Q 2322 1972 1947 1972 
L 1259 1972 
L 1259 0 
L 628 0 
L 628 4666 
L 2053 4666 
Q 2853 4666 3247 4331 
Q 3641 3997 3641 3322 
Q 3641 2881 3436 2590 
Q 3231 2300 2841 2188 
z
M 1259 4147 
L 1259 2491 
L 2053 2491 
Q 2509 2491 2742 2702 
Q 2975 2913 2975 3322 
Q 2975 3731 2742 3939 
Q 2509 4147 2053 4147 
L 1259 4147 
z
" transform="scale(0.015625)"/>
     </defs>
     <use xlink:href="#DejaVuSans-41"/>
     <use xlink:href="#DejaVuSans-5f" transform="translate(68.408203 0)"/>
     <use xlink:href="#DejaVuSans-52" transform="translate(118.408203 0)"/>
    </g>
   </g>
   <g id="text_12">
    <!-- Reject / -->
    <g style="fill: #263238" transform="translate(638.075514 253.720768) scale(0.085 -0.085)">
     <defs>
      <path id="DejaVuSans-6a" d="M 603 3500 
L 1178 3500 
L 1178 -63 
Q 1178 -731 923 -1031 
Q 669 -1331 103 -1331 
L -116 -1331 
L -116 -844 
L 38 -844 
Q 366 -844 484 -692 
Q 603 -541 603 -63 
L 603 3500 
z
M 603 4863 
L 1178 4863 
L 1178 4134 
L 603 4134 
L 603 4863 
z
" transform="scale(0.015625)"/>
     </defs>
     <use xlink:href="#DejaVuSans-52"/>
     <use xlink:href="#DejaVuSans-65" transform="translate(64.982422 0)"/>
     <use xlink:href="#DejaVuSans-6a" transform="translate(126.505859 0)"/>
     <use xlink:href="#DejaVuSans-65" transform="translate(154.289062 0)"/>
     <use xlink:href="#DejaVuSans-63" transform="translate(215.8125 0)"/>
     <use xlink:href="#DejaVuSans-74" transform="translate(270.792969 0)"/>
     <use xlink:href="#DejaVuSans-20" transform="translate(310.001953 0)"/>
     <use xlink:href="#DejaVuSans-2f" transform="translate(341.789062 0)"/>
    </g>
    <!-- fallback to -->
    <g style="fill: #263238" transform="translate(631.853912 263.238909) scale(0.085 -0.085)">
     <use xlink:href="#DejaVuSans-66"/>
     <use xlink:href="#DejaVuSans-61" transform="translate(35.205078 0)"/>
     <use xlink:href="#DejaVuSans-6c" transform="translate(96.484375 0)"/>
     <use xlink:href="#DejaVuSans-6c" transform="translate(124.267578 0)"/>
     <use xlink:href="#DejaVuSans-62" transform="translate(152.050781 0)"/>
     <use xlink:href="#DejaVuSans-61" transform="translate(215.527344 0)"/>
     <use xlink:href="#DejaVuSans-63" transform="translate(276.806641 0)"/>
     <use xlink:href="#DejaVuSans-6b" transform="translate(331.787109 0)"/>
     <use xlink:href="#DejaVuSans-20" transform="translate(389.697266 0)"/>
     <use xlink:href="#DejaVuSans-74" transform="translate(421.484375 0)"/>
     <use xlink:href="#DejaVuSans-6f" transform="translate(460.693359 0)"/>
    </g>
    <!-- anchor -->
    <g style="fill: #263238" transform="translate(639.357819 272.757049) scale(0.085 -0.085)">
     <use xlink:href="#DejaVuSans-61"/>
     <use xlink:href="#DejaVuSans-6e" transform="translate(61.279297 0)"/>
     <use xlink:href="#DejaVuSans-63" transform="translate(124.658203 0)"/>
     <use xlink:href="#DejaVuSans-68" transform="translate(179.638672 0)"/>
     <use xlink:href="#DejaVuSans-6f" transform="translate(243.017578 0)"/>
     <use xlink:href="#DejaVuSans-72" transform="translate(304.199219 0)"/>
    </g>
   </g>
   <g id="text_13">
    <!-- allowed to -->
    <g style="fill: #62727b" transform="translate(605.2304 150.81263) scale(0.08 -0.08)">
     <use xlink:href="#DejaVuSans-61"/>
     <use xlink:href="#DejaVuSans-6c" transform="translate(61.279297 0)"/>
     <use xlink:href="#DejaVuSans-6c" transform="translate(89.0625 0)"/>
     <use xlink:href="#DejaVuSans-6f" transform="translate(116.845703 0)"/>
     <use xlink:href="#DejaVuSans-77" transform="translate(178.027344 0)"/>
     <use xlink:href="#DejaVuSans-65" transform="translate(259.814453 0)"/>
     <use xlink:href="#DejaVuSans-64" transform="translate(321.337891 0)"/>
     <use xlink:href="#DejaVuSans-20" transform="translate(384.814453 0)"/>
     <use xlink:href="#DejaVuSans-74" transform="translate(416.601562 0)"/>
     <use xlink:href="#DejaVuSans-6f" transform="translate(455.810547 0)"/>
    </g>
    <!-- challenge p_0 -->
    <g style="fill: #62727b" transform="translate(598.149775 159.77088) scale(0.08 -0.08)">
     <defs>
      <path id="DejaVuSans-67" d="M 2906 1791 
Q 2906 2416 2648 2759 
Q 2391 3103 1925 3103 
Q 1463 3103 1205 2759 
Q 947 2416 947 1791 
Q 947 1169 1205 825 
Q 1463 481 1925 481 
Q 2391 481 2648 825 
Q 2906 1169 2906 1791 
z
M 3481 434 
Q 3481 -459 3084 -895 
Q 2688 -1331 1869 -1331 
Q 1566 -1331 1297 -1286 
Q 1028 -1241 775 -1147 
L 775 -588 
Q 1028 -725 1275 -790 
Q 1522 -856 1778 -856 
Q 2344 -856 2625 -561 
Q 2906 -266 2906 331 
L 2906 616 
Q 2728 306 2450 153 
Q 2172 0 1784 0 
Q 1141 0 747 490 
Q 353 981 353 1791 
Q 353 2603 747 3093 
Q 1141 3584 1784 3584 
Q 2172 3584 2450 3431 
Q 2728 3278 2906 2969 
L 2906 3500 
L 3481 3500 
L 3481 434 
z
" transform="scale(0.015625)"/>
      <path id="DejaVuSans-30" d="M 2034 4250 
Q 1547 4250 1301 3770 
Q 1056 3291 1056 2328 
Q 1056 1369 1301 889 
Q 1547 409 2034 409 
Q 2525 409 2770 889 
Q 3016 1369 3016 2328 
Q 3016 3291 2770 3770 
Q 2525 4250 2034 4250 
z
M 2034 4750 
Q 2819 4750 3233 4129 
Q 3647 3509 3647 2328 
Q 3647 1150 3233 529 
Q 2819 -91 2034 -91 
Q 1250 -91 836 529 
Q 422 1150 422 2328 
Q 422 3509 836 4129 
Q 1250 4750 2034 4750 
z
" transform="scale(0.015625)"/>
     </defs>
     <use xlink:href="#DejaVuSans-63"/>
     <use xlink:href="#DejaVuSans-68" transform="translate(54.980469 0)"/>
     <use xlink:href="#DejaVuSans-61" transform="translate(118.359375 0)"/>
     <use xlink:href="#DejaVuSans-6c" transform="translate(179.638672 0)"/>
     <use xlink:href="#DejaVuSans-6c" transform="translate(207.421875 0)"/>
     <use xlink:href="#DejaVuSans-65" transform="translate(235.205078 0)"/>
     <use xlink:href="#DejaVuSans-6e" transform="translate(296.728516 0)"/>
     <use xlink:href="#DejaVuSans-67" transform="translate(360.107422 0)"/>
     <use xlink:href="#DejaVuSans-65" transform="translate(423.583984 0)"/>
     <use xlink:href="#DejaVuSans-20" transform="translate(485.107422 0)"/>
     <use xlink:href="#DejaVuSans-70" transform="translate(516.894531 0)"/>
     <use xlink:href="#DejaVuSans-5f" transform="translate(580.371094 0)"/>
     <use xlink:href="#DejaVuSans-30" transform="translate(630.371094 0)"/>
    </g>
   </g>
   <g id="text_14">
    <!-- yes -->
    <g style="fill: #4c8b63" transform="translate(555.6024 149.1264) scale(0.085 -0.085)">
     <use xlink:href="#DejaVuSans-Bold-79"/>
     <use xlink:href="#DejaVuSans-Bold-65" transform="translate(65.185547 0)"/>
     <use xlink:href="#DejaVuSans-Bold-73" transform="translate(133.007812 0)"/>
    </g>
   </g>
   <g id="text_15">
    <!-- no -->
    <g style="fill: #7c8a93" transform="translate(555.6024 234.28224) scale(0.085 -0.085)">
     <use xlink:href="#DejaVuSans-Bold-6e"/>
     <use xlink:href="#DejaVuSans-Bold-6f" transform="translate(71.191406 0)"/>
    </g>
   </g>
  </g>
 </g>
 <defs>
  <clipPath id="pb277f11c21">
   <rect x="7.2" y="7.2" width="703.08" height="354.816"/>
  </clipPath>
 </defs>
</svg>
