<?xml version="1.0" encoding="utf-8" standalone="no"?>
<!DOCTYPE svg PUBLIC "-//W3C//DTD SVG 1.1//EN"
  "http://www.w3.org/Graphics/SVG/1.1/DTD/svg11.dtd">
<svg xmlns:xlink="http://www.w3.org/1999/xlink" width="750.96pt" height="413.568pt" viewBox="0 0 750.96 413.568" xmlns="http://www.w3.org/2000/svg" version="1.1">
 <metadata>
  <rdf:RDF xmlns:dc="http://purl.org/dc/elements/1.1/" xmlns:cc="http://creativecommons.org/ns#" xmlns:rdf="http://www.w3.org/1999/02/22-rdf-syntax-ns#">
   <cc:Work>
    <dc:type rdf:resource="http://purl.org/dc/dcmitype/StillImage"/>
    <dc:date>2026-06-20T22:56:10.181781</dc:date>
    <dc:format>image/svg+xml</dc:format>
    <dc:creator>
     <cc:Agent>
      <dc:title>Matplotlib v3.10.8, https://matplotlib.org/</dc:title>
     </cc:Agent>
    </dc:creator>
   </cc:Work>
  </rdf:RDF>
 </metadata>
 <defs>
  <style type="text/css">*{stroke-linejoin: round; stroke-linecap: butt}</style>
 </defs>
 <g id="figure_1">
  <g id="patch_1">
   <path d="M 0 413.568 
L 750.96 413.568 
L 750.96 0 
L 0 0 
z
" style="fill: #ffffff"/>
  </g>
  <g id="axes_1">
   <g id="patch_2">
    <path d="M 36.6624 163.673856 
L 154.512 163.673856 
Q 163.35072 163.673856 163.35072 158.88384 
L 163.35072 110.98368 
Q 163.35072 106.193664 154.512 106.193664 
L 36.6624 106.193664 
Q 27.82368 106.193664 27.82368 110.98368 
L 27.82368 158.88384 
Q 27.82368 163.673856 36.6624 163.673856 
z
" clip-path="url(#p88156a5722)" style="fill: #eef1f3; stroke: #7c8a93; stroke-width: 1.15; stroke-linejoin: miter"/>
   </g>
   <g id="patch_3">
    <path d="M 206.0712 123.757056 
L 323.9208 123.757056 
Q 332.75952 123.757056 332.75952 118.96704 
L 332.75952 75.05856 
Q 332.75952 70.268544 323.9208 70.268544 
L 206.0712 70.268544 
Q 197.23248 70.268544 197.23248 75.05856 
L 197.23248 118.96704 
Q 197.23248 123.757056 206.0712 123.757056 
z
" clip-path="url(#p88156a5722)" style="fill: #d7e8f7; stroke: #4f7fa8; stroke-width: 1.15; stroke-linejoin: miter"/>
   </g>
   <g id="patch_4">
    <path d="M 382.8456 119.765376 
L 485.964 119.765376 
Q 494.80272 119.765376 494.80272 114.97536 
L 494.80272 75.05856 
Q 494.80272 70.268544 485.964 70.268544 
L 382.8456 70.268544 
Q 374.00688 70.268544 374.00688 75.05856 
L 374.00688 114.97536 
Q 374.00688 119.765376 382.8456 119.765376 
z
" clip-path="url(#p88156a5722)" style="fill: #d7e8f7; stroke: #4f7fa8; stroke-width: 1.15; stroke-linejoin: miter"/>
   </g>
   <g id="patch_5">
    <path d="M 206.0712 223.549056 
L 323.9208 223.549056 
Q 332.75952 223.549056 332.75952 218.75904 
L 332.75952 174.85056 
Q 332.75952 170.060544 323.9208 170.060544 
L 206.0712 170.060544 
Q 197.23248 170.060544 197.23248 174.85056 
L 197.23248 218.75904 
Q 197.23248 223.549056 206.0712 223.549056 
z
" clip-path="url(#p88156a5722)" style="fill: #eef1f3; stroke: #7c8a93; stroke-width: 1.15; stroke-linejoin: miter"/>
   </g>
   <g id="patch_6">
    <path d="M 51.3936 259.474176 
L 169.2432 259.474176 
Q 178.08192 259.474176 178.08192 254.68416 
L 178.08192 220.75488 
Q 178.08192 215.964864 169.2432 215.964864 
L 51.3936 215.964864 
Q 42.55488 215.964864 42.55488 220.75488 
L 42.55488 254.68416 
Q 42.55488 259.474176 51.3936 259.474176 
z
" clip-path="url(#p88156a5722)" style="fill: #f4e7c4; stroke: #a3782b; stroke-width: 1.15; stroke-linejoin: miter"/>
   </g>
   <g id="patch_7">
    <path d="M 51.3936 311.366016 
L 169.2432 311.366016 
Q 178.08192 311.366016 178.08192 306.576 
L 178.08192 272.64672 
Q 178.08192 267.856704 169.2432 267.856704 
L 51.3936 267.856704 
Q 42.55488 267.856704 42.55488 272.64672 
L 42.55488 306.576 
Q 42.55488 311.366016 51.3936 311.366016 
z
" clip-path="url(#p88156a5722)" style="fill: #f4e7c4; stroke: #a3782b; stroke-width: 1.15; stroke-linejoin: miter"/>
   </g>
   <g id="patch_8">
    <path d="M 51.3936 363.257856 
L 169.2432 363.257856 
Q 178.08192 363.257856 178.08192 358.46784 
L 178.08192 324.53856 
Q 178.08192 319.748544 169.2432 319.748544 
L 51.3936 319.748544 
Q 42.55488 319.748544 42.55488 324.53856 
L 42.55488 358.46784 
Q 42.55488 363.257856 51.3936 363.257856 
z
" clip-path="url(#p88156a5722)" style="fill: #f4e7c4; stroke: #a3782b; stroke-width: 1.15; stroke-linejoin: miter"/>
   </g>
   <g id="patch_9">
    <path d="M 206.0712 331.324416 
L 323.9208 331.324416 
Q 332.75952 331.324416 332.75952 326.5344 
L 332.75952 292.60512 
Q 332.75952 287.815104 323.9208 287.815104 
L 206.0712 287.815104 
Q 197.23248 287.815104 197.23248 292.60512 
L 197.23248 326.5344 
Q 197.23248 331.324416 206.0712 331.324416 
z
" clip-path="url(#p88156a5722)" style="fill: #f4e7c4; stroke: #a3782b; stroke-width: 1.15; stroke-linejoin: miter"/>
   </g>
   <g id="patch_10">
    <path d="M 375.48 283.424256 
L 508.0608 283.424256 
Q 516.89952 283.424256 516.89952 278.63424 
L 516.89952 222.75072 
Q 516.89952 217.960704 508.0608 217.960704 
L 375.48 217.960704 
Q 366.64128 217.960704 366.64128 222.75072 
L 366.64128 278.63424 
Q 366.64128 283.424256 375.48 283.424256 
z
" clip-path="url(#p88156a5722)" style="fill: #dceee4; stroke: #4c8b63; stroke-width: 1.15; stroke-linejoin: miter"/>
   </g>
   <g id="patch_11">
    <path d="M 552.2544 283.424256 
L 670.104 283.424256 
Q 678.94272 283.424256 678.94272 278.63424 
L 678.94272 234.72576 
Q 678.94272 229.935744 670.104 229.935744 
L 552.2544 229.935744 
Q 543.41568 229.935744 543.41568 234.72576 
L 543.41568 278.63424 
Q 543.41568 283.424256 552.2544 283.424256 
z
" clip-path="url(#p88156a5722)" style="fill: #dceee4; stroke: #4c8b63; stroke-width: 1.15; stroke-linejoin: miter"/>
   </g>
   <g id="patch_12">
    <path d="M 552.2544 191.615616 
L 670.104 191.615616 
Q 678.94272 191.615616 678.94272 186.8256 
L 678.94272 142.91712 
Q 678.94272 138.127104 670.104 138.127104 
L 552.2544 138.127104 
Q 543.41568 138.127104 543.41568 142.91712 
L 543.41568 186.8256 
Q 543.41568 191.615616 552.2544 191.615616 
z
" clip-path="url(#p88156a5722)" style="fill: #dceee4; stroke: #4c8b63; stroke-width: 1.15; stroke-linejoin: miter"/>
   </g>
   <g id="patch_13">
    <path d="M 382.8456 191.615616 
L 500.6952 191.615616 
Q 509.53392 191.615616 509.53392 186.8256 
L 509.53392 142.91712 
Q 509.53392 138.127104 500.6952 138.127104 
L 382.8456 138.127104 
Q 374.00688 138.127104 374.00688 142.91712 
L 374.00688 186.8256 
Q 374.00688 191.615616 382.8456 191.615616 
z
" clip-path="url(#p88156a5722)" style="fill: #f1d7d8; stroke: #a65c61; stroke-width: 1.15; stroke-linejoin: miter"/>
   </g>
   <g id="patch_14">
    <path d="M 552.2544 123.757056 
L 670.104 123.757056 
Q 678.94272 123.757056 678.94272 118.96704 
L 678.94272 75.05856 
Q 678.94272 70.268544 670.104 70.268544 
L 552.2544 70.268544 
Q 543.41568 70.268544 543.41568 75.05856 
L 543.41568 118.96704 
Q 543.41568 123.757056 552.2544 123.757056 
z
" clip-path="url(#p88156a5722)" style="fill: #f1d7d8; stroke: #a65c61; stroke-width: 1.15; stroke-linejoin: miter"/>
   </g>
   <g id="patch_15">
    <path d="M 390.2112 363.257856 
L 508.0608 363.257856 
Q 516.89952 363.257856 516.89952 358.46784 
L 516.89952 318.55104 
Q 516.89952 313.761024 508.0608 313.761024 
L 390.2112 313.761024 
Q 381.37248 313.761024 381.37248 318.55104 
L 381.37248 358.46784 
Q 381.37248 363.257856 390.2112 363.257856 
z
" clip-path="url(#p88156a5722)" style="fill: #f1d7d8; stroke: #a65c61; stroke-width: 1.15; stroke-linejoin: miter"/>
   </g>
   <g id="patch_16">
    <path d="M 552.2544 363.257856 
L 670.104 363.257856 
Q 678.94272 363.257856 678.94272 358.46784 
L 678.94272 318.55104 
Q 678.94272 313.761024 670.104 313.761024 
L 552.2544 313.761024 
Q 543.41568 313.761024 543.41568 318.55104 
L 543.41568 358.46784 
Q 543.41568 363.257856 552.2544 363.257856 
z
" clip-path="url(#p88156a5722)" style="fill: #f1d7d8; stroke: #a65c61; stroke-width: 1.15; stroke-linejoin: miter"/>
   </g>
   <g id="patch_17">
    <path d="M 662.7384 223.549056 
L 729.0288 223.549056 
Q 737.86752 223.549056 737.86752 218.75904 
L 737.86752 170.85888 
Q 737.86752 166.068864 729.0288 166.068864 
L 662.7384 166.068864 
Q 653.89968 166.068864 653.89968 170.85888 
L 653.89968 218.75904 
Q 653.89968 223.549056 662.7384 223.549056 
z
" clip-path="url(#p88156a5722)" style="fill: #d7e8f7; stroke: #4f7fa8; stroke-width: 1.15; stroke-linejoin: miter"/>
   </g>
   <g id="patch_18">
    <path d="M 157.674658 132.48525 
Q 180.291121 114.975731 201.890919 98.253307 
" clip-path="url(#p88156a5722)" style="fill: none; stroke: #62727b; stroke-width: 1.15; stroke-linecap: round"/>
    <path d="M 196.626229 99.294001 
L 201.890919 98.253307 
L 199.564661 103.089475 
z
" clip-path="url(#p88156a5722)" style="fill: #62727b; stroke: #62727b; stroke-width: 1.15; stroke-linecap: round"/>
   </g>
   <g id="patch_19">
    <path d="M 327.923687 95.01696 
Q 353.385076 95.01696 377.560725 95.01696 
" clip-path="url(#p88156a5722)" style="fill: none; stroke: #62727b; stroke-width: 1.15; stroke-linecap: round"/>
    <path d="M 372.760725 92.61696 
L 377.560725 95.01696 
L 372.760725 97.41696 
z
" clip-path="url(#p88156a5722)" style="fill: #62727b; stroke: #62727b; stroke-width: 1.15; stroke-linecap: round"/>
   </g>
   <g id="patch_20">
    <path d="M 157.221501 145.85387 
Q 180.291237 170.858486 202.489114 194.918121 
" clip-path="url(#p88156a5722)" style="fill: none; stroke: #62727b; stroke-width: 1.15; stroke-linecap: round"/>
    <path d="M 200.998173 189.762824 
L 202.489114 194.918121 
L 197.470311 193.017696 
z
" clip-path="url(#p88156a5722)" style="fill: #62727b; stroke: #62727b; stroke-width: 1.15; stroke-linecap: round"/>
   </g>
   <g id="patch_21">
    <path d="M 326.737297 201.635308 
Q 349.699977 224.746134 371.756431 246.944888 
" clip-path="url(#p88156a5722)" style="fill: none; stroke: #62727b; stroke-width: 1.15; stroke-linecap: round"/>
    <path d="M 370.075753 241.848288 
L 371.756431 246.944888 
L 366.670745 245.23147 
z
" clip-path="url(#p88156a5722)" style="fill: #62727b; stroke: #62727b; stroke-width: 1.15; stroke-linecap: round"/>
   </g>
   <g id="patch_22">
    <path d="M 173.236646 237.775001 
Q 272.363231 244.106312 370.206692 250.355669 
" clip-path="url(#p88156a5722)" style="fill: none; stroke: #62727b; stroke-width: 1.15; stroke-linecap: round"/>
    <path d="M 365.569432 247.654592 
L 370.206692 250.355669 
L 365.263474 252.444831 
z
" clip-path="url(#p88156a5722)" style="fill: #62727b; stroke: #62727b; stroke-width: 1.15; stroke-linecap: round"/>
   </g>
   <g id="patch_23">
    <path d="M 173.173708 288.673855 
Q 272.362011 270.052051 370.286652 251.667489 
" clip-path="url(#p88156a5722)" style="fill: none; stroke: #62727b; stroke-width: 1.15; stroke-linecap: round"/>
    <path d="M 365.126229 250.194387 
L 370.286652 251.667489 
L 366.011916 254.911967 
z
" clip-path="url(#p88156a5722)" style="fill: #62727b; stroke: #62727b; stroke-width: 1.15; stroke-linecap: round"/>
   </g>
   <g id="patch_24">
    <path d="M 172.903072 339.695633 
Q 272.360072 295.998719 370.639936 252.818986 
" clip-path="url(#p88156a5722)" style="fill: none; stroke: #62727b; stroke-width: 1.15; stroke-linecap: round"/>
    <path d="M 365.279994 252.552477 
L 370.639936 252.818986 
L 367.210764 256.947034 
z
" clip-path="url(#p88156a5722)" style="fill: #62727b; stroke: #62727b; stroke-width: 1.15; stroke-linecap: round"/>
   </g>
   <g id="patch_25">
    <path d="M 326.561069 306.365379 
Q 349.699329 280.032547 371.988911 254.665565 
" clip-path="url(#p88156a5722)" style="fill: none; stroke: #62727b; stroke-width: 1.15; stroke-linecap: round"/>
    <path d="M 367.017682 256.687171 
L 371.988911 254.665565 
L 370.623458 259.855511 
z
" clip-path="url(#p88156a5722)" style="fill: #62727b; stroke: #62727b; stroke-width: 1.15; stroke-linecap: round"/>
   </g>
   <g id="patch_26">
    <path d="M 512.044806 251.052326 
Q 530.159247 252.688469 546.993163 254.208952 
" clip-path="url(#p88156a5722)" style="fill: none; stroke: #62727b; stroke-width: 1.15; stroke-linecap: round"/>
    <path d="M 542.428519 251.386891 
L 546.993163 254.208952 
L 541.996728 256.167431 
z
" clip-path="url(#p88156a5722)" style="fill: #62727b; stroke: #62727b; stroke-width: 1.15; stroke-linecap: round"/>
   </g>
   <g id="patch_27">
    <path d="M 611.1792 230.72336 
Q 611.1792 210.774582 611.1792 192.111544 
" clip-path="url(#p88156a5722)" style="fill: none; stroke: #62727b; stroke-width: 1.15; stroke-linecap: round"/>
    <path d="M 608.7792 196.911544 
L 611.1792 192.111544 
L 613.5792 196.911544 
z
" clip-path="url(#p88156a5722)" style="fill: #62727b; stroke: #62727b; stroke-width: 1.15; stroke-linecap: round"/>
   </g>
   <g id="patch_28">
    <path d="M 668.718454 170.621582 
Q 666.421185 176.846441 664.569068 181.865081 
" clip-path="url(#p88156a5722)" style="fill: none; stroke: #62727b; stroke-width: 1.15; stroke-linecap: round"/>
    <path d="M 668.482503 178.192885 
L 664.569068 181.865081 
L 663.979372 176.531015 
z
" clip-path="url(#p88156a5722)" style="fill: #62727b; stroke: #62727b; stroke-width: 1.15; stroke-linecap: round"/>
   </g>
   <g id="patch_29">
    <path d="M 489.965538 95.01696 
Q 519.108316 95.01696 546.965355 95.01696 
" clip-path="url(#p88156a5722)" style="fill: none; stroke: #62727b; stroke-width: 1.15; stroke-linecap: round"/>
    <path d="M 542.165355 92.61696 
L 546.965355 95.01696 
L 542.165355 97.41696 
z
" clip-path="url(#p88156a5722)" style="fill: #62727b; stroke: #62727b; stroke-width: 1.15; stroke-linecap: round"/>
   </g>
   <g id="patch_30">
    <path d="M 441.993607 190.817402 
Q 445.453095 252.686434 448.840801 313.271732 
" clip-path="url(#p88156a5722)" style="fill: none; stroke: #62727b; stroke-width: 1.15; stroke-linecap: round"/>
    <path d="M 450.969078 308.345228 
L 448.840801 313.271732 
L 446.176564 308.613208 
z
" clip-path="url(#p88156a5722)" style="fill: #62727b; stroke: #62727b; stroke-width: 1.15; stroke-linecap: round"/>
   </g>
   <g id="patch_31">
    <path d="M 512.06099 338.50944 
Q 530.158328 338.50944 546.969927 338.50944 
" clip-path="url(#p88156a5722)" style="fill: none; stroke: #62727b; stroke-width: 1.15; stroke-linecap: round"/>
    <path d="M 542.169927 336.10944 
L 546.969927 338.50944 
L 542.169927 340.90944 
z
" clip-path="url(#p88156a5722)" style="fill: #62727b; stroke: #62727b; stroke-width: 1.15; stroke-linecap: round"/>
   </g>
   <g id="patch_32">
    <path d="M 613.155468 315.070258 
Q 640.64172 266.658988 667.493157 219.365813 
" clip-path="url(#p88156a5722)" style="fill: none; stroke: #62727b; stroke-width: 1.15; stroke-linecap: round"/>
    <path d="M 663.036156 222.354985 
L 667.493157 219.365813 
L 667.210294 224.724916 
z
" clip-path="url(#p88156a5722)" style="fill: #62727b; stroke: #62727b; stroke-width: 1.15; stroke-linecap: round"/>
   </g>
   <g id="patch_33">
    <path d="M 489.873638 95.865778 
Q 588.177927 117.656254 665.978181 179.530475 
" clip-path="url(#p88156a5722)" style="fill: none; stroke: #62727b; stroke-width: 1.15; stroke-linecap: round"/>
    <path d="M 663.71528 174.664339 
L 665.978181 179.530475 
L 660.727532 178.421114 
z
" clip-path="url(#p88156a5722)" style="fill: #62727b; stroke: #62727b; stroke-width: 1.15; stroke-linecap: round"/>
   </g>
   <g id="text_1">
    <!-- Figure 1. Reliability-Calibrated Mechanism Evidence Fusion -->
    <g style="fill: #263238" transform="translate(21.9312 23.16672) scale(0.13 -0.13)">
     <defs>
      <path id="DejaVuSans-Bold-46" d="M 588 4666 
L 3834 4666 
L 3834 3756 
L 1791 3756 
L 1791 2888 
L 3713 2888 
L 3713 1978 
L 1791 1978 
L 1791 0 
L 588 0 
L 588 4666 
z
" transform="scale(0.015625)"/>
      <path id="DejaVuSans-Bold-69" d="M 538 3500 
L 1656 3500 
L 1656 0 
L 538 0 
L 538 3500 
z
M 538 4863 
L 1656 4863 
L 1656 3950 
L 538 3950 
L 538 4863 
z
" transform="scale(0.015625)"/>
      <path id="DejaVuSans-Bold-67" d="M 2919 594 
Q 2688 288 2409 144 
Q 2131 0 1766 0 
Q 1125 0 706 504 
Q 288 1009 288 1791 
Q 288 2575 706 3076 
Q 1125 3578 1766 3578 
Q 2131 3578 2409 3434 
Q 2688 3291 2919 2981 
L 2919 3500 
L 4044 3500 
L 4044 353 
Q 4044 -491 3511 -936 
Q 2978 -1381 1966 -1381 
Q 1638 -1381 1331 -1331 
Q 1025 -1281 716 -1178 
L 716 -306 
Q 1009 -475 1290 -558 
Q 1572 -641 1856 -641 
Q 2406 -641 2662 -400 
Q 2919 -159 2919 353 
L 2919 594 
z
M 2181 2772 
Q 1834 2772 1640 2515 
Q 1447 2259 1447 1791 
Q 1447 1309 1634 1061 
Q 1822 813 2181 813 
Q 2531 813 2725 1069 
Q 2919 1325 2919 1791 
Q 2919 2259 2725 2515 
Q 2531 2772 2181 2772 
z
" transform="scale(0.015625)"/>
      <path id="DejaVuSans-Bold-75" d="M 500 1363 
L 500 3500 
L 1625 3500 
L 1625 3150 
Q 1625 2866 1622 2436 
Q 1619 2006 1619 1863 
Q 1619 1441 1641 1255 
Q 1663 1069 1716 984 
Q 1784 875 1895 815 
Q 2006 756 2150 756 
Q 2500 756 2700 1025 
Q 2900 1294 2900 1772 
L 2900 3500 
L 4019 3500 
L 4019 0 
L 2900 0 
L 2900 506 
Q 2647 200 2364 54 
Q 2081 -91 1741 -91 
Q 1134 -91 817 281 
Q 500 653 500 1363 
z
" transform="scale(0.015625)"/>
      <path id="DejaVuSans-Bold-72" d="M 3138 2547 
Q 2991 2616 2845 2648 
Q 2700 2681 2553 2681 
Q 2122 2681 1889 2404 
Q 1656 2128 1656 1613 
L 1656 0 
L 538 0 
L 538 3500 
L 1656 3500 
L 1656 2925 
Q 1872 3269 2151 3426 
Q 2431 3584 2822 3584 
Q 2878 3584 2943 3579 
Q 3009 3575 3134 3559 
L 3138 2547 
z
" transform="scale(0.015625)"/>
      <path id="DejaVuSans-Bold-65" d="M 4031 1759 
L 4031 1441 
L 1416 1441 
Q 1456 1047 1700 850 
Q 1944 653 2381 653 
Q 2734 653 3104 758 
Q 3475 863 3866 1075 
L 3866 213 
Q 3469 63 3072 -14 
Q 2675 -91 2278 -91 
Q 1328 -91 801 392 
Q 275 875 275 1747 
Q 275 2603 792 3093 
Q 1309 3584 2216 3584 
Q 3041 3584 3536 3087 
Q 4031 2591 4031 1759 
z
M 2881 2131 
Q 2881 2450 2695 2645 
Q 2509 2841 2209 2841 
Q 1884 2841 1681 2658 
Q 1478 2475 1428 2131 
L 2881 2131 
z
" transform="scale(0.015625)"/>
      <path id="DejaVuSans-Bold-20" transform="scale(0.015625)"/>
      <path id="DejaVuSans-Bold-31" d="M 750 831 
L 1813 831 
L 1813 3847 
L 722 3622 
L 722 4441 
L 1806 4666 
L 2950 4666 
L 2950 831 
L 4013 831 
L 4013 0 
L 750 0 
L 750 831 
z
" transform="scale(0.015625)"/>
      <path id="DejaVuSans-Bold-2e" d="M 653 1209 
L 1778 1209 
L 1778 0 
L 653 0 
L 653 1209 
z
" transform="scale(0.015625)"/>
      <path id="DejaVuSans-Bold-52" d="M 2297 2597 
Q 2675 2597 2839 2737 
Q 3003 2878 3003 3200 
Q 3003 3519 2839 3656 
Q 2675 3794 2297 3794 
L 1791 3794 
L 1791 2597 
L 2297 2597 
z
M 1791 1766 
L 1791 0 
L 588 0 
L 588 4666 
L 2425 4666 
Q 3347 4666 3776 4356 
Q 4206 4047 4206 3378 
Q 4206 2916 3982 2619 
Q 3759 2322 3309 2181 
Q 3556 2125 3751 1926 
Q 3947 1728 4147 1325 
L 4800 0 
L 3519 0 
L 2950 1159 
Q 2778 1509 2601 1637 
Q 2425 1766 2131 1766 
L 1791 1766 
z
" transform="scale(0.015625)"/>
      <path id="DejaVuSans-Bold-6c" d="M 538 4863 
L 1656 4863 
L 1656 0 
L 538 0 
L 538 4863 
z
" transform="scale(0.015625)"/>
      <path id="DejaVuSans-Bold-61" d="M 2106 1575 
Q 1756 1575 1579 1456 
Q 1403 1338 1403 1106 
Q 1403 894 1545 773 
Q 1688 653 1941 653 
Q 2256 653 2472 879 
Q 2688 1106 2688 1447 
L 2688 1575 
L 2106 1575 
z
M 3816 1997 
L 3816 0 
L 2688 0 
L 2688 519 
Q 2463 200 2181 54 
Q 1900 -91 1497 -91 
Q 953 -91 614 226 
Q 275 544 275 1050 
Q 275 1666 698 1953 
Q 1122 2241 2028 2241 
L 2688 2241 
L 2688 2328 
Q 2688 2594 2478 2717 
Q 2269 2841 1825 2841 
Q 1466 2841 1156 2769 
Q 847 2697 581 2553 
L 581 3406 
Q 941 3494 1303 3539 
Q 1666 3584 2028 3584 
Q 2975 3584 3395 3211 
Q 3816 2838 3816 1997 
z
" transform="scale(0.015625)"/>
      <path id="DejaVuSans-Bold-62" d="M 2400 722 
Q 2759 722 2948 984 
Q 3138 1247 3138 1747 
Q 3138 2247 2948 2509 
Q 2759 2772 2400 2772 
Q 2041 2772 1848 2508 
Q 1656 2244 1656 1747 
Q 1656 1250 1848 986 
Q 2041 722 2400 722 
z
M 1656 2988 
Q 1888 3294 2169 3439 
Q 2450 3584 2816 3584 
Q 3463 3584 3878 3070 
Q 4294 2556 4294 1747 
Q 4294 938 3878 423 
Q 3463 -91 2816 -91 
Q 2450 -91 2169 54 
Q 1888 200 1656 506 
L 1656 0 
L 538 0 
L 538 4863 
L 1656 4863 
L 1656 2988 
z
" transform="scale(0.015625)"/>
      <path id="DejaVuSans-Bold-74" d="M 1759 4494 
L 1759 3500 
L 2913 3500 
L 2913 2700 
L 1759 2700 
L 1759 1216 
Q 1759 972 1856 886 
Q 1953 800 2241 800 
L 2816 800 
L 2816 0 
L 1856 0 
Q 1194 0 917 276 
Q 641 553 641 1216 
L 641 2700 
L 84 2700 
L 84 3500 
L 641 3500 
L 641 4494 
L 1759 4494 
z
" transform="scale(0.015625)"/>
      <path id="DejaVuSans-Bold-79" d="M 78 3500 
L 1197 3500 
L 2138 1125 
L 2938 3500 
L 4056 3500 
L 2584 -331 
Q 2363 -916 2067 -1148 
Q 1772 -1381 1288 -1381 
L 641 -1381 
L 641 -647 
L 991 -647 
Q 1275 -647 1404 -556 
Q 1534 -466 1606 -231 
L 1638 -134 
L 78 3500 
z
" transform="scale(0.015625)"/>
      <path id="DejaVuSans-Bold-2d" d="M 347 2297 
L 2309 2297 
L 2309 1388 
L 347 1388 
L 347 2297 
z
" transform="scale(0.015625)"/>
      <path id="DejaVuSans-Bold-43" d="M 4288 256 
Q 3956 84 3597 -3 
Q 3238 -91 2847 -91 
Q 1681 -91 1000 561 
Q 319 1213 319 2328 
Q 319 3447 1000 4098 
Q 1681 4750 2847 4750 
Q 3238 4750 3597 4662 
Q 3956 4575 4288 4403 
L 4288 3438 
Q 3953 3666 3628 3772 
Q 3303 3878 2944 3878 
Q 2300 3878 1931 3465 
Q 1563 3053 1563 2328 
Q 1563 1606 1931 1193 
Q 2300 781 2944 781 
Q 3303 781 3628 887 
Q 3953 994 4288 1222 
L 4288 256 
z
" transform="scale(0.015625)"/>
      <path id="DejaVuSans-Bold-64" d="M 2919 2988 
L 2919 4863 
L 4044 4863 
L 4044 0 
L 2919 0 
L 2919 506 
Q 2688 197 2409 53 
Q 2131 -91 1766 -91 
Q 1119 -91 703 423 
Q 288 938 288 1747 
Q 288 2556 703 3070 
Q 1119 3584 1766 3584 
Q 2128 3584 2408 3439 
Q 2688 3294 2919 2988 
z
M 2181 722 
Q 2541 722 2730 984 
Q 2919 1247 2919 1747 
Q 2919 2247 2730 2509 
Q 2541 2772 2181 2772 
Q 1825 2772 1636 2509 
Q 1447 2247 1447 1747 
Q 1447 1247 1636 984 
Q 1825 722 2181 722 
z
" transform="scale(0.015625)"/>
      <path id="DejaVuSans-Bold-4d" d="M 588 4666 
L 2119 4666 
L 3181 2169 
L 4250 4666 
L 5778 4666 
L 5778 0 
L 4641 0 
L 4641 3413 
L 3566 897 
L 2803 897 
L 1728 3413 
L 1728 0 
L 588 0 
L 588 4666 
z
" transform="scale(0.015625)"/>
      <path id="DejaVuSans-Bold-63" d="M 3366 3391 
L 3366 2478 
Q 3138 2634 2908 2709 
Q 2678 2784 2431 2784 
Q 1963 2784 1702 2511 
Q 1441 2238 1441 1747 
Q 1441 1256 1702 982 
Q 1963 709 2431 709 
Q 2694 709 2930 787 
Q 3166 866 3366 1019 
L 3366 103 
Q 3103 6 2833 -42 
Q 2563 -91 2291 -91 
Q 1344 -91 809 395 
Q 275 881 275 1747 
Q 275 2613 809 3098 
Q 1344 3584 2291 3584 
Q 2566 3584 2833 3536 
Q 3100 3488 3366 3391 
z
" transform="scale(0.015625)"/>
      <path id="DejaVuSans-Bold-68" d="M 4056 2131 
L 4056 0 
L 2931 0 
L 2931 347 
L 2931 1625 
Q 2931 2084 2911 2256 
Q 2891 2428 2841 2509 
Q 2775 2619 2662 2680 
Q 2550 2741 2406 2741 
Q 2056 2741 1856 2470 
Q 1656 2200 1656 1722 
L 1656 0 
L 538 0 
L 538 4863 
L 1656 4863 
L 1656 2988 
Q 1909 3294 2193 3439 
Q 2478 3584 2822 3584 
Q 3428 3584 3742 3212 
Q 4056 2841 4056 2131 
z
" transform="scale(0.015625)"/>
      <path id="DejaVuSans-Bold-6e" d="M 4056 2131 
L 4056 0 
L 2931 0 
L 2931 347 
L 2931 1631 
Q 2931 2084 2911 2256 
Q 2891 2428 2841 2509 
Q 2775 2619 2662 2680 
Q 2550 2741 2406 2741 
Q 2056 2741 1856 2470 
Q 1656 2200 1656 1722 
L 1656 0 
L 538 0 
L 538 3500 
L 1656 3500 
L 1656 2988 
Q 1909 3294 2193 3439 
Q 2478 3584 2822 3584 
Q 3428 3584 3742 3212 
Q 4056 2841 4056 2131 
z
" transform="scale(0.015625)"/>
      <path id="DejaVuSans-Bold-73" d="M 3272 3391 
L 3272 2541 
Q 2913 2691 2578 2766 
Q 2244 2841 1947 2841 
Q 1628 2841 1473 2761 
Q 1319 2681 1319 2516 
Q 1319 2381 1436 2309 
Q 1553 2238 1856 2203 
L 2053 2175 
Q 2913 2066 3209 1816 
Q 3506 1566 3506 1031 
Q 3506 472 3093 190 
Q 2681 -91 1863 -91 
Q 1516 -91 1145 -36 
Q 775 19 384 128 
L 384 978 
Q 719 816 1070 734 
Q 1422 653 1784 653 
Q 2113 653 2278 743 
Q 2444 834 2444 1013 
Q 2444 1163 2330 1236 
Q 2216 1309 1875 1350 
L 1678 1375 
Q 931 1469 631 1722 
Q 331 1975 331 2491 
Q 331 3047 712 3315 
Q 1094 3584 1881 3584 
Q 2191 3584 2531 3537 
Q 2872 3491 3272 3391 
z
" transform="scale(0.015625)"/>
      <path id="DejaVuSans-Bold-6d" d="M 3781 2919 
Q 3994 3244 4286 3414 
Q 4578 3584 4928 3584 
Q 5531 3584 5847 3212 
Q 6163 2841 6163 2131 
L 6163 0 
L 5038 0 
L 5038 1825 
Q 5041 1866 5042 1909 
Q 5044 1953 5044 2034 
Q 5044 2406 4934 2573 
Q 4825 2741 4581 2741 
Q 4263 2741 4089 2478 
Q 3916 2216 3909 1719 
L 3909 0 
L 2784 0 
L 2784 1825 
Q 2784 2406 2684 2573 
Q 2584 2741 2328 2741 
Q 2006 2741 1831 2477 
Q 1656 2213 1656 1722 
L 1656 0 
L 531 0 
L 531 3500 
L 1656 3500 
L 1656 2988 
Q 1863 3284 2130 3434 
Q 2397 3584 2719 3584 
Q 3081 3584 3359 3409 
Q 3638 3234 3781 2919 
z
" transform="scale(0.015625)"/>
      <path id="DejaVuSans-Bold-45" d="M 588 4666 
L 3834 4666 
L 3834 3756 
L 1791 3756 
L 1791 2888 
L 3713 2888 
L 3713 1978 
L 1791 1978 
L 1791 909 
L 3903 909 
L 3903 0 
L 588 0 
L 588 4666 
z
" transform="scale(0.015625)"/>
      <path id="DejaVuSans-Bold-76" d="M 97 3500 
L 1216 3500 
L 2088 1081 
L 2956 3500 
L 4078 3500 
L 2700 0 
L 1472 0 
L 97 3500 
z
" transform="scale(0.015625)"/>
      <path id="DejaVuSans-Bold-6f" d="M 2203 2784 
Q 1831 2784 1636 2517 
Q 1441 2250 1441 1747 
Q 1441 1244 1636 976 
Q 1831 709 2203 709 
Q 2569 709 2762 976 
Q 2956 1244 2956 1747 
Q 2956 2250 2762 2517 
Q 2569 2784 2203 2784 
z
M 2203 3584 
Q 3106 3584 3614 3096 
Q 4122 2609 4122 1747 
Q 4122 884 3614 396 
Q 3106 -91 2203 -91 
Q 1297 -91 786 396 
Q 275 884 275 1747 
Q 275 2609 786 3096 
Q 1297 3584 2203 3584 
z
" transform="scale(0.015625)"/>
     </defs>
     <use xlink:href="#DejaVuSans-Bold-46"/>
     <use xlink:href="#DejaVuSans-Bold-69" transform="translate(68.310547 0)"/>
     <use xlink:href="#DejaVuSans-Bold-67" transform="translate(102.587891 0)"/>
     <use xlink:href="#DejaVuSans-Bold-75" transform="translate(174.169922 0)"/>
     <use xlink:href="#DejaVuSans-Bold-72" transform="translate(245.361328 0)"/>
     <use xlink:href="#DejaVuSans-Bold-65" transform="translate(294.677734 0)"/>
     <use xlink:href="#DejaVuSans-Bold-20" transform="translate(362.5 0)"/>
     <use xlink:href="#DejaVuSans-Bold-31" transform="translate(397.314453 0)"/>
     <use xlink:href="#DejaVuSans-Bold-2e" transform="translate(466.894531 0)"/>
     <use xlink:href="#DejaVuSans-Bold-20" transform="translate(504.882812 0)"/>
     <use xlink:href="#DejaVuSans-Bold-52" transform="translate(539.697266 0)"/>
     <use xlink:href="#DejaVuSans-Bold-65" transform="translate(616.699219 0)"/>
     <use xlink:href="#DejaVuSans-Bold-6c" transform="translate(684.521484 0)"/>
     <use xlink:href="#DejaVuSans-Bold-69" transform="translate(718.798828 0)"/>
     <use xlink:href="#DejaVuSans-Bold-61" transform="translate(753.076172 0)"/>
     <use xlink:href="#DejaVuSans-Bold-62" transform="translate(820.556641 0)"/>
     <use xlink:href="#DejaVuSans-Bold-69" transform="translate(892.138672 0)"/>
     <use xlink:href="#DejaVuSans-Bold-6c" transform="translate(926.416016 0)"/>
     <use xlink:href="#DejaVuSans-Bold-69" transform="translate(960.693359 0)"/>
     <use xlink:href="#DejaVuSans-Bold-74" transform="translate(994.970703 0)"/>
     <use xlink:href="#DejaVuSans-Bold-79" transform="translate(1042.773438 0)"/>
     <use xlink:href="#DejaVuSans-Bold-2d" transform="translate(1107.958984 0)"/>
     <use xlink:href="#DejaVuSans-Bold-43" transform="translate(1149.462891 0)"/>
     <use xlink:href="#DejaVuSans-Bold-61" transform="translate(1222.851562 0)"/>
     <use xlink:href="#DejaVuSans-Bold-6c" transform="translate(1290.332031 0)"/>
     <use xlink:href="#DejaVuSans-Bold-69" transform="translate(1324.609375 0)"/>
     <use xlink:href="#DejaVuSans-Bold-62" transform="translate(1358.886719 0)"/>
     <use xlink:href="#DejaVuSans-Bold-72" transform="translate(1430.46875 0)"/>
     <use xlink:href="#DejaVuSans-Bold-61" transform="translate(1479.785156 0)"/>
     <use xlink:href="#DejaVuSans-Bold-74" transform="translate(1547.265625 0)"/>
     <use xlink:href="#DejaVuSans-Bold-65" transform="translate(1595.068359 0)"/>
     <use xlink:href="#DejaVuSans-Bold-64" transform="translate(1662.890625 0)"/>
     <use xlink:href="#DejaVuSans-Bold-20" transform="translate(1734.472656 0)"/>
     <use xlink:href="#DejaVuSans-Bold-4d" transform="translate(1769.287109 0)"/>
     <use xlink:href="#DejaVuSans-Bold-65" transform="translate(1868.798828 0)"/>
     <use xlink:href="#DejaVuSans-Bold-63" transform="translate(1936.621094 0)"/>
     <use xlink:href="#DejaVuSans-Bold-68" transform="translate(1995.898438 0)"/>
     <use xlink:href="#DejaVuSans-Bold-61" transform="translate(2067.089844 0)"/>
     <use xlink:href="#DejaVuSans-Bold-6e" transform="translate(2134.570312 0)"/>
     <use xlink:href="#DejaVuSans-Bold-69" transform="translate(2205.761719 0)"/>
     <use xlink:href="#DejaVuSans-Bold-73" transform="translate(2240.039062 0)"/>
     <use xlink:href="#DejaVuSans-Bold-6d" transform="translate(2299.560547 0)"/>
     <use xlink:href="#DejaVuSans-Bold-20" transform="translate(2403.759766 0)"/>
     <use xlink:href="#DejaVuSans-Bold-45" transform="translate(2438.574219 0)"/>
     <use xlink:href="#DejaVuSans-Bold-76" transform="translate(2506.884766 0)"/>
     <use xlink:href="#DejaVuSans-Bold-69" transform="translate(2572.070312 0)"/>
     <use xlink:href="#DejaVuSans-Bold-64" transform="translate(2606.347656 0)"/>
     <use xlink:href="#DejaVuSans-Bold-65" transform="translate(2677.929688 0)"/>
     <use xlink:href="#DejaVuSans-Bold-6e" transform="translate(2745.751953 0)"/>
     <use xlink:href="#DejaVuSans-Bold-63" transform="translate(2816.943359 0)"/>
     <use xlink:href="#DejaVuSans-Bold-65" transform="translate(2876.220703 0)"/>
     <use xlink:href="#DejaVuSans-Bold-20" transform="translate(2944.042969 0)"/>
     <use xlink:href="#DejaVuSans-Bold-46" transform="translate(2978.857422 0)"/>
     <use xlink:href="#DejaVuSans-Bold-75" transform="translate(3042.167969 0)"/>
     <use xlink:href="#DejaVuSans-Bold-73" transform="translate(3113.359375 0)"/>
     <use xlink:href="#DejaVuSans-Bold-69" transform="translate(3172.880859 0)"/>
     <use xlink:href="#DejaVuSans-Bold-6f" transform="translate(3207.158203 0)"/>
     <use xlink:href="#DejaVuSans-Bold-6e" transform="translate(3275.859375 0)"/>
    </g>
   </g>
   <g id="text_2">
    <!-- Industrial -->
    <g style="fill: #263238" transform="translate(74.482903 127.21401) scale(0.09 -0.09)">
     <defs>
      <path id="DejaVuSans-49" d="M 628 4666 
L 1259 4666 
L 1259 0 
L 628 0 
L 628 4666 
z
" transform="scale(0.015625)"/>
      <path id="DejaVuSans-6e" d="M 3513 2113 
L 3513 0 
L 2938 0 
L 2938 2094 
Q 2938 2591 2744 2837 
Q 2550 3084 2163 3084 
Q 1697 3084 1428 2787 
Q 1159 2491 1159 1978 
L 1159 0 
L 581 0 
L 581 3500 
L 1159 3500 
L 1159 2956 
Q 1366 3272 1645 3428 
Q 1925 3584 2291 3584 
Q 2894 3584 3203 3211 
Q 3513 2838 3513 2113 
z
" transform="scale(0.015625)"/>
      <path id="DejaVuSans-64" d="M 2906 2969 
L 2906 4863 
L 3481 4863 
L 3481 0 
L 2906 0 
L 2906 525 
Q 2725 213 2448 61 
Q 2172 -91 1784 -91 
Q 1150 -91 751 415 
Q 353 922 353 1747 
Q 353 2572 751 3078 
Q 1150 3584 1784 3584 
Q 2172 3584 2448 3432 
Q 2725 3281 2906 2969 
z
M 947 1747 
Q 947 1113 1208 752 
Q 1469 391 1925 391 
Q 2381 391 2643 752 
Q 2906 1113 2906 1747 
Q 2906 2381 2643 2742 
Q 2381 3103 1925 3103 
Q 1469 3103 1208 2742 
Q 947 2381 947 1747 
z
" transform="scale(0.015625)"/>
      <path id="DejaVuSans-75" d="M 544 1381 
L 544 3500 
L 1119 3500 
L 1119 1403 
Q 1119 906 1312 657 
Q 1506 409 1894 409 
Q 2359 409 2629 706 
Q 2900 1003 2900 1516 
L 2900 3500 
L 3475 3500 
L 3475 0 
L 2900 0 
L 2900 538 
Q 2691 219 2414 64 
Q 2138 -91 1772 -91 
Q 1169 -91 856 284 
Q 544 659 544 1381 
z
M 1991 3584 
L 1991 3584 
z
" transform="scale(0.015625)"/>
      <path id="DejaVuSans-73" d="M 2834 3397 
L 2834 2853 
Q 2591 2978 2328 3040 
Q 2066 3103 1784 3103 
Q 1356 3103 1142 2972 
Q 928 2841 928 2578 
Q 928 2378 1081 2264 
Q 1234 2150 1697 2047 
L 1894 2003 
Q 2506 1872 2764 1633 
Q 3022 1394 3022 966 
Q 3022 478 2636 193 
Q 2250 -91 1575 -91 
Q 1294 -91 989 -36 
Q 684 19 347 128 
L 347 722 
Q 666 556 975 473 
Q 1284 391 1588 391 
Q 1994 391 2212 530 
Q 2431 669 2431 922 
Q 2431 1156 2273 1281 
Q 2116 1406 1581 1522 
L 1381 1569 
Q 847 1681 609 1914 
Q 372 2147 372 2553 
Q 372 3047 722 3315 
Q 1072 3584 1716 3584 
Q 2034 3584 2315 3537 
Q 2597 3491 2834 3397 
z
" transform="scale(0.015625)"/>
      <path id="DejaVuSans-74" d="M 1172 4494 
L 1172 3500 
L 2356 3500 
L 2356 3053 
L 1172 3053 
L 1172 1153 
Q 1172 725 1289 603 
Q 1406 481 1766 481 
L 2356 481 
L 2356 0 
L 1766 0 
Q 1100 0 847 248 
Q 594 497 594 1153 
L 594 3053 
L 172 3053 
L 172 3500 
L 594 3500 
L 594 4494 
L 1172 4494 
z
" transform="scale(0.015625)"/>
      <path id="DejaVuSans-72" d="M 2631 2963 
Q 2534 3019 2420 3045 
Q 2306 3072 2169 3072 
Q 1681 3072 1420 2755 
Q 1159 2438 1159 1844 
L 1159 0 
L 581 0 
L 581 3500 
L 1159 3500 
L 1159 2956 
Q 1341 3275 1631 3429 
Q 1922 3584 2338 3584 
Q 2397 3584 2469 3576 
Q 2541 3569 2628 3553 
L 2631 2963 
z
" transform="scale(0.015625)"/>
      <path id="DejaVuSans-69" d="M 603 3500 
L 1178 3500 
L 1178 0 
L 603 0 
L 603 3500 
z
M 603 4863 
L 1178 4863 
L 1178 4134 
L 603 4134 
L 603 4863 
z
" transform="scale(0.015625)"/>
      <path id="DejaVuSans-61" d="M 2194 1759 
Q 1497 1759 1228 1600 
Q 959 1441 959 1056 
Q 959 750 1161 570 
Q 1363 391 1709 391 
Q 2188 391 2477 730 
Q 2766 1069 2766 1631 
L 2766 1759 
L 2194 1759 
z
M 3341 1997 
L 3341 0 
L 2766 0 
L 2766 531 
Q 2569 213 2275 61 
Q 1981 -91 1556 -91 
Q 1019 -91 701 211 
Q 384 513 384 1019 
Q 384 1609 779 1909 
Q 1175 2209 1959 2209 
L 2766 2209 
L 2766 2266 
Q 2766 2663 2505 2880 
Q 2244 3097 1772 3097 
Q 1472 3097 1187 3025 
Q 903 2953 641 2809 
L 641 3341 
Q 956 3463 1253 3523 
Q 1550 3584 1831 3584 
Q 2591 3584 2966 3190 
Q 3341 2797 3341 1997 
z
" transform="scale(0.015625)"/>
      <path id="DejaVuSans-6c" d="M 603 4863 
L 1178 4863 
L 1178 0 
L 603 0 
L 603 4863 
z
" transform="scale(0.015625)"/>
     </defs>
     <use xlink:href="#DejaVuSans-49"/>
     <use xlink:href="#DejaVuSans-6e" transform="translate(29.492188 0)"/>
     <use xlink:href="#DejaVuSans-64" transform="translate(92.871094 0)"/>
     <use xlink:href="#DejaVuSans-75" transform="translate(156.347656 0)"/>
     <use xlink:href="#DejaVuSans-73" transform="translate(219.726562 0)"/>
     <use xlink:href="#DejaVuSans-74" transform="translate(271.826172 0)"/>
     <use xlink:href="#DejaVuSans-72" transform="translate(311.035156 0)"/>
     <use xlink:href="#DejaVuSans-69" transform="translate(352.148438 0)"/>
     <use xlink:href="#DejaVuSans-61" transform="translate(379.931641 0)"/>
     <use xlink:href="#DejaVuSans-6c" transform="translate(441.210938 0)"/>
    </g>
    <!-- time-series -->
    <g style="fill: #263238" transform="translate(70.470872 137.292041) scale(0.09 -0.09)">
     <defs>
      <path id="DejaVuSans-6d" d="M 3328 2828 
Q 3544 3216 3844 3400 
Q 4144 3584 4550 3584 
Q 5097 3584 5394 3201 
Q 5691 2819 5691 2113 
L 5691 0 
L 5113 0 
L 5113 2094 
Q 5113 2597 4934 2840 
Q 4756 3084 4391 3084 
Q 3944 3084 3684 2787 
Q 3425 2491 3425 1978 
L 3425 0 
L 2847 0 
L 2847 2094 
Q 2847 2600 2669 2842 
Q 2491 3084 2119 3084 
Q 1678 3084 1418 2786 
Q 1159 2488 1159 1978 
L 1159 0 
L 581 0 
L 581 3500 
L 1159 3500 
L 1159 2956 
Q 1356 3278 1631 3431 
Q 1906 3584 2284 3584 
Q 2666 3584 2933 3390 
Q 3200 3197 3328 2828 
z
" transform="scale(0.015625)"/>
      <path id="DejaVuSans-65" d="M 3597 1894 
L 3597 1613 
L 953 1613 
Q 991 1019 1311 708 
Q 1631 397 2203 397 
Q 2534 397 2845 478 
Q 3156 559 3463 722 
L 3463 178 
Q 3153 47 2828 -22 
Q 2503 -91 2169 -91 
Q 1331 -91 842 396 
Q 353 884 353 1716 
Q 353 2575 817 3079 
Q 1281 3584 2069 3584 
Q 2775 3584 3186 3129 
Q 3597 2675 3597 1894 
z
M 3022 2063 
Q 3016 2534 2758 2815 
Q 2500 3097 2075 3097 
Q 1594 3097 1305 2825 
Q 1016 2553 972 2059 
L 3022 2063 
z
" transform="scale(0.015625)"/>
      <path id="DejaVuSans-2d" d="M 313 2009 
L 1997 2009 
L 1997 1497 
L 313 1497 
L 313 2009 
z
" transform="scale(0.015625)"/>
     </defs>
     <use xlink:href="#DejaVuSans-74"/>
     <use xlink:href="#DejaVuSans-69" transform="translate(39.208984 0)"/>
     <use xlink:href="#DejaVuSans-6d" transform="translate(66.992188 0)"/>
     <use xlink:href="#DejaVuSans-65" transform="translate(164.404297 0)"/>
     <use xlink:href="#DejaVuSans-2d" transform="translate(225.927734 0)"/>
     <use xlink:href="#DejaVuSans-73" transform="translate(262.011719 0)"/>
     <use xlink:href="#DejaVuSans-65" transform="translate(314.111328 0)"/>
     <use xlink:href="#DejaVuSans-72" transform="translate(375.634766 0)"/>
     <use xlink:href="#DejaVuSans-69" transform="translate(416.748047 0)"/>
     <use xlink:href="#DejaVuSans-65" transform="translate(444.53125 0)"/>
     <use xlink:href="#DejaVuSans-73" transform="translate(506.054688 0)"/>
    </g>
    <!-- window x_i -->
    <g style="fill: #263238" transform="translate(70.920872 147.370072) scale(0.09 -0.09)">
     <defs>
      <path id="DejaVuSans-77" d="M 269 3500 
L 844 3500 
L 1563 769 
L 2278 3500 
L 2956 3500 
L 3675 769 
L 4391 3500 
L 4966 3500 
L 4050 0 
L 3372 0 
L 2619 2869 
L 1863 0 
L 1184 0 
L 269 3500 
z
" transform="scale(0.015625)"/>
      <path id="DejaVuSans-6f" d="M 1959 3097 
Q 1497 3097 1228 2736 
Q 959 2375 959 1747 
Q 959 1119 1226 758 
Q 1494 397 1959 397 
Q 2419 397 2687 759 
Q 2956 1122 2956 1747 
Q 2956 2369 2687 2733 
Q 2419 3097 1959 3097 
z
M 1959 3584 
Q 2709 3584 3137 3096 
Q 3566 2609 3566 1747 
Q 3566 888 3137 398 
Q 2709 -91 1959 -91 
Q 1206 -91 779 398 
Q 353 888 353 1747 
Q 353 2609 779 3096 
Q 1206 3584 1959 3584 
z
" transform="scale(0.015625)"/>
      <path id="DejaVuSans-20" transform="scale(0.015625)"/>
      <path id="DejaVuSans-78" d="M 3513 3500 
L 2247 1797 
L 3578 0 
L 2900 0 
L 1881 1375 
L 863 0 
L 184 0 
L 1544 1831 
L 300 3500 
L 978 3500 
L 1906 2253 
L 2834 3500 
L 3513 3500 
z
" transform="scale(0.015625)"/>
      <path id="DejaVuSans-5f" d="M 3263 -1063 
L 3263 -1509 
L -63 -1509 
L -63 -1063 
L 3263 -1063 
z
" transform="scale(0.015625)"/>
     </defs>
     <use xlink:href="#DejaVuSans-77"/>
     <use xlink:href="#DejaVuSans-69" transform="translate(81.787109 0)"/>
     <use xlink:href="#DejaVuSans-6e" transform="translate(109.570312 0)"/>
     <use xlink:href="#DejaVuSans-64" transform="translate(172.949219 0)"/>
     <use xlink:href="#DejaVuSans-6f" transform="translate(236.425781 0)"/>
     <use xlink:href="#DejaVuSans-77" transform="translate(297.607422 0)"/>
     <use xlink:href="#DejaVuSans-20" transform="translate(379.394531 0)"/>
     <use xlink:href="#DejaVuSans-78" transform="translate(411.181641 0)"/>
     <use xlink:href="#DejaVuSans-5f" transform="translate(470.361328 0)"/>
     <use xlink:href="#DejaVuSans-69" transform="translate(520.361328 0)"/>
    </g>
   </g>
   <g id="text_3">
    <!-- Strong -->
    <g style="fill: #263238" transform="translate(247.869281 89.222737) scale(0.09 -0.09)">
     <defs>
      <path id="DejaVuSans-Bold-53" d="M 3834 4519 
L 3834 3531 
Q 3450 3703 3084 3790 
Q 2719 3878 2394 3878 
Q 1963 3878 1756 3759 
Q 1550 3641 1550 3391 
Q 1550 3203 1689 3098 
Q 1828 2994 2194 2919 
L 2706 2816 
Q 3484 2659 3812 2340 
Q 4141 2022 4141 1434 
Q 4141 663 3683 286 
Q 3225 -91 2284 -91 
Q 1841 -91 1394 -6 
Q 947 78 500 244 
L 500 1259 
Q 947 1022 1364 901 
Q 1781 781 2169 781 
Q 2563 781 2772 912 
Q 2981 1044 2981 1288 
Q 2981 1506 2839 1625 
Q 2697 1744 2272 1838 
L 1806 1941 
Q 1106 2091 782 2419 
Q 459 2747 459 3303 
Q 459 4000 909 4375 
Q 1359 4750 2203 4750 
Q 2588 4750 2994 4692 
Q 3400 4634 3834 4519 
z
" transform="scale(0.015625)"/>
     </defs>
     <use xlink:href="#DejaVuSans-Bold-53"/>
     <use xlink:href="#DejaVuSans-Bold-74" transform="translate(72.021484 0)"/>
     <use xlink:href="#DejaVuSans-Bold-72" transform="translate(119.824219 0)"/>
     <use xlink:href="#DejaVuSans-Bold-6f" transform="translate(169.140625 0)"/>
     <use xlink:href="#DejaVuSans-Bold-6e" transform="translate(237.841797 0)"/>
     <use xlink:href="#DejaVuSans-Bold-67" transform="translate(309.033203 0)"/>
    </g>
    <!-- anchor model -->
    <g style="fill: #263238" transform="translate(230.410687 99.371081) scale(0.09 -0.09)">
     <use xlink:href="#DejaVuSans-Bold-61"/>
     <use xlink:href="#DejaVuSans-Bold-6e" transform="translate(67.480469 0)"/>
     <use xlink:href="#DejaVuSans-Bold-63" transform="translate(138.671875 0)"/>
     <use xlink:href="#DejaVuSans-Bold-68" transform="translate(197.949219 0)"/>
     <use xlink:href="#DejaVuSans-Bold-6f" transform="translate(269.140625 0)"/>
     <use xlink:href="#DejaVuSans-Bold-72" transform="translate(337.841797 0)"/>
     <use xlink:href="#DejaVuSans-Bold-20" transform="translate(387.158203 0)"/>
     <use xlink:href="#DejaVuSans-Bold-6d" transform="translate(421.972656 0)"/>
     <use xlink:href="#DejaVuSans-Bold-6f" transform="translate(526.171875 0)"/>
     <use xlink:href="#DejaVuSans-Bold-64" transform="translate(594.873047 0)"/>
     <use xlink:href="#DejaVuSans-Bold-65" transform="translate(666.455078 0)"/>
     <use xlink:href="#DejaVuSans-Bold-6c" transform="translate(734.277344 0)"/>
    </g>
    <!-- f_0 -->
    <g style="fill: #263238" transform="translate(257.657484 109.449112) scale(0.09 -0.09)">
     <defs>
      <path id="DejaVuSans-Bold-66" d="M 2841 4863 
L 2841 4128 
L 2222 4128 
Q 1984 4128 1890 4042 
Q 1797 3956 1797 3744 
L 1797 3500 
L 2753 3500 
L 2753 2700 
L 1797 2700 
L 1797 0 
L 678 0 
L 678 2700 
L 122 2700 
L 122 3500 
L 678 3500 
L 678 3744 
Q 678 4316 997 4589 
Q 1316 4863 1984 4863 
L 2841 4863 
z
" transform="scale(0.015625)"/>
      <path id="DejaVuSans-Bold-5f" d="M 3200 -916 
L 3200 -1509 
L 0 -1509 
L 0 -916 
L 3200 -916 
z
" transform="scale(0.015625)"/>
      <path id="DejaVuSans-Bold-30" d="M 2944 2338 
Q 2944 3213 2780 3570 
Q 2616 3928 2228 3928 
Q 1841 3928 1675 3570 
Q 1509 3213 1509 2338 
Q 1509 1453 1675 1090 
Q 1841 728 2228 728 
Q 2613 728 2778 1090 
Q 2944 1453 2944 2338 
z
M 4147 2328 
Q 4147 1169 3647 539 
Q 3147 -91 2228 -91 
Q 1306 -91 806 539 
Q 306 1169 306 2328 
Q 306 3491 806 4120 
Q 1306 4750 2228 4750 
Q 3147 4750 3647 4120 
Q 4147 3491 4147 2328 
z
" transform="scale(0.015625)"/>
     </defs>
     <use xlink:href="#DejaVuSans-Bold-66"/>
     <use xlink:href="#DejaVuSans-Bold-5f" transform="translate(43.505859 0)"/>
     <use xlink:href="#DejaVuSans-Bold-30" transform="translate(93.505859 0)"/>
    </g>
   </g>
   <g id="text_4">
    <!-- Anchor -->
    <g style="fill: #263238" transform="translate(418.545113 87.29721) scale(0.09 -0.09)">
     <defs>
      <path id="DejaVuSans-41" d="M 2188 4044 
L 1331 1722 
L 3047 1722 
L 2188 4044 
z
M 1831 4666 
L 2547 4666 
L 4325 0 
L 3669 0 
L 3244 1197 
L 1141 1197 
L 716 0 
L 50 0 
L 1831 4666 
z
" transform="scale(0.015625)"/>
      <path id="DejaVuSans-63" d="M 3122 3366 
L 3122 2828 
Q 2878 2963 2633 3030 
Q 2388 3097 2138 3097 
Q 1578 3097 1268 2742 
Q 959 2388 959 1747 
Q 959 1106 1268 751 
Q 1578 397 2138 397 
Q 2388 397 2633 464 
Q 2878 531 3122 666 
L 3122 134 
Q 2881 22 2623 -34 
Q 2366 -91 2075 -91 
Q 1284 -91 818 406 
Q 353 903 353 1747 
Q 353 2603 823 3093 
Q 1294 3584 2113 3584 
Q 2378 3584 2631 3529 
Q 2884 3475 3122 3366 
z
" transform="scale(0.015625)"/>
      <path id="DejaVuSans-68" d="M 3513 2113 
L 3513 0 
L 2938 0 
L 2938 2094 
Q 2938 2591 2744 2837 
Q 2550 3084 2163 3084 
Q 1697 3084 1428 2787 
Q 1159 2491 1159 1978 
L 1159 0 
L 581 0 
L 581 4863 
L 1159 4863 
L 1159 2956 
Q 1366 3272 1645 3428 
Q 1925 3584 2291 3584 
Q 2894 3584 3203 3211 
Q 3513 2838 3513 2113 
z
" transform="scale(0.015625)"/>
     </defs>
     <use xlink:href="#DejaVuSans-41"/>
     <use xlink:href="#DejaVuSans-6e" transform="translate(68.408203 0)"/>
     <use xlink:href="#DejaVuSans-63" transform="translate(131.787109 0)"/>
     <use xlink:href="#DejaVuSans-68" transform="translate(186.767578 0)"/>
     <use xlink:href="#DejaVuSans-6f" transform="translate(250.146484 0)"/>
     <use xlink:href="#DejaVuSans-72" transform="translate(311.328125 0)"/>
    </g>
    <!-- prediction -->
    <g style="fill: #263238" transform="translate(411.829566 97.375241) scale(0.09 -0.09)">
     <defs>
      <path id="DejaVuSans-70" d="M 1159 525 
L 1159 -1331 
L 581 -1331 
L 581 3500 
L 1159 3500 
L 1159 2969 
Q 1341 3281 1617 3432 
Q 1894 3584 2278 3584 
Q 2916 3584 3314 3078 
Q 3713 2572 3713 1747 
Q 3713 922 3314 415 
Q 2916 -91 2278 -91 
Q 1894 -91 1617 61 
Q 1341 213 1159 525 
z
M 3116 1747 
Q 3116 2381 2855 2742 
Q 2594 3103 2138 3103 
Q 1681 3103 1420 2742 
Q 1159 2381 1159 1747 
Q 1159 1113 1420 752 
Q 1681 391 2138 391 
Q 2594 391 2855 752 
Q 3116 1113 3116 1747 
z
" transform="scale(0.015625)"/>
     </defs>
     <use xlink:href="#DejaVuSans-70"/>
     <use xlink:href="#DejaVuSans-72" transform="translate(63.476562 0)"/>
     <use xlink:href="#DejaVuSans-65" transform="translate(102.339844 0)"/>
     <use xlink:href="#DejaVuSans-64" transform="translate(163.863281 0)"/>
     <use xlink:href="#DejaVuSans-69" transform="translate(227.339844 0)"/>
     <use xlink:href="#DejaVuSans-63" transform="translate(255.123047 0)"/>
     <use xlink:href="#DejaVuSans-74" transform="translate(310.103516 0)"/>
     <use xlink:href="#DejaVuSans-69" transform="translate(349.3125 0)"/>
     <use xlink:href="#DejaVuSans-6f" transform="translate(377.095703 0)"/>
     <use xlink:href="#DejaVuSans-6e" transform="translate(438.277344 0)"/>
    </g>
    <!-- p_0(i) -->
    <g style="fill: #263238" transform="translate(421.673316 107.453272) scale(0.09 -0.09)">
     <defs>
      <path id="DejaVuSans-30" d="M 2034 4250 
Q 1547 4250 1301 3770 
Q 1056 3291 1056 2328 
Q 1056 1369 1301 889 
Q 1547 409 2034 409 
Q 2525 409 2770 889 
Q 3016 1369 3016 2328 
Q 3016 3291 2770 3770 
Q 2525 4250 2034 4250 
z
M 2034 4750 
Q 2819 4750 3233 4129 
Q 3647 3509 3647 2328 
Q 3647 1150 3233 529 
Q 2819 -91 2034 -91 
Q 1250 -91 836 529 
Q 422 1150 422 2328 
Q 422 3509 836 4129 
Q 1250 4750 2034 4750 
z
" transform="scale(0.015625)"/>
      <path id="DejaVuSans-28" d="M 1984 4856 
Q 1566 4138 1362 3434 
Q 1159 2731 1159 2009 
Q 1159 1288 1364 580 
Q 1569 -128 1984 -844 
L 1484 -844 
Q 1016 -109 783 600 
Q 550 1309 550 2009 
Q 550 2706 781 3412 
Q 1013 4119 1484 4856 
L 1984 4856 
z
" transform="scale(0.015625)"/>
      <path id="DejaVuSans-29" d="M 513 4856 
L 1013 4856 
Q 1481 4119 1714 3412 
Q 1947 2706 1947 2009 
Q 1947 1309 1714 600 
Q 1481 -109 1013 -844 
L 513 -844 
Q 928 -128 1133 580 
Q 1338 1288 1338 2009 
Q 1338 2731 1133 3434 
Q 928 4138 513 4856 
z
" transform="scale(0.015625)"/>
     </defs>
     <use xlink:href="#DejaVuSans-70"/>
     <use xlink:href="#DejaVuSans-5f" transform="translate(63.476562 0)"/>
     <use xlink:href="#DejaVuSans-30" transform="translate(113.476562 0)"/>
     <use xlink:href="#DejaVuSans-28" transform="translate(177.099609 0)"/>
     <use xlink:href="#DejaVuSans-69" transform="translate(216.113281 0)"/>
     <use xlink:href="#DejaVuSans-29" transform="translate(243.896484 0)"/>
    </g>
   </g>
   <g id="text_5">
    <!-- Residual -->
    <g style="fill: #263238" transform="translate(245.991937 194.124066) scale(0.09 -0.09)">
     <defs>
      <path id="DejaVuSans-52" d="M 2841 2188 
Q 3044 2119 3236 1894 
Q 3428 1669 3622 1275 
L 4263 0 
L 3584 0 
L 2988 1197 
Q 2756 1666 2539 1819 
Q 2322 1972 1947 1972 
L 1259 1972 
L 1259 0 
L 628 0 
L 628 4666 
L 2053 4666 
Q 2853 4666 3247 4331 
Q 3641 3997 3641 3322 
Q 3641 2881 3436 2590 
Q 3231 2300 2841 2188 
z
M 1259 4147 
L 1259 2491 
L 2053 2491 
Q 2509 2491 2742 2702 
Q 2975 2913 2975 3322 
Q 2975 3731 2742 3939 
Q 2509 4147 2053 4147 
L 1259 4147 
z
" transform="scale(0.015625)"/>
     </defs>
     <use xlink:href="#DejaVuSans-52"/>
     <use xlink:href="#DejaVuSans-65" transform="translate(64.982422 0)"/>
     <use xlink:href="#DejaVuSans-73" transform="translate(126.505859 0)"/>
     <use xlink:href="#DejaVuSans-69" transform="translate(178.605469 0)"/>
     <use xlink:href="#DejaVuSans-64" transform="translate(206.388672 0)"/>
     <use xlink:href="#DejaVuSans-75" transform="translate(269.865234 0)"/>
     <use xlink:href="#DejaVuSans-61" transform="translate(333.244141 0)"/>
     <use xlink:href="#DejaVuSans-6c" transform="translate(394.523438 0)"/>
    </g>
    <!-- dynamics r_i -->
    <g style="fill: #263238" transform="translate(236.634047 204.202097) scale(0.09 -0.09)">
     <defs>
      <path id="DejaVuSans-79" d="M 2059 -325 
Q 1816 -950 1584 -1140 
Q 1353 -1331 966 -1331 
L 506 -1331 
L 506 -850 
L 844 -850 
Q 1081 -850 1212 -737 
Q 1344 -625 1503 -206 
L 1606 56 
L 191 3500 
L 800 3500 
L 1894 763 
L 2988 3500 
L 3597 3500 
L 2059 -325 
z
" transform="scale(0.015625)"/>
     </defs>
     <use xlink:href="#DejaVuSans-64"/>
     <use xlink:href="#DejaVuSans-79" transform="translate(63.476562 0)"/>
     <use xlink:href="#DejaVuSans-6e" transform="translate(122.65625 0)"/>
     <use xlink:href="#DejaVuSans-61" transform="translate(186.035156 0)"/>
     <use xlink:href="#DejaVuSans-6d" transform="translate(247.314453 0)"/>
     <use xlink:href="#DejaVuSans-69" transform="translate(344.726562 0)"/>
     <use xlink:href="#DejaVuSans-63" transform="translate(372.509766 0)"/>
     <use xlink:href="#DejaVuSans-73" transform="translate(427.490234 0)"/>
     <use xlink:href="#DejaVuSans-20" transform="translate(479.589844 0)"/>
     <use xlink:href="#DejaVuSans-72" transform="translate(511.376953 0)"/>
     <use xlink:href="#DejaVuSans-5f" transform="translate(552.490234 0)"/>
     <use xlink:href="#DejaVuSans-69" transform="translate(602.490234 0)"/>
    </g>
   </g>
   <g id="text_6">
    <!-- Expert -->
    <g style="fill: #263238" transform="translate(96.391017 235.305918) scale(0.085 -0.085)">
     <defs>
      <path id="DejaVuSans-45" d="M 628 4666 
L 3578 4666 
L 3578 4134 
L 1259 4134 
L 1259 2753 
L 3481 2753 
L 3481 2222 
L 1259 2222 
L 1259 531 
L 3634 531 
L 3634 0 
L 628 0 
L 628 4666 
z
" transform="scale(0.015625)"/>
     </defs>
     <use xlink:href="#DejaVuSans-45"/>
     <use xlink:href="#DejaVuSans-78" transform="translate(63.183594 0)"/>
     <use xlink:href="#DejaVuSans-70" transform="translate(122.363281 0)"/>
     <use xlink:href="#DejaVuSans-65" transform="translate(185.839844 0)"/>
     <use xlink:href="#DejaVuSans-72" transform="translate(247.363281 0)"/>
     <use xlink:href="#DejaVuSans-74" transform="translate(288.476562 0)"/>
    </g>
    <!-- knowledge -->
    <g style="fill: #263238" transform="translate(87.280744 244.824059) scale(0.085 -0.085)">
     <defs>
      <path id="DejaVuSans-6b" d="M 581 4863 
L 1159 4863 
L 1159 1991 
L 2875 3500 
L 3609 3500 
L 1753 1863 
L 3688 0 
L 2938 0 
L 1159 1709 
L 1159 0 
L 581 0 
L 581 4863 
z
" transform="scale(0.015625)"/>
      <path id="DejaVuSans-67" d="M 2906 1791 
Q 2906 2416 2648 2759 
Q 2391 3103 1925 3103 
Q 1463 3103 1205 2759 
Q 947 2416 947 1791 
Q 947 1169 1205 825 
Q 1463 481 1925 481 
Q 2391 481 2648 825 
Q 2906 1169 2906 1791 
z
M 3481 434 
Q 3481 -459 3084 -895 
Q 2688 -1331 1869 -1331 
Q 1566 -1331 1297 -1286 
Q 1028 -1241 775 -1147 
L 775 -588 
Q 1028 -725 1275 -790 
Q 1522 -856 1778 -856 
Q 2344 -856 2625 -561 
Q 2906 -266 2906 331 
L 2906 616 
Q 2728 306 2450 153 
Q 2172 0 1784 0 
Q 1141 0 747 490 
Q 353 981 353 1791 
Q 353 2603 747 3093 
Q 1141 3584 1784 3584 
Q 2172 3584 2450 3431 
Q 2728 3278 2906 2969 
L 2906 3500 
L 3481 3500 
L 3481 434 
z
" transform="scale(0.015625)"/>
     </defs>
     <use xlink:href="#DejaVuSans-6b"/>
     <use xlink:href="#DejaVuSans-6e" transform="translate(57.910156 0)"/>
     <use xlink:href="#DejaVuSans-6f" transform="translate(121.289062 0)"/>
     <use xlink:href="#DejaVuSans-77" transform="translate(182.470703 0)"/>
     <use xlink:href="#DejaVuSans-6c" transform="translate(264.257812 0)"/>
     <use xlink:href="#DejaVuSans-65" transform="translate(292.041016 0)"/>
     <use xlink:href="#DejaVuSans-64" transform="translate(353.564453 0)"/>
     <use xlink:href="#DejaVuSans-67" transform="translate(417.041016 0)"/>
     <use xlink:href="#DejaVuSans-65" transform="translate(480.517578 0)"/>
    </g>
   </g>
   <g id="text_7">
    <!-- LLM weak- -->
    <g style="fill: #263238" transform="translate(87.87508 282.438688) scale(0.085 -0.085)">
     <defs>
      <path id="DejaVuSans-4c" d="M 628 4666 
L 1259 4666 
L 1259 531 
L 3531 531 
L 3531 0 
L 628 0 
L 628 4666 
z
" transform="scale(0.015625)"/>
      <path id="DejaVuSans-4d" d="M 628 4666 
L 1569 4666 
L 2759 1491 
L 3956 4666 
L 4897 4666 
L 4897 0 
L 4281 0 
L 4281 4097 
L 3078 897 
L 2444 897 
L 1241 4097 
L 1241 0 
L 628 0 
L 628 4666 
z
" transform="scale(0.015625)"/>
     </defs>
     <use xlink:href="#DejaVuSans-4c"/>
     <use xlink:href="#DejaVuSans-4c" transform="translate(55.712891 0)"/>
     <use xlink:href="#DejaVuSans-4d" transform="translate(111.425781 0)"/>
     <use xlink:href="#DejaVuSans-20" transform="translate(197.705078 0)"/>
     <use xlink:href="#DejaVuSans-77" transform="translate(229.492188 0)"/>
     <use xlink:href="#DejaVuSans-65" transform="translate(311.279297 0)"/>
     <use xlink:href="#DejaVuSans-61" transform="translate(372.802734 0)"/>
     <use xlink:href="#DejaVuSans-6b" transform="translate(434.082031 0)"/>
     <use xlink:href="#DejaVuSans-2d" transform="translate(491.992188 0)"/>
    </g>
    <!-- class -->
    <g style="fill: #263238" transform="translate(99.768439 291.956829) scale(0.085 -0.085)">
     <use xlink:href="#DejaVuSans-63"/>
     <use xlink:href="#DejaVuSans-6c" transform="translate(54.980469 0)"/>
     <use xlink:href="#DejaVuSans-61" transform="translate(82.763672 0)"/>
     <use xlink:href="#DejaVuSans-73" transform="translate(144.042969 0)"/>
     <use xlink:href="#DejaVuSans-73" transform="translate(196.142578 0)"/>
    </g>
    <!-- verifier -->
    <g style="fill: #263238" transform="translate(95.220939 301.474969) scale(0.085 -0.085)">
     <defs>
      <path id="DejaVuSans-76" d="M 191 3500 
L 800 3500 
L 1894 563 
L 2988 3500 
L 3597 3500 
L 2284 0 
L 1503 0 
L 191 3500 
z
" transform="scale(0.015625)"/>
      <path id="DejaVuSans-66" d="M 2375 4863 
L 2375 4384 
L 1825 4384 
Q 1516 4384 1395 4259 
Q 1275 4134 1275 3809 
L 1275 3500 
L 2222 3500 
L 2222 3053 
L 1275 3053 
L 1275 0 
L 697 0 
L 697 3053 
L 147 3053 
L 147 3500 
L 697 3500 
L 697 3744 
Q 697 4328 969 4595 
Q 1241 4863 1831 4863 
L 2375 4863 
z
" transform="scale(0.015625)"/>
     </defs>
     <use xlink:href="#DejaVuSans-76"/>
     <use xlink:href="#DejaVuSans-65" transform="translate(59.179688 0)"/>
     <use xlink:href="#DejaVuSans-72" transform="translate(120.703125 0)"/>
     <use xlink:href="#DejaVuSans-69" transform="translate(161.816406 0)"/>
     <use xlink:href="#DejaVuSans-66" transform="translate(189.599609 0)"/>
     <use xlink:href="#DejaVuSans-69" transform="translate(224.804688 0)"/>
     <use xlink:href="#DejaVuSans-65" transform="translate(252.587891 0)"/>
     <use xlink:href="#DejaVuSans-72" transform="translate(314.111328 0)"/>
    </g>
   </g>
   <g id="text_8">
    <!-- Lagged -->
    <g style="fill: #263238" transform="translate(94.636564 334.330528) scale(0.085 -0.085)">
     <use xlink:href="#DejaVuSans-4c"/>
     <use xlink:href="#DejaVuSans-61" transform="translate(55.712891 0)"/>
     <use xlink:href="#DejaVuSans-67" transform="translate(116.992188 0)"/>
     <use xlink:href="#DejaVuSans-67" transform="translate(180.46875 0)"/>
     <use xlink:href="#DejaVuSans-65" transform="translate(243.945312 0)"/>
     <use xlink:href="#DejaVuSans-64" transform="translate(305.46875 0)"/>
    </g>
    <!-- statistical -->
    <g style="fill: #263238" transform="translate(89.804181 343.848669) scale(0.085 -0.085)">
     <use xlink:href="#DejaVuSans-73"/>
     <use xlink:href="#DejaVuSans-74" transform="translate(52.099609 0)"/>
     <use xlink:href="#DejaVuSans-61" transform="translate(91.308594 0)"/>
     <use xlink:href="#DejaVuSans-74" transform="translate(152.587891 0)"/>
     <use xlink:href="#DejaVuSans-69" transform="translate(191.796875 0)"/>
     <use xlink:href="#DejaVuSans-73" transform="translate(219.580078 0)"/>
     <use xlink:href="#DejaVuSans-74" transform="translate(271.679688 0)"/>
     <use xlink:href="#DejaVuSans-69" transform="translate(310.888672 0)"/>
     <use xlink:href="#DejaVuSans-63" transform="translate(338.671875 0)"/>
     <use xlink:href="#DejaVuSans-61" transform="translate(393.652344 0)"/>
     <use xlink:href="#DejaVuSans-6c" transform="translate(454.931641 0)"/>
    </g>
    <!-- relations -->
    <g style="fill: #263238" transform="translate(91.911916 353.366809) scale(0.085 -0.085)">
     <use xlink:href="#DejaVuSans-72"/>
     <use xlink:href="#DejaVuSans-65" transform="translate(38.863281 0)"/>
     <use xlink:href="#DejaVuSans-6c" transform="translate(100.386719 0)"/>
     <use xlink:href="#DejaVuSans-61" transform="translate(128.169922 0)"/>
     <use xlink:href="#DejaVuSans-74" transform="translate(189.449219 0)"/>
     <use xlink:href="#DejaVuSans-69" transform="translate(228.658203 0)"/>
     <use xlink:href="#DejaVuSans-6f" transform="translate(256.441406 0)"/>
     <use xlink:href="#DejaVuSans-6e" transform="translate(317.623047 0)"/>
     <use xlink:href="#DejaVuSans-73" transform="translate(381.001953 0)"/>
    </g>
   </g>
   <g id="text_9">
    <!-- Graph paths -->
    <g style="fill: #263238" transform="translate(238.732992 302.397088) scale(0.085 -0.085)">
     <defs>
      <path id="DejaVuSans-47" d="M 3809 666 
L 3809 1919 
L 2778 1919 
L 2778 2438 
L 4434 2438 
L 4434 434 
Q 4069 175 3628 42 
Q 3188 -91 2688 -91 
Q 1594 -91 976 548 
Q 359 1188 359 2328 
Q 359 3472 976 4111 
Q 1594 4750 2688 4750 
Q 3144 4750 3555 4637 
Q 3966 4525 4313 4306 
L 4313 3634 
Q 3963 3931 3569 4081 
Q 3175 4231 2741 4231 
Q 1884 4231 1454 3753 
Q 1025 3275 1025 2328 
Q 1025 1384 1454 906 
Q 1884 428 2741 428 
Q 3075 428 3337 486 
Q 3600 544 3809 666 
z
" transform="scale(0.015625)"/>
     </defs>
     <use xlink:href="#DejaVuSans-47"/>
     <use xlink:href="#DejaVuSans-72" transform="translate(77.490234 0)"/>
     <use xlink:href="#DejaVuSans-61" transform="translate(118.603516 0)"/>
     <use xlink:href="#DejaVuSans-70" transform="translate(179.882812 0)"/>
     <use xlink:href="#DejaVuSans-68" transform="translate(243.359375 0)"/>
     <use xlink:href="#DejaVuSans-20" transform="translate(306.738281 0)"/>
     <use xlink:href="#DejaVuSans-70" transform="translate(338.525391 0)"/>
     <use xlink:href="#DejaVuSans-61" transform="translate(402.001953 0)"/>
     <use xlink:href="#DejaVuSans-74" transform="translate(463.28125 0)"/>
     <use xlink:href="#DejaVuSans-68" transform="translate(502.490234 0)"/>
     <use xlink:href="#DejaVuSans-73" transform="translate(565.869141 0)"/>
    </g>
    <!-- and source- -->
    <g style="fill: #263238" transform="translate(240.004672 311.915229) scale(0.085 -0.085)">
     <use xlink:href="#DejaVuSans-61"/>
     <use xlink:href="#DejaVuSans-6e" transform="translate(61.279297 0)"/>
     <use xlink:href="#DejaVuSans-64" transform="translate(124.658203 0)"/>
     <use xlink:href="#DejaVuSans-20" transform="translate(188.134766 0)"/>
     <use xlink:href="#DejaVuSans-73" transform="translate(219.921875 0)"/>
     <use xlink:href="#DejaVuSans-6f" transform="translate(272.021484 0)"/>
     <use xlink:href="#DejaVuSans-75" transform="translate(333.203125 0)"/>
     <use xlink:href="#DejaVuSans-72" transform="translate(396.582031 0)"/>
     <use xlink:href="#DejaVuSans-63" transform="translate(435.445312 0)"/>
     <use xlink:href="#DejaVuSans-65" transform="translate(490.425781 0)"/>
     <use xlink:href="#DejaVuSans-2d" transform="translate(551.949219 0)"/>
    </g>
    <!-- pruned edges -->
    <g style="fill: #263238" transform="translate(235.659711 321.433369) scale(0.085 -0.085)">
     <use xlink:href="#DejaVuSans-70"/>
     <use xlink:href="#DejaVuSans-72" transform="translate(63.476562 0)"/>
     <use xlink:href="#DejaVuSans-75" transform="translate(104.589844 0)"/>
     <use xlink:href="#DejaVuSans-6e" transform="translate(167.96875 0)"/>
     <use xlink:href="#DejaVuSans-65" transform="translate(231.347656 0)"/>
     <use xlink:href="#DejaVuSans-64" transform="translate(292.871094 0)"/>
     <use xlink:href="#DejaVuSans-20" transform="translate(356.347656 0)"/>
     <use xlink:href="#DejaVuSans-65" transform="translate(388.134766 0)"/>
     <use xlink:href="#DejaVuSans-64" transform="translate(449.658203 0)"/>
     <use xlink:href="#DejaVuSans-67" transform="translate(513.134766 0)"/>
     <use xlink:href="#DejaVuSans-65" transform="translate(576.611328 0)"/>
     <use xlink:href="#DejaVuSans-73" transform="translate(638.134766 0)"/>
    </g>
   </g>
   <g id="text_10">
    <!-- Candidate -->
    <g style="fill: #263238" transform="translate(416.002978 242.97273) scale(0.09 -0.09)">
     <use xlink:href="#DejaVuSans-Bold-43"/>
     <use xlink:href="#DejaVuSans-Bold-61" transform="translate(73.388672 0)"/>
     <use xlink:href="#DejaVuSans-Bold-6e" transform="translate(140.869141 0)"/>
     <use xlink:href="#DejaVuSans-Bold-64" transform="translate(212.060547 0)"/>
     <use xlink:href="#DejaVuSans-Bold-69" transform="translate(283.642578 0)"/>
     <use xlink:href="#DejaVuSans-Bold-64" transform="translate(317.919922 0)"/>
     <use xlink:href="#DejaVuSans-Bold-61" transform="translate(389.501953 0)"/>
     <use xlink:href="#DejaVuSans-Bold-74" transform="translate(456.982422 0)"/>
     <use xlink:href="#DejaVuSans-Bold-65" transform="translate(504.785156 0)"/>
    </g>
    <!-- mechanism -->
    <g style="fill: #263238" transform="translate(413.007666 253.050761) scale(0.09 -0.09)">
     <use xlink:href="#DejaVuSans-Bold-6d"/>
     <use xlink:href="#DejaVuSans-Bold-65" transform="translate(104.199219 0)"/>
     <use xlink:href="#DejaVuSans-Bold-63" transform="translate(172.021484 0)"/>
     <use xlink:href="#DejaVuSans-Bold-68" transform="translate(231.298828 0)"/>
     <use xlink:href="#DejaVuSans-Bold-61" transform="translate(302.490234 0)"/>
     <use xlink:href="#DejaVuSans-Bold-6e" transform="translate(369.970703 0)"/>
     <use xlink:href="#DejaVuSans-Bold-69" transform="translate(441.162109 0)"/>
     <use xlink:href="#DejaVuSans-Bold-73" transform="translate(475.439453 0)"/>
     <use xlink:href="#DejaVuSans-Bold-6d" transform="translate(534.960938 0)"/>
    </g>
    <!-- evidence m_k -->
    <g style="fill: #263238" transform="translate(407.547197 263.128792) scale(0.09 -0.09)">
     <defs>
      <path id="DejaVuSans-Bold-6b" d="M 538 4863 
L 1656 4863 
L 1656 2216 
L 2944 3500 
L 4244 3500 
L 2534 1894 
L 4378 0 
L 3022 0 
L 1656 1459 
L 1656 0 
L 538 0 
L 538 4863 
z
" transform="scale(0.015625)"/>
     </defs>
     <use xlink:href="#DejaVuSans-Bold-65"/>
     <use xlink:href="#DejaVuSans-Bold-76" transform="translate(67.822266 0)"/>
     <use xlink:href="#DejaVuSans-Bold-69" transform="translate(133.007812 0)"/>
     <use xlink:href="#DejaVuSans-Bold-64" transform="translate(167.285156 0)"/>
     <use xlink:href="#DejaVuSans-Bold-65" transform="translate(238.867188 0)"/>
     <use xlink:href="#DejaVuSans-Bold-6e" transform="translate(306.689453 0)"/>
     <use xlink:href="#DejaVuSans-Bold-63" transform="translate(377.880859 0)"/>
     <use xlink:href="#DejaVuSans-Bold-65" transform="translate(437.158203 0)"/>
     <use xlink:href="#DejaVuSans-Bold-20" transform="translate(504.980469 0)"/>
     <use xlink:href="#DejaVuSans-Bold-6d" transform="translate(539.794922 0)"/>
     <use xlink:href="#DejaVuSans-Bold-5f" transform="translate(643.994141 0)"/>
     <use xlink:href="#DejaVuSans-Bold-6b" transform="translate(693.994141 0)"/>
    </g>
   </g>
   <g id="text_11">
    <!-- Mechanism -->
    <g style="fill: #263238" transform="translate(585.614278 248.96025) scale(0.09 -0.09)">
     <use xlink:href="#DejaVuSans-4d"/>
     <use xlink:href="#DejaVuSans-65" transform="translate(86.279297 0)"/>
     <use xlink:href="#DejaVuSans-63" transform="translate(147.802734 0)"/>
     <use xlink:href="#DejaVuSans-68" transform="translate(202.783203 0)"/>
     <use xlink:href="#DejaVuSans-61" transform="translate(266.162109 0)"/>
     <use xlink:href="#DejaVuSans-6e" transform="translate(327.441406 0)"/>
     <use xlink:href="#DejaVuSans-69" transform="translate(390.820312 0)"/>
     <use xlink:href="#DejaVuSans-73" transform="translate(418.603516 0)"/>
     <use xlink:href="#DejaVuSans-6d" transform="translate(470.703125 0)"/>
    </g>
    <!-- challengers -->
    <g style="fill: #263238" transform="translate(585.154434 259.038281) scale(0.09 -0.09)">
     <use xlink:href="#DejaVuSans-63"/>
     <use xlink:href="#DejaVuSans-68" transform="translate(54.980469 0)"/>
     <use xlink:href="#DejaVuSans-61" transform="translate(118.359375 0)"/>
     <use xlink:href="#DejaVuSans-6c" transform="translate(179.638672 0)"/>
     <use xlink:href="#DejaVuSans-6c" transform="translate(207.421875 0)"/>
     <use xlink:href="#DejaVuSans-65" transform="translate(235.205078 0)"/>
     <use xlink:href="#DejaVuSans-6e" transform="translate(296.728516 0)"/>
     <use xlink:href="#DejaVuSans-67" transform="translate(360.107422 0)"/>
     <use xlink:href="#DejaVuSans-65" transform="translate(423.583984 0)"/>
     <use xlink:href="#DejaVuSans-72" transform="translate(485.107422 0)"/>
     <use xlink:href="#DejaVuSans-73" transform="translate(526.220703 0)"/>
    </g>
    <!-- f_k -->
    <g style="fill: #263238" transform="translate(604.739278 269.116312) scale(0.09 -0.09)">
     <use xlink:href="#DejaVuSans-66"/>
     <use xlink:href="#DejaVuSans-5f" transform="translate(35.205078 0)"/>
     <use xlink:href="#DejaVuSans-6b" transform="translate(85.205078 0)"/>
    </g>
   </g>
   <g id="text_12">
    <!-- Challenger -->
    <g style="fill: #263238" transform="translate(586.830684 157.15161) scale(0.09 -0.09)">
     <defs>
      <path id="DejaVuSans-43" d="M 4122 4306 
L 4122 3641 
Q 3803 3938 3442 4084 
Q 3081 4231 2675 4231 
Q 1875 4231 1450 3742 
Q 1025 3253 1025 2328 
Q 1025 1406 1450 917 
Q 1875 428 2675 428 
Q 3081 428 3442 575 
Q 3803 722 4122 1019 
L 4122 359 
Q 3791 134 3420 21 
Q 3050 -91 2638 -91 
Q 1578 -91 968 557 
Q 359 1206 359 2328 
Q 359 3453 968 4101 
Q 1578 4750 2638 4750 
Q 3056 4750 3426 4639 
Q 3797 4528 4122 4306 
z
" transform="scale(0.015625)"/>
     </defs>
     <use xlink:href="#DejaVuSans-43"/>
     <use xlink:href="#DejaVuSans-68" transform="translate(69.824219 0)"/>
     <use xlink:href="#DejaVuSans-61" transform="translate(133.203125 0)"/>
     <use xlink:href="#DejaVuSans-6c" transform="translate(194.482422 0)"/>
     <use xlink:href="#DejaVuSans-6c" transform="translate(222.265625 0)"/>
     <use xlink:href="#DejaVuSans-65" transform="translate(250.048828 0)"/>
     <use xlink:href="#DejaVuSans-6e" transform="translate(311.572266 0)"/>
     <use xlink:href="#DejaVuSans-67" transform="translate(374.951172 0)"/>
     <use xlink:href="#DejaVuSans-65" transform="translate(438.427734 0)"/>
     <use xlink:href="#DejaVuSans-72" transform="translate(499.951172 0)"/>
    </g>
    <!-- predictions -->
    <g style="fill: #263238" transform="translate(586.259747 167.229641) scale(0.09 -0.09)">
     <use xlink:href="#DejaVuSans-70"/>
     <use xlink:href="#DejaVuSans-72" transform="translate(63.476562 0)"/>
     <use xlink:href="#DejaVuSans-65" transform="translate(102.339844 0)"/>
     <use xlink:href="#DejaVuSans-64" transform="translate(163.863281 0)"/>
     <use xlink:href="#DejaVuSans-69" transform="translate(227.339844 0)"/>
     <use xlink:href="#DejaVuSans-63" transform="translate(255.123047 0)"/>
     <use xlink:href="#DejaVuSans-74" transform="translate(310.103516 0)"/>
     <use xlink:href="#DejaVuSans-69" transform="translate(349.3125 0)"/>
     <use xlink:href="#DejaVuSans-6f" transform="translate(377.095703 0)"/>
     <use xlink:href="#DejaVuSans-6e" transform="translate(438.277344 0)"/>
     <use xlink:href="#DejaVuSans-73" transform="translate(501.65625 0)"/>
    </g>
    <!-- p_k(i) -->
    <g style="fill: #263238" transform="translate(598.705059 177.307672) scale(0.09 -0.09)">
     <use xlink:href="#DejaVuSans-70"/>
     <use xlink:href="#DejaVuSans-5f" transform="translate(63.476562 0)"/>
     <use xlink:href="#DejaVuSans-6b" transform="translate(113.476562 0)"/>
     <use xlink:href="#DejaVuSans-28" transform="translate(171.386719 0)"/>
     <use xlink:href="#DejaVuSans-69" transform="translate(210.400391 0)"/>
     <use xlink:href="#DejaVuSans-29" transform="translate(238.183594 0)"/>
    </g>
   </g>
   <g id="text_13">
    <!-- Reliability -->
    <g style="fill: #263238" transform="translate(419.784384 157.15161) scale(0.09 -0.09)">
     <defs>
      <path id="DejaVuSans-62" d="M 3116 1747 
Q 3116 2381 2855 2742 
Q 2594 3103 2138 3103 
Q 1681 3103 1420 2742 
Q 1159 2381 1159 1747 
Q 1159 1113 1420 752 
Q 1681 391 2138 391 
Q 2594 391 2855 752 
Q 3116 1113 3116 1747 
z
M 1159 2969 
Q 1341 3281 1617 3432 
Q 1894 3584 2278 3584 
Q 2916 3584 3314 3078 
Q 3713 2572 3713 1747 
Q 3713 922 3314 415 
Q 2916 -91 2278 -91 
Q 1894 -91 1617 61 
Q 1341 213 1159 525 
L 1159 0 
L 581 0 
L 581 4863 
L 1159 4863 
L 1159 2969 
z
" transform="scale(0.015625)"/>
     </defs>
     <use xlink:href="#DejaVuSans-52"/>
     <use xlink:href="#DejaVuSans-65" transform="translate(64.982422 0)"/>
     <use xlink:href="#DejaVuSans-6c" transform="translate(126.505859 0)"/>
     <use xlink:href="#DejaVuSans-69" transform="translate(154.289062 0)"/>
     <use xlink:href="#DejaVuSans-61" transform="translate(182.072266 0)"/>
     <use xlink:href="#DejaVuSans-62" transform="translate(243.351562 0)"/>
     <use xlink:href="#DejaVuSans-69" transform="translate(306.828125 0)"/>
     <use xlink:href="#DejaVuSans-6c" transform="translate(334.611328 0)"/>
     <use xlink:href="#DejaVuSans-69" transform="translate(362.394531 0)"/>
     <use xlink:href="#DejaVuSans-74" transform="translate(390.177734 0)"/>
     <use xlink:href="#DejaVuSans-79" transform="translate(429.386719 0)"/>
    </g>
    <!-- certificate -->
    <g style="fill: #263238" transform="translate(419.063681 167.229641) scale(0.09 -0.09)">
     <use xlink:href="#DejaVuSans-63"/>
     <use xlink:href="#DejaVuSans-65" transform="translate(54.980469 0)"/>
     <use xlink:href="#DejaVuSans-72" transform="translate(116.503906 0)"/>
     <use xlink:href="#DejaVuSans-74" transform="translate(157.617188 0)"/>
     <use xlink:href="#DejaVuSans-69" transform="translate(196.826172 0)"/>
     <use xlink:href="#DejaVuSans-66" transform="translate(224.609375 0)"/>
     <use xlink:href="#DejaVuSans-69" transform="translate(259.814453 0)"/>
     <use xlink:href="#DejaVuSans-63" transform="translate(287.597656 0)"/>
     <use xlink:href="#DejaVuSans-61" transform="translate(342.578125 0)"/>
     <use xlink:href="#DejaVuSans-74" transform="translate(403.857422 0)"/>
     <use xlink:href="#DejaVuSans-65" transform="translate(443.066406 0)"/>
    </g>
    <!-- R_k -->
    <g style="fill: #263238" transform="translate(433.787822 177.307672) scale(0.09 -0.09)">
     <use xlink:href="#DejaVuSans-52"/>
     <use xlink:href="#DejaVuSans-5f" transform="translate(69.482422 0)"/>
     <use xlink:href="#DejaVuSans-6b" transform="translate(119.482422 0)"/>
    </g>
   </g>
   <g id="text_14">
    <!-- Evidence -->
    <g style="fill: #263238" transform="translate(589.696114 84.929652) scale(0.085 -0.085)">
     <use xlink:href="#DejaVuSans-Bold-45"/>
     <use xlink:href="#DejaVuSans-Bold-76" transform="translate(68.310547 0)"/>
     <use xlink:href="#DejaVuSans-Bold-69" transform="translate(133.496094 0)"/>
     <use xlink:href="#DejaVuSans-Bold-64" transform="translate(167.773438 0)"/>
     <use xlink:href="#DejaVuSans-Bold-65" transform="translate(239.355469 0)"/>
     <use xlink:href="#DejaVuSans-Bold-6e" transform="translate(307.177734 0)"/>
     <use xlink:href="#DejaVuSans-Bold-63" transform="translate(378.369141 0)"/>
     <use xlink:href="#DejaVuSans-Bold-65" transform="translate(437.646484 0)"/>
    </g>
    <!-- Reliability -->
    <g style="fill: #263238" transform="translate(587.027247 94.447792) scale(0.085 -0.085)">
     <use xlink:href="#DejaVuSans-Bold-52"/>
     <use xlink:href="#DejaVuSans-Bold-65" transform="translate(77.001953 0)"/>
     <use xlink:href="#DejaVuSans-Bold-6c" transform="translate(144.824219 0)"/>
     <use xlink:href="#DejaVuSans-Bold-69" transform="translate(179.101562 0)"/>
     <use xlink:href="#DejaVuSans-Bold-61" transform="translate(213.378906 0)"/>
     <use xlink:href="#DejaVuSans-Bold-62" transform="translate(280.859375 0)"/>
     <use xlink:href="#DejaVuSans-Bold-69" transform="translate(352.441406 0)"/>
     <use xlink:href="#DejaVuSans-Bold-6c" transform="translate(386.71875 0)"/>
     <use xlink:href="#DejaVuSans-Bold-69" transform="translate(420.996094 0)"/>
     <use xlink:href="#DejaVuSans-Bold-74" transform="translate(455.273438 0)"/>
     <use xlink:href="#DejaVuSans-Bold-79" transform="translate(503.076172 0)"/>
    </g>
    <!-- Estimator -->
    <g style="fill: #263238" transform="translate(587.914434 104.032339) scale(0.085 -0.085)">
     <use xlink:href="#DejaVuSans-Bold-45"/>
     <use xlink:href="#DejaVuSans-Bold-73" transform="translate(68.310547 0)"/>
     <use xlink:href="#DejaVuSans-Bold-74" transform="translate(127.832031 0)"/>
     <use xlink:href="#DejaVuSans-Bold-69" transform="translate(175.634766 0)"/>
     <use xlink:href="#DejaVuSans-Bold-6d" transform="translate(209.912109 0)"/>
     <use xlink:href="#DejaVuSans-Bold-61" transform="translate(314.111328 0)"/>
     <use xlink:href="#DejaVuSans-Bold-74" transform="translate(381.591797 0)"/>
     <use xlink:href="#DejaVuSans-Bold-6f" transform="translate(429.394531 0)"/>
     <use xlink:href="#DejaVuSans-Bold-72" transform="translate(498.095703 0)"/>
    </g>
    <!-- q_psi(i,k) -->
    <g style="fill: #263238" transform="translate(589.201387 113.55048) scale(0.085 -0.085)">
     <defs>
      <path id="DejaVuSans-Bold-71" d="M 2181 2772 
Q 1825 2772 1636 2509 
Q 1447 2247 1447 1747 
Q 1447 1247 1636 984 
Q 1825 722 2181 722 
Q 2541 722 2730 984 
Q 2919 1247 2919 1747 
Q 2919 2247 2730 2509 
Q 2541 2772 2181 2772 
z
M 2919 506 
Q 2688 197 2409 53 
Q 2131 -91 1766 -91 
Q 1119 -91 703 423 
Q 288 938 288 1747 
Q 288 2556 703 3067 
Q 1119 3578 1766 3578 
Q 2131 3578 2409 3434 
Q 2688 3291 2919 2981 
L 2919 3500 
L 4044 3500 
L 4044 -1331 
L 2919 -1331 
L 2919 506 
z
" transform="scale(0.015625)"/>
      <path id="DejaVuSans-Bold-70" d="M 1656 506 
L 1656 -1331 
L 538 -1331 
L 538 3500 
L 1656 3500 
L 1656 2988 
Q 1888 3294 2169 3439 
Q 2450 3584 2816 3584 
Q 3463 3584 3878 3070 
Q 4294 2556 4294 1747 
Q 4294 938 3878 423 
Q 3463 -91 2816 -91 
Q 2450 -91 2169 54 
Q 1888 200 1656 506 
z
M 2400 2772 
Q 2041 2772 1848 2508 
Q 1656 2244 1656 1747 
Q 1656 1250 1848 986 
Q 2041 722 2400 722 
Q 2759 722 2948 984 
Q 3138 1247 3138 1747 
Q 3138 2247 2948 2509 
Q 2759 2772 2400 2772 
z
" transform="scale(0.015625)"/>
      <path id="DejaVuSans-Bold-28" d="M 2413 -844 
L 1484 -844 
Q 1006 -72 778 623 
Q 550 1319 550 2003 
Q 550 2688 779 3389 
Q 1009 4091 1484 4856 
L 2413 4856 
Q 2013 4116 1813 3408 
Q 1613 2700 1613 2009 
Q 1613 1319 1811 609 
Q 2009 -100 2413 -844 
z
" transform="scale(0.015625)"/>
      <path id="DejaVuSans-Bold-2c" d="M 653 1209 
L 1778 1209 
L 1778 256 
L 1006 -909 
L 341 -909 
L 653 256 
L 653 1209 
z
" transform="scale(0.015625)"/>
      <path id="DejaVuSans-Bold-29" d="M 513 -844 
Q 913 -100 1113 609 
Q 1313 1319 1313 2009 
Q 1313 2700 1113 3408 
Q 913 4116 513 4856 
L 1441 4856 
Q 1916 4091 2145 3389 
Q 2375 2688 2375 2003 
Q 2375 1319 2147 623 
Q 1919 -72 1441 -844 
L 513 -844 
z
" transform="scale(0.015625)"/>
     </defs>
     <use xlink:href="#DejaVuSans-Bold-71"/>
     <use xlink:href="#DejaVuSans-Bold-5f" transform="translate(71.582031 0)"/>
     <use xlink:href="#DejaVuSans-Bold-70" transform="translate(121.582031 0)"/>
     <use xlink:href="#DejaVuSans-Bold-73" transform="translate(193.164062 0)"/>
     <use xlink:href="#DejaVuSans-Bold-69" transform="translate(252.685547 0)"/>
     <use xlink:href="#DejaVuSans-Bold-28" transform="translate(286.962891 0)"/>
     <use xlink:href="#DejaVuSans-Bold-69" transform="translate(332.666016 0)"/>
     <use xlink:href="#DejaVuSans-Bold-2c" transform="translate(366.943359 0)"/>
     <use xlink:href="#DejaVuSans-Bold-6b" transform="translate(404.931641 0)"/>
     <use xlink:href="#DejaVuSans-Bold-29" transform="translate(471.435547 0)"/>
    </g>
   </g>
   <g id="text_15">
    <!-- Admitted -->
    <g style="fill: #263238" transform="translate(428.49225 335.828706) scale(0.09 -0.09)">
     <use xlink:href="#DejaVuSans-41"/>
     <use xlink:href="#DejaVuSans-64" transform="translate(66.658203 0)"/>
     <use xlink:href="#DejaVuSans-6d" transform="translate(130.134766 0)"/>
     <use xlink:href="#DejaVuSans-69" transform="translate(227.546875 0)"/>
     <use xlink:href="#DejaVuSans-74" transform="translate(255.330078 0)"/>
     <use xlink:href="#DejaVuSans-74" transform="translate(294.539062 0)"/>
     <use xlink:href="#DejaVuSans-65" transform="translate(333.748047 0)"/>
     <use xlink:href="#DejaVuSans-64" transform="translate(395.271484 0)"/>
    </g>
    <!-- evidence A_R -->
    <g style="fill: #263238" transform="translate(418.847484 345.906737) scale(0.09 -0.09)">
     <use xlink:href="#DejaVuSans-65"/>
     <use xlink:href="#DejaVuSans-76" transform="translate(61.523438 0)"/>
     <use xlink:href="#DejaVuSans-69" transform="translate(120.703125 0)"/>
     <use xlink:href="#DejaVuSans-64" transform="translate(148.486328 0)"/>
     <use xlink:href="#DejaVuSans-65" transform="translate(211.962891 0)"/>
     <use xlink:href="#DejaVuSans-6e" transform="translate(273.486328 0)"/>
     <use xlink:href="#DejaVuSans-63" transform="translate(336.865234 0)"/>
     <use xlink:href="#DejaVuSans-65" transform="translate(391.845703 0)"/>
     <use xlink:href="#DejaVuSans-20" transform="translate(453.369141 0)"/>
     <use xlink:href="#DejaVuSans-41" transform="translate(485.15625 0)"/>
     <use xlink:href="#DejaVuSans-5f" transform="translate(553.564453 0)"/>
     <use xlink:href="#DejaVuSans-52" transform="translate(603.564453 0)"/>
    </g>
   </g>
   <g id="text_16">
    <!-- Reliability- -->
    <g style="fill: #263238" transform="translate(587.648419 335.953862) scale(0.09 -0.09)">
     <use xlink:href="#DejaVuSans-52"/>
     <use xlink:href="#DejaVuSans-65" transform="translate(64.982422 0)"/>
     <use xlink:href="#DejaVuSans-6c" transform="translate(126.505859 0)"/>
     <use xlink:href="#DejaVuSans-69" transform="translate(154.289062 0)"/>
     <use xlink:href="#DejaVuSans-61" transform="translate(182.072266 0)"/>
     <use xlink:href="#DejaVuSans-62" transform="translate(243.351562 0)"/>
     <use xlink:href="#DejaVuSans-69" transform="translate(306.828125 0)"/>
     <use xlink:href="#DejaVuSans-6c" transform="translate(334.611328 0)"/>
     <use xlink:href="#DejaVuSans-69" transform="translate(362.394531 0)"/>
     <use xlink:href="#DejaVuSans-74" transform="translate(390.177734 0)"/>
     <use xlink:href="#DejaVuSans-79" transform="translate(429.386719 0)"/>
     <use xlink:href="#DejaVuSans-2d" transform="translate(486.816406 0)"/>
    </g>
    <!-- gated router -->
    <g style="fill: #263238" transform="translate(583.007794 346.031893) scale(0.09 -0.09)">
     <use xlink:href="#DejaVuSans-67"/>
     <use xlink:href="#DejaVuSans-61" transform="translate(63.476562 0)"/>
     <use xlink:href="#DejaVuSans-74" transform="translate(124.755859 0)"/>
     <use xlink:href="#DejaVuSans-65" transform="translate(163.964844 0)"/>
     <use xlink:href="#DejaVuSans-64" transform="translate(225.488281 0)"/>
     <use xlink:href="#DejaVuSans-20" transform="translate(288.964844 0)"/>
     <use xlink:href="#DejaVuSans-72" transform="translate(320.751953 0)"/>
     <use xlink:href="#DejaVuSans-6f" transform="translate(359.615234 0)"/>
     <use xlink:href="#DejaVuSans-75" transform="translate(420.796875 0)"/>
     <use xlink:href="#DejaVuSans-74" transform="translate(484.175781 0)"/>
     <use xlink:href="#DejaVuSans-65" transform="translate(523.384766 0)"/>
     <use xlink:href="#DejaVuSans-72" transform="translate(584.908203 0)"/>
    </g>
   </g>
   <g id="text_17">
    <!-- Final -->
    <g style="fill: #263238" transform="translate(683.483991 187.214366) scale(0.09 -0.09)">
     <use xlink:href="#DejaVuSans-Bold-46"/>
     <use xlink:href="#DejaVuSans-Bold-69" transform="translate(68.310547 0)"/>
     <use xlink:href="#DejaVuSans-Bold-6e" transform="translate(102.587891 0)"/>
     <use xlink:href="#DejaVuSans-Bold-61" transform="translate(173.779297 0)"/>
     <use xlink:href="#DejaVuSans-Bold-6c" transform="translate(241.259766 0)"/>
    </g>
    <!-- prediction -->
    <g style="fill: #263238" transform="translate(669.971334 197.292397) scale(0.09 -0.09)">
     <use xlink:href="#DejaVuSans-Bold-70"/>
     <use xlink:href="#DejaVuSans-Bold-72" transform="translate(71.582031 0)"/>
     <use xlink:href="#DejaVuSans-Bold-65" transform="translate(120.898438 0)"/>
     <use xlink:href="#DejaVuSans-Bold-64" transform="translate(188.720703 0)"/>
     <use xlink:href="#DejaVuSans-Bold-69" transform="translate(260.302734 0)"/>
     <use xlink:href="#DejaVuSans-Bold-63" transform="translate(294.580078 0)"/>
     <use xlink:href="#DejaVuSans-Bold-74" transform="translate(353.857422 0)"/>
     <use xlink:href="#DejaVuSans-Bold-69" transform="translate(401.660156 0)"/>
     <use xlink:href="#DejaVuSans-Bold-6f" transform="translate(435.9375 0)"/>
     <use xlink:href="#DejaVuSans-Bold-6e" transform="translate(504.638672 0)"/>
    </g>
    <!-- p*(i) -->
    <g style="fill: #263238" transform="translate(684.653288 207.370429) scale(0.09 -0.09)">
     <defs>
      <path id="DejaVuSans-Bold-2a" d="M 3219 3803 
L 2188 3263 
L 3219 2719 
L 2981 2278 
L 1941 2853 
L 1941 1778 
L 1409 1778 
L 1409 2853 
L 366 2278 
L 128 2719 
L 1172 3263 
L 128 3803 
L 366 4244 
L 1409 3675 
L 1409 4750 
L 1941 4750 
L 1941 3675 
L 2981 4244 
L 3219 3803 
z
" transform="scale(0.015625)"/>
     </defs>
     <use xlink:href="#DejaVuSans-Bold-70"/>
     <use xlink:href="#DejaVuSans-Bold-2a" transform="translate(71.582031 0)"/>
     <use xlink:href="#DejaVuSans-Bold-28" transform="translate(123.876953 0)"/>
     <use xlink:href="#DejaVuSans-Bold-69" transform="translate(169.580078 0)"/>
     <use xlink:href="#DejaVuSans-Bold-29" transform="translate(203.857422 0)"/>
    </g>
   </g>
  </g>
 </g>
 <defs>
  <clipPath id="p88156a5722">
   <rect x="7.2" y="7.2" width="736.56" height="399.168"/>
  </clipPath>
 </defs>
</svg>
